<?xml version="1.0" encoding="utf-8"?>
<!-- Generated by IcoMoon.io -->
<!DOCTYPE svg PUBLIC "-//W3C//DTD SVG 1.1//EN" "http://www.w3.org/Graphics/SVG/1.1/DTD/svg11.dtd">
<svg version="1.1" xmlns="http://www.w3.org/2000/svg" xmlns:xlink="http://www.w3.org/1999/xlink" width="22" height="22" viewBox="0 0 22 22">
<path fill="#ffffff" d="M11 0.917q2.055 0 3.921 0.799t3.216 2.148 2.148 3.216 0.799 3.921-0.799 3.921-2.148 3.216-3.216 2.148-3.921 0.799-3.921-0.799-3.216-2.148-2.148-3.216-0.799-3.921 0.799-3.921 2.148-3.216 3.216-2.148 3.921-0.799zM11 2.75q-1.676 0-3.205 0.655t-2.632 1.758-1.758 2.632-0.655 3.205 0.655 3.205 1.758 2.632 2.632 1.758 3.205 0.655 3.205-0.655 2.632-1.758 1.758-2.632 0.655-3.205-0.655-3.205-1.758-2.632-2.632-1.758-3.205-0.655zM7.333 10.083h7.333q0.38 0 0.648 0.269t0.269 0.648-0.269 0.648-0.648 0.269h-7.333q-0.38 0-0.648-0.269t-0.269-0.648 0.269-0.648 0.648-0.269z"></path>
</svg>
