<?xml version="1.0" encoding="utf-8"?>
<!-- Generated by IcoMoon.io -->
<!DOCTYPE svg PUBLIC "-//W3C//DTD SVG 1.1//EN" "http://www.w3.org/Graphics/SVG/1.1/DTD/svg11.dtd">
<svg version="1.1" xmlns="http://www.w3.org/2000/svg" xmlns:xlink="http://www.w3.org/1999/xlink" width="23" height="23" viewBox="0 0 23 23">
<path fill="#003359" d="M22.342 7.886l-2.41-4.271h-4.162l-2.081-3.614h-4.929l-2.081 3.614h-4.271l-2.41 4.271 2.081 3.614-2.081 3.614 2.41 4.271h4.162l2.19 3.614h4.929l2.081-3.614h4.162l2.41-4.271-2.081-3.614 2.081-3.614zM20.919 7.886l-1.752 2.958h-3.396l-1.752-2.958 1.752-2.958h3.396l1.752 2.958zM9.529 14.458l-1.752-2.958 1.752-2.958h3.396l1.752 2.958-1.752 2.958h-3.396zM9.529 1.314h3.396l1.752 2.958-1.752 2.958h-3.396l-1.752-2.958 1.752-2.958zM3.177 4.929h3.396l1.752 2.958-1.642 2.958h-3.504l-1.642-2.958 1.642-2.958zM1.533 15.114l1.752-2.958h3.396l1.752 2.958-1.752 2.958h-3.504l-1.642-2.958zM12.923 21.686h-3.396l-1.752-2.958 1.752-2.958h3.396l1.752 2.958-1.752 2.958zM19.167 18.071h-3.396l-1.752-2.958 1.752-2.958h3.396l1.752 2.958-1.752 2.958z"></path>
</svg>
