<?xml version="1.0" encoding="utf-8"?>
<!-- Generated by IcoMoon.io -->
<!DOCTYPE svg PUBLIC "-//W3C//DTD SVG 1.1//EN" "http://www.w3.org/Graphics/SVG/1.1/DTD/svg11.dtd">
<svg version="1.1" xmlns="http://www.w3.org/2000/svg" xmlns:xlink="http://www.w3.org/1999/xlink" width="24" height="25" viewBox="0 0 24 25">
<path fill="#ffffff" d="M5.837 2.533h12.225v1.322h-12.225v-1.322z"></path>
<path fill="#ffffff" d="M23.568 2.533h-2.533v1.322h1.872v19.824h-21.586v-19.824h1.652v-1.322h-2.313c-0.33 0-0.661 0.33-0.661 0.661v21.145c0 0.33 0.33 0.661 0.661 0.661h22.907c0.33 0 0.661-0.33 0.661-0.661v-21.145c0-0.33-0.33-0.661-0.661-0.661z"></path>
<path fill="#ffffff" d="M4.405 5.837c0.33 0 0.661-0.33 0.661-0.661v-4.626c0-0.22-0.33-0.551-0.661-0.551s-0.661 0.33-0.661 0.661v4.626c0 0.33 0.33 0.551 0.661 0.551z"></path>
<path fill="#ffffff" d="M19.604 5.837c0.33 0 0.661-0.33 0.661-0.661v-4.626c0-0.33-0.33-0.661-0.661-0.661s-0.661 0.33-0.661 0.661v4.626c0 0.441 0.22 0.661 0.661 0.661z"></path>
<path fill="#ffffff" d="M4.515 8.48h15.198v1.322h-15.198v-1.322z"></path>
<path fill="#ffffff" d="M4.515 12.004h15.198v1.322h-15.198v-1.322z"></path>
<path fill="#ffffff" d="M4.515 15.639h15.198v1.322h-15.198v-1.322z"></path>
<path fill="#ffffff" d="M4.515 19.163h8.59v1.322h-8.59v-1.322z"></path>
</svg>
