<?xml version="1.0" encoding="utf-8"?>
<!-- Generated by IcoMoon.io -->
<!DOCTYPE svg PUBLIC "-//W3C//DTD SVG 1.1//EN" "http://www.w3.org/Graphics/SVG/1.1/DTD/svg11.dtd">
<svg version="1.1" xmlns="http://www.w3.org/2000/svg" xmlns:xlink="http://www.w3.org/1999/xlink" width="15" height="20" viewBox="0 0 15 20">
<path fill="#dc5606" d="M7.559 20c-0.232 0-0.465-0.116-0.581-0.349l-5.814-8.721c-0.814-1.046-1.163-2.325-1.163-3.605 0-4.070 3.372-7.325 7.559-7.325s7.559 3.256 7.559 7.325c0 1.279-0.349 2.675-1.046 3.721l-5.93 8.721c-0.116 0.116-0.349 0.233-0.581 0.233 0 0 0 0 0 0zM7.559 1.395c-3.373 0-6.046 2.559-6.046 5.814 0 1.046 0.349 2.093 0.814 3.024l5.232 7.791 5.233-7.791c0.581-0.93 0.814-1.86 0.814-3.024 0-3.14-2.675-5.814-6.046-5.814z"></path>
<path fill="#dc5606" d="M7.559 10.814c-1.976 0-3.605-1.627-3.605-3.489s1.627-3.489 3.605-3.489 3.605 1.627 3.605 3.489-1.627 3.489-3.605 3.489zM7.559 5.232c-1.162 0-2.209 0.93-2.209 2.092s0.93 2.092 2.209 2.092 2.209-0.93 2.209-2.092c0-1.162-1.046-2.092-2.209-2.092z"></path>
</svg>
