<?xml version="1.0" encoding="utf-8"?>
<!-- Generated by IcoMoon.io -->
<!DOCTYPE svg PUBLIC "-//W3C//DTD SVG 1.1//EN" "http://www.w3.org/Graphics/SVG/1.1/DTD/svg11.dtd">
<svg version="1.1" xmlns="http://www.w3.org/2000/svg" xmlns:xlink="http://www.w3.org/1999/xlink" width="23" height="23" viewBox="0 0 23 23">
<path fill="#003359" d="M11.5 23c-6.325 0-11.5-5.175-11.5-11.5s5.175-11.5 11.5-11.5c6.325 0 11.5 5.175 11.5 11.5s-5.175 11.5-11.5 11.5zM11.5 1.38c-5.635 0-10.12 4.6-10.12 10.12 0 5.635 4.6 10.12 10.12 10.12 5.635 0 10.12-4.6 10.12-10.12 0-5.635-4.485-10.12-10.12-10.12z"></path>
<path fill="#003359" d="M15.065 12.42c-0.23-0.46-0.46-0.805-0.805-1.035s-0.69-0.46-1.15-0.575c-0.345-0.115-0.69-0.23-1.035-0.345v-3.68c0.115 0 0.345 0 0.46 0.115 0.23 0.115 0.46 0.23 0.575 0.345s0.23 0.345 0.345 0.46c0.115 0.23 0.115 0.46 0.115 0.69l1.38-0.115c0-0.46-0.115-0.92-0.23-1.265s-0.46-0.69-0.69-0.92c-0.345-0.23-0.69-0.46-1.035-0.575-0.23-0.115-0.575-0.115-0.805-0.115v-0.69h-1.38v0.69c-0.345 0-0.575 0.115-0.805 0.115-0.46 0.23-0.805 0.345-1.035 0.69-0.345 0.23-0.575 0.575-0.805 0.92-0.115 0.46-0.23 0.805-0.23 1.265s0.115 0.92 0.23 1.38c0.23 0.345 0.46 0.69 0.69 0.92 0.345 0.23 0.69 0.46 1.15 0.575 0.23 0.115 0.46 0.23 0.805 0.23v4.14c-0.345-0.115-0.805-0.23-1.035-0.46-0.345-0.23-0.575-0.69-0.69-1.15 0-0.115 0-0.23 0-0.23v-0.345l-1.38 0.115v0.345c0 0.115 0 0.23 0 0.46 0.23 0.92 0.575 1.61 1.265 2.070 0.46 0.345 1.15 0.575 1.84 0.69v1.265h1.38v-1.265c0.345 0 0.575-0.115 0.92-0.23 0.46-0.115 0.805-0.345 1.15-0.575s0.575-0.575 0.805-0.92c0.23-0.345 0.345-0.805 0.345-1.38-0.115-0.69-0.115-1.15-0.345-1.61zM10.465 10.005c-0.345-0.115-0.46-0.23-0.69-0.345-0.115-0.115-0.23-0.345-0.345-0.46-0.115-0.23-0.115-0.46-0.115-0.805 0-0.23 0-0.46 0.115-0.69s0.23-0.345 0.46-0.575c0.115-0.115 0.345-0.23 0.575-0.345 0.115 0 0.23-0.115 0.345-0.115v3.335c-0.115 0.115-0.23 0-0.345 0zM13.8 14.605c-0.115 0.23-0.23 0.46-0.46 0.575s-0.46 0.23-0.69 0.345c-0.115 0-0.345 0.115-0.46 0.115v-3.795c0.23 0 0.46 0.115 0.575 0.115 0.23 0.115 0.46 0.23 0.69 0.345 0.115 0.115 0.23 0.345 0.345 0.575s0.115 0.575 0.115 0.92c0.115 0.345 0 0.575-0.115 0.805z"></path>
</svg>
