<?xml version="1.0" encoding="utf-8"?>
<!-- Generated by IcoMoon.io -->
<!DOCTYPE svg PUBLIC "-//W3C//DTD SVG 1.1//EN" "http://www.w3.org/Graphics/SVG/1.1/DTD/svg11.dtd">
<svg version="1.1" xmlns="http://www.w3.org/2000/svg" xmlns:xlink="http://www.w3.org/1999/xlink" width="23" height="20" viewBox="0 0 23 20">
<path fill="#dc5606" d="M0.816 20c-0.272 0-0.408-0.136-0.544-0.272s-0.272-0.272-0.272-0.544v-2.857c0-0.408 0.408-0.816 0.816-0.816 2.857 0 5.17-2.041 5.578-4.762h-5.578c-0.408 0-0.816-0.272-0.816-0.68v-9.252c0-0.408 0.408-0.816 0.816-0.816h9.252c0.408 0 0.816 0.408 0.816 0.816v9.252c-0.136 5.442-4.626 9.932-10.068 9.932 0 0 0 0 0 0zM1.633 17.143v1.224c4.218-0.408 7.619-3.946 7.619-8.435v-8.299h-7.619v7.619h5.578c0.408 0 0.68 0.272 0.816 0.68 0 0 0 0.136 0 0.136 0 3.673-2.857 6.667-6.395 7.075z"></path>
<path fill="#dc5606" d="M13.061 20c-0.272 0-0.408-0.136-0.544-0.272s-0.272-0.408-0.272-0.544v-2.857c0-0.408 0.408-0.816 0.816-0.816 2.857 0 5.17-2.041 5.578-4.762h-5.578c-0.408 0-0.816-0.408-0.816-0.816v-9.116c0.136-0.408 0.408-0.816 0.816-0.816h9.252c0.408 0 0.816 0.408 0.816 0.816v9.252c0 5.442-4.49 9.932-10.068 9.932 0 0 0 0 0 0zM13.878 17.143v1.224c4.218-0.408 7.619-3.946 7.619-8.435v-8.299h-7.619v7.619h5.578c0.408 0 0.68 0.272 0.816 0.68 0 0 0 0.136 0 0.136 0 3.673-2.721 6.667-6.395 7.075z"></path>
</svg>
