<?xml version="1.0" encoding="utf-8"?>
<!-- Generated by IcoMoon.io -->
<!DOCTYPE svg PUBLIC "-//W3C//DTD SVG 1.1//EN" "http://www.w3.org/Graphics/SVG/1.1/DTD/svg11.dtd">
<svg version="1.1" xmlns="http://www.w3.org/2000/svg" xmlns:xlink="http://www.w3.org/1999/xlink" width="35" height="46" viewBox="0 0 35 46">
<path fill="#ffffff" d="M17.385 46c-0.535 0-1.069-0.267-1.337-0.802l-13.372-20.059c-1.872-2.406-2.674-5.348-2.674-8.292 0-9.361 7.757-16.848 17.385-16.848s17.385 7.489 17.385 16.848c0 2.941-0.802 6.153-2.406 8.559l-13.639 20.059c-0.267 0.267-0.802 0.535-1.337 0.535 0 0 0 0 0 0zM17.385 3.209c-7.757 0-13.906 5.885-13.906 13.372 0 2.406 0.802 4.813 1.872 6.955l12.035 17.92 12.035-17.92c1.337-2.139 1.872-4.278 1.872-6.955 0-7.222-6.152-13.372-13.906-13.372z"></path>
<path fill="#ffffff" d="M17.385 24.872c-4.545 0-8.291-3.743-8.291-8.024s3.743-8.024 8.291-8.024 8.291 3.743 8.291 8.024-3.743 8.024-8.292 8.024zM17.385 12.035c-2.674 0-5.080 2.139-5.080 4.813s2.139 4.813 5.080 4.813 5.080-2.139 5.080-4.813c0-2.674-2.406-4.813-5.080-4.813z"></path>
</svg>
