<?xml version="1.0" encoding="utf-8"?>
<!-- Generated by IcoMoon.io -->
<!DOCTYPE svg PUBLIC "-//W3C//DTD SVG 1.1//EN" "http://www.w3.org/Graphics/SVG/1.1/DTD/svg11.dtd">
<svg version="1.1" xmlns="http://www.w3.org/2000/svg" xmlns:xlink="http://www.w3.org/1999/xlink" width="17" height="17" viewBox="0 0 17 17">
<path fill="#698bb1" d="M10.389 17h-3.778c-0.283 0-0.567-0.283-0.567-0.567v-5.478h-5.478c-0.283 0-0.567-0.283-0.567-0.567v-3.778c0-0.283 0.283-0.567 0.567-0.567h5.478v-5.478c0-0.283 0.283-0.567 0.567-0.567h3.778c0.283 0 0.567 0.283 0.567 0.567v5.478h5.478c0.283 0 0.567 0.283 0.567 0.567v3.778c0 0.283-0.283 0.567-0.567 0.567h-5.478v5.478c0 0.283-0.283 0.567-0.567 0.567zM7.178 15.867h2.644v-5.478c0-0.283 0.283-0.567 0.567-0.567h5.478v-2.644h-5.478c-0.283 0-0.567-0.283-0.567-0.567v-5.478h-2.644v5.478c0 0.283-0.283 0.567-0.567 0.567h-5.478v2.644h5.478c0.283 0 0.567 0.283 0.567 0.567v5.478z"></path>
</svg>
