<?xml version="1.0" encoding="utf-8"?>
<!-- Generated by IcoMoon.io -->
<!DOCTYPE svg PUBLIC "-//W3C//DTD SVG 1.1//EN" "http://www.w3.org/Graphics/SVG/1.1/DTD/svg11.dtd">
<svg version="1.1" xmlns="http://www.w3.org/2000/svg" xmlns:xlink="http://www.w3.org/1999/xlink" width="46" height="46" viewBox="0 0 46 46">
<path fill="#ffffff" d="M39.33 6.67c-4.37-4.37-10.12-6.67-16.33-6.67s-11.96 2.3-16.33 6.67c-8.97 8.97-8.97 23.69 0 32.66 4.37 4.37 10.12 6.67 16.33 6.67s11.96-2.3 16.33-6.67c4.37-4.37 6.67-10.12 6.67-16.33s-2.3-11.96-6.67-16.33zM37.26 37.26c-3.91 3.91-8.97 5.98-14.26 5.98-5.52 0-10.58-2.070-14.26-5.98-7.82-7.82-7.82-20.7 0-28.75 3.68-3.68 8.74-5.75 14.26-5.75s10.58 2.070 14.26 5.98c8.050 7.82 8.050 20.7 0 28.52z"></path>
<path fill="#ffffff" d="M32.89 21.62h-8.050v-8.050c0-0.69-0.69-1.38-1.38-1.38s-1.38 0.69-1.38 1.38v8.050h-7.82c-0.69 0-1.38 0.69-1.38 1.38s0.69 1.38 1.38 1.38h8.050v7.82c0 0.69 0.69 1.38 1.38 1.38s1.38-0.69 1.38-1.38v-8.050h8.050c0.69 0 1.38-0.69 1.38-1.38s-0.92-1.15-1.61-1.15z"></path>
</svg>
