<?xml version="1.0" encoding="utf-8"?>
<!-- Generated by IcoMoon.io -->
<!DOCTYPE svg PUBLIC "-//W3C//DTD SVG 1.1//EN" "http://www.w3.org/Graphics/SVG/1.1/DTD/svg11.dtd">
<svg version="1.1" xmlns="http://www.w3.org/2000/svg" xmlns:xlink="http://www.w3.org/1999/xlink" width="54" height="46" viewBox="0 0 54 46">
<path fill="#ffffff" d="M52.362 17.372h-15.415v-15.904c0-0.734-0.734-1.468-1.468-1.468h-17.128c-0.734 0-1.468 0.734-1.468 1.468v9.787h-15.415c-0.734 0-1.468 0.734-1.468 1.468v31.809c0 0.734 0.734 1.468 1.468 1.468h50.649c0.734 0 1.468-0.734 1.468-1.468v-25.691c0.245-0.734-0.489-1.468-1.223-1.468zM2.936 14.191h14.191v29.117h-14.191v-29.117zM19.819 12.723v-9.787h14.191v40.372h-14.191v-30.585zM50.894 43.309h-14.191v-23h14.191v23z"></path>
<path fill="#ffffff" d="M25.447 7.585h2.936v8.319h-2.936v-8.319z"></path>
<path fill="#ffffff" d="M8.564 18.84h2.936v8.319h-2.936v-8.319z"></path>
<path fill="#ffffff" d="M42.33 25.202h2.936v8.319h-2.936v-8.319z"></path>
</svg>
