<?xml version="1.0" encoding="utf-8"?>
<!-- Generated by IcoMoon.io -->
<!DOCTYPE svg PUBLIC "-//W3C//DTD SVG 1.1//EN" "http://www.w3.org/Graphics/SVG/1.1/DTD/svg11.dtd">
<svg version="1.1" xmlns="http://www.w3.org/2000/svg" xmlns:xlink="http://www.w3.org/1999/xlink" width="24" height="22" viewBox="0 0 24 22">
<path fill="#ffffff" d="M22.438 1.204l-0.438-1.204-9.96 3.721-9.96-3.721-0.438 1.204 10.398 3.94z"></path>
<path fill="#ffffff" d="M23.861 1.97c-0.219-0.109-0.438-0.109-0.547-0.109l-11.274 4.050-11.164-4.050c-0.219-0.109-0.438 0-0.547 0.109-0.219 0.109-0.328 0.328-0.328 0.547v14.667c0 0.219 0.219 0.547 0.438 0.657l11.383 4.159c0 0 0 0 0 0s0.109 0 0.109 0c0 0 0 0 0.109 0 0 0 0 0 0 0s0 0 0 0 0 0 0.109 0c0 0 0.109 0 0.109 0s0 0 0 0l11.383-4.159c0.219-0.109 0.438-0.328 0.438-0.657v-14.667c0-0.219-0.109-0.438-0.219-0.547zM11.383 20.358l-10.070-3.721v-13.244l10.070 3.612v13.353zM22.766 16.746l-10.070 3.721v-13.463l10.070-3.612v13.353z"></path>
</svg>
