<?xml version="1.0" encoding="utf-8"?>
<!-- Generated by IcoMoon.io -->
<!DOCTYPE svg PUBLIC "-//W3C//DTD SVG 1.1//EN" "http://www.w3.org/Graphics/SVG/1.1/DTD/svg11.dtd">
<svg version="1.1" xmlns="http://www.w3.org/2000/svg" xmlns:xlink="http://www.w3.org/1999/xlink" width="19" height="17" viewBox="0 0 19 17">
<path fill="#7090b7" d="M17.338 0.93l-0.338-0.93-7.697 2.876-7.697-2.876-0.338 0.93 8.035 3.045z"></path>
<path fill="#7090b7" d="M18.438 1.522c-0.169-0.085-0.338-0.085-0.423-0.085l-8.711 3.129-8.627-3.129c-0.169-0.085-0.338 0-0.423 0.085-0.169 0.085-0.254 0.254-0.254 0.423v11.333c0 0.169 0.169 0.423 0.338 0.507l8.796 3.214c0 0 0 0 0 0s0.085 0 0.085 0c0 0 0 0 0.085 0 0 0 0 0 0 0s0 0 0 0 0 0 0.085 0c0 0 0.085 0 0.085 0s0 0 0 0l8.796-3.214c0.169-0.085 0.338-0.254 0.338-0.507v-11.333c0-0.169-0.085-0.338-0.169-0.423zM8.796 15.731l-7.781-2.876v-10.234l7.781 2.791v10.318zM17.592 12.94l-7.781 2.876v-10.403l7.781-2.791v10.318z"></path>
</svg>
