<?xml version="1.0" encoding="utf-8"?>
<!-- Generated by IcoMoon.io -->
<!DOCTYPE svg PUBLIC "-//W3C//DTD SVG 1.1//EN" "http://www.w3.org/Graphics/SVG/1.1/DTD/svg11.dtd">
<svg version="1.1" xmlns="http://www.w3.org/2000/svg" xmlns:xlink="http://www.w3.org/1999/xlink" width="20" height="17" viewBox="0 0 20 17">
<path fill="#dc5606" d="M19.351 6.421h-5.697v-5.877c0-0.271-0.271-0.542-0.542-0.542h-6.329c-0.271 0-0.542 0.271-0.542 0.542v3.617h-5.697c-0.271 0-0.542 0.271-0.542 0.542v11.756c0 0.271 0.271 0.542 0.542 0.542h18.718c0.271 0 0.542-0.271 0.542-0.542v-9.494c0.090-0.271-0.181-0.542-0.452-0.542zM1.085 5.245h5.245v10.761h-5.245v-10.761zM7.325 4.702v-3.617h5.244v14.921h-5.245v-11.303zM18.808 16.006h-5.245v-8.5h5.245v8.5z"></path>
<path fill="#dc5606" d="M9.404 2.803h1.085v3.075h-1.085v-3.075z"></path>
<path fill="#dc5606" d="M3.165 6.963h1.085v3.075h-1.085v-3.075z"></path>
<path fill="#dc5606" d="M15.644 9.314h1.085v3.075h-1.085v-3.075z"></path>
</svg>
