<?xml version="1.0" encoding="utf-8"?>
<!-- Generated by IcoMoon.io -->
<!DOCTYPE svg PUBLIC "-//W3C//DTD SVG 1.1//EN" "http://www.w3.org/Graphics/SVG/1.1/DTD/svg11.dtd">
<svg version="1.1" xmlns="http://www.w3.org/2000/svg" xmlns:xlink="http://www.w3.org/1999/xlink" width="17" height="17" viewBox="0 0 17 17">
<path fill="#dc5606" d="M8.59 9.947c-2.713 0-4.973-2.261-4.973-4.973s2.261-4.973 4.973-4.973c2.713 0 4.973 2.261 4.973 4.973s-2.261 4.973-4.973 4.973zM8.59 1.085c-2.17 0-3.888 1.718-3.888 3.888s1.718 3.888 3.888 3.888 3.888-1.718 3.888-3.888c0-2.17-1.718-3.888-3.888-3.888z"></path>
<path fill="#dc5606" d="M16.638 17h-16.096c-0.271 0-0.543-0.271-0.543-0.543v-3.617c0-0.090 0-0.181 0-0.181s0 0 0-0.090c0-1.266 0.995-2.261 2.261-2.261h12.66c1.266 0 2.261 0.995 2.261 2.261 0 0.090 0 0.181 0 0.181s0 0 0 0.090v3.707c0 0.181-0.271 0.452-0.543 0.452zM1.085 15.915h15.101v-3.074c0 0 0-0.181 0-0.181s0-0.090 0-0.090c0-0.633-0.543-1.176-1.176-1.176h-12.66c-0.633 0-1.176 0.543-1.176 1.176v0.090c0 0 0 0.181 0 0.181l-0.090 3.074z"></path>
</svg>
