<?xml version="1.0" encoding="utf-8"?>
<!-- Generated by IcoMoon.io -->
<!DOCTYPE svg PUBLIC "-//W3C//DTD SVG 1.1//EN" "http://www.w3.org/Graphics/SVG/1.1/DTD/svg11.dtd">
<svg version="1.1" xmlns="http://www.w3.org/2000/svg" xmlns:xlink="http://www.w3.org/1999/xlink" width="60" height="46" viewBox="0 0 60 46">
<path fill="#ffffff" d="M49.247 46c-0.541 0-0.812-0.271-1.082-0.541l-4.059-4.059h-20.024c-0.812 0-1.624-0.812-1.624-1.624v-5.953h3.247v4.329h18.941c0.541 0 0.812 0.271 1.082 0.541l1.894 1.894v-0.812c0-0.812 0.812-1.624 1.624-1.624h7.035v-20.024h-9.2v-3.247h10.824c0.812 0 1.624 0.812 1.624 1.624v23.271c0 0.812-0.812 1.624-1.624 1.624h-7.035v2.976c0 0.541-0.271 1.353-1.082 1.353-0.271 0.271-0.271 0.271-0.541 0.271z"></path>
<path fill="#ffffff" d="M8.118 37.071c-0.271 0-0.541 0-0.541 0-0.541-0.271-1.082-0.812-1.082-1.353v-4.059h-4.871c-0.812-0.271-1.624-0.812-1.624-1.894v-28.141c0-0.812 0.812-1.624 1.624-1.624h41.129c0.812 0 1.624 0.812 1.624 1.624v28.141c0 0.812-0.812 1.624-1.624 1.624h-28.412l-5.141 5.141c-0.271 0.271-0.812 0.541-1.082 0.541zM3.247 28.412h4.871c0.812 0 1.624 0.812 1.624 1.624v1.624l2.706-2.706c0.271-0.271 0.812-0.541 1.082-0.541h27.6v-25.165h-37.882v25.165z"></path>
</svg>
