<?xml version="1.0" encoding="utf-8"?>
<!-- Generator: Adobe Illustrator 19.1.0, SVG Export Plug-In . SVG Version: 6.00 Build 0)  -->
<svg version="1.1" id="Layer_1" xmlns="http://www.w3.org/2000/svg" xmlns:xlink="http://www.w3.org/1999/xlink" x="0px" y="0px"
	 viewBox="0 0 36 36" style="enable-background:new 0 0 36 36;" xml:space="preserve">
<style type="text/css">
	.st0{fill:#EE2355;}
	.st1{fill:#FFFFFF;}
</style>
<g>
	<g>
		<circle class="st0" cx="17.9" cy="17.3" r="15.4"/>
		<path class="st1" d="M17.9,33.2C9.1,33.2,1.9,26,1.9,17.3c0-8.8,7.1-15.9,15.9-15.9s15.9,7.1,15.9,15.9
			C33.8,26,26.7,33.2,17.9,33.2z M17.9,2.5C9.7,2.5,3.1,9.1,3.1,17.3c0,8.2,6.6,14.8,14.8,14.8c8.2,0,14.8-6.6,14.8-14.8
			C32.7,9.1,26,2.5,17.9,2.5z"/>
	</g>
	<g>
		<g>
			<path class="st1" d="M23.3,21.3c0,1.1-0.9,2-2,2c-1.1,0-2-0.9-2-2c0-0.1,0-0.2,0-0.3l-3.6-2.1c-0.3,0.2-0.8,0.4-1.2,0.4
				c-1.1,0-2-0.9-2-2c0-1.1,0.9-2,2-2c0.5,0,0.9,0.2,1.2,0.4l3.6-2.2c0-0.1,0-0.2,0-0.3c0-1.1,0.9-2,2-2c1.1,0,2,0.9,2,2
				c0,1.1-0.9,2-2,2c-0.5,0-0.9-0.2-1.3-0.4l-3.6,2.1c0,0.1,0.1,0.2,0.1,0.3s0,0.2-0.1,0.3l3.6,2.2c0.4-0.3,0.8-0.4,1.3-0.4
				C22.4,19.3,23.3,20.2,23.3,21.3z"/>
		</g>
	</g>
</g>
</svg>
