<?xml version="1.0" encoding="utf-8"?>
<!-- Generator: Adobe Illustrator 19.1.0, SVG Export Plug-In . SVG Version: 6.00 Build 0)  -->
<svg version="1.1" id="Layer_1" xmlns="http://www.w3.org/2000/svg" xmlns:xlink="http://www.w3.org/1999/xlink" x="0px" y="0px"
	 viewBox="0 0 36 36" style="enable-background:new 0 0 36 36;" xml:space="preserve">
<style type="text/css">
	.st0{fill:#EE2355;}
	.st1{fill:#FFFFFF;}
</style>
<g>
	<g>
		<circle class="st0" cx="18" cy="17.3" r="15.4"/>
		<path class="st1" d="M18,33.2C9.2,33.2,2.1,26,2.1,17.3S9.2,1.3,18,1.3s15.9,7.1,15.9,15.9S26.8,33.2,18,33.2z M18,2.5
			C9.8,2.5,3.2,9.1,3.2,17.3S9.8,32.1,18,32.1c8.2,0,14.8-6.6,14.8-14.8S26.2,2.5,18,2.5z"/>
	</g>
	<g>
		<g>
			<path class="st1" d="M22.9,17.5L18,22l-4.9-4.5c-1.3-1.2-1.3-3.1,0-4.2c1.1-1,3-1,4.1,0L18,14l0.8-0.7c1.1-1,3-1,4.1,0
				C24.2,14.5,24.2,16.4,22.9,17.5z"/>
		</g>
	</g>
</g>
</svg>
