<?xml version="1.0" encoding="utf-8"?>
<!-- Generator: Adobe Illustrator 19.1.0, SVG Export Plug-In . SVG Version: 6.00 Build 0)  -->
<svg version="1.1" id="Layer_1" xmlns="http://www.w3.org/2000/svg" xmlns:xlink="http://www.w3.org/1999/xlink" x="0px" y="0px"
	 viewBox="0 0 36 36" style="enable-background:new 0 0 36 36;" xml:space="preserve">
<style type="text/css">
	.st0{fill:#EE2355;}
	.st1{fill:#FFFFFF;}
</style>
<g>
	<g>
		<circle class="st0" cx="17.9" cy="17.3" r="15.4"/>
		<path class="st1" d="M17.9,33.2C9.1,33.2,1.9,26,1.9,17.3S9.1,1.3,17.9,1.3s15.9,7.1,15.9,15.9S26.7,33.2,17.9,33.2z M17.9,2.5
			C9.7,2.5,3.1,9.1,3.1,17.3s6.6,14.8,14.8,14.8c8.2,0,14.8-6.6,14.8-14.8S26,2.5,17.9,2.5z"/>
	</g>
	<g>
		<g>
			<path class="st1" d="M23.9,20.7c0,0.1-0.1,0.2-0.2,0.2H22v1.2c0,0.4-0.3,0.7-0.7,0.7h-6.9c-0.4,0-0.7-0.3-0.7-0.7v-1.2h-1.6
				c-0.1,0-0.2-0.1-0.2-0.2v-3c0-0.8,0.6-1.4,1.4-1.4h0.5v-3.9c0-0.4,0.3-0.7,0.7-0.7h4.8c0.4,0,0.9,0.2,1.2,0.5l1.1,1.1
				c0.3,0.3,0.5,0.8,0.5,1.2v1.8h0.5c0.8,0,1.4,0.6,1.4,1.4V20.7z M21.1,17.3v-2.8H20c-0.4,0-0.7-0.3-0.7-0.7v-1.2h-4.6v4.6H21.1z
				 M21.1,21.9V20h-6.4v1.8H21.1z M22.5,17.3c-0.3,0-0.5,0.2-0.5,0.5c0,0.3,0.2,0.5,0.5,0.5c0.3,0,0.5-0.2,0.5-0.5
				C22.9,17.5,22.7,17.3,22.5,17.3z"/>
		</g>
	</g>
</g>
</svg>
