<?xml version="1.0" encoding="utf-8"?>
<!-- Generated by IcoMoon.io -->
<!DOCTYPE svg PUBLIC "-//W3C//DTD SVG 1.1//EN" "http://www.w3.org/Graphics/SVG/1.1/DTD/svg11.dtd">
<svg version="1.1" xmlns="http://www.w3.org/2000/svg" xmlns:xlink="http://www.w3.org/1999/xlink" width="12" height="16" viewBox="0 0 12 16">
<path fill="#dc5606" d="M6.047 16c-0.186 0-0.372-0.093-0.465-0.279l-4.651-6.977c-0.651-0.837-0.93-1.86-0.93-2.884 0-3.256 2.698-5.86 6.047-5.86s6.047 2.605 6.047 5.86c0 1.023-0.279 2.14-0.837 2.977l-4.744 6.977c-0.093 0.093-0.279 0.186-0.465 0.186 0 0 0 0 0 0zM6.047 1.116c-2.698 0-4.837 2.047-4.837 4.651 0 0.837 0.279 1.674 0.651 2.419l4.186 6.233 4.186-6.233c0.465-0.744 0.651-1.488 0.651-2.419 0-2.512-2.14-4.651-4.837-4.651z"></path>
<path fill="#dc5606" d="M6.047 8.651c-1.581 0-2.884-1.302-2.884-2.791s1.302-2.791 2.884-2.791 2.884 1.302 2.884 2.791-1.302 2.791-2.884 2.791zM6.047 4.186c-0.93 0-1.767 0.744-1.767 1.674s0.744 1.674 1.767 1.674 1.767-0.744 1.767-1.674c0-0.93-0.837-1.674-1.767-1.674z"></path>
</svg>
