<?xml version="1.0" encoding="utf-8"?>
<!-- Generated by IcoMoon.io -->
<!DOCTYPE svg PUBLIC "-//W3C//DTD SVG 1.1//EN" "http://www.w3.org/Graphics/SVG/1.1/DTD/svg11.dtd">
<svg version="1.1" xmlns="http://www.w3.org/2000/svg" xmlns:xlink="http://www.w3.org/1999/xlink" width="17" height="17" viewBox="0 0 17 17">
<path d="M13.458 2.833q0.304 0 0.506 0.202t0.202 0.506q0 0.299-0.205 0.504l-4.46 4.455 4.46 4.455q0.205 0.205 0.205 0.504 0 0.304-0.202 0.506t-0.506 0.202q-0.299 0-0.504-0.205l-4.455-4.46-4.455 4.46q-0.205 0.205-0.504 0.205-0.304 0-0.506-0.202t-0.202-0.506q0-0.299 0.205-0.504l4.46-4.455-4.46-4.455q-0.205-0.205-0.205-0.504 0-0.304 0.202-0.506t0.506-0.202q0.299 0 0.504 0.205l4.455 4.46 4.455-4.46q0.205-0.205 0.504-0.205z" fill="#ffffff"></path>
</svg>
