<?xml version="1.0" encoding="utf-8"?>
<!-- Generated by IcoMoon.io -->
<!DOCTYPE svg PUBLIC "-//W3C//DTD SVG 1.1//EN" "http://www.w3.org/Graphics/SVG/1.1/DTD/svg11.dtd">
<svg version="1.1" xmlns="http://www.w3.org/2000/svg" xmlns:xlink="http://www.w3.org/1999/xlink" width="26" height="22" viewBox="0 0 26 22">
<path fill="#ffffff" d="M25.043 8.309h-7.372v-7.606c0-0.351-0.351-0.702-0.702-0.702h-8.191c-0.351 0-0.702 0.351-0.702 0.702v4.681h-7.372c-0.351 0-0.702 0.351-0.702 0.702v15.213c0 0.351 0.351 0.702 0.702 0.702h24.223c0.351 0 0.702-0.351 0.702-0.702v-12.287c0.117-0.351-0.234-0.702-0.585-0.702zM1.404 6.787h6.787v13.926h-6.787v-13.926zM9.479 6.085v-4.681h6.787v19.309h-6.787v-14.628zM24.34 20.713h-6.787v-11h6.787v11z"></path>
<path fill="#ffffff" d="M12.17 3.628h1.404v3.979h-1.404v-3.979z"></path>
<path fill="#ffffff" d="M4.096 9.011h1.404v3.979h-1.404v-3.979z"></path>
<path fill="#ffffff" d="M20.245 12.053h1.404v3.979h-1.404v-3.979z"></path>
</svg>
