<?xml version="1.0" encoding="utf-8"?>
<!-- Generated by IcoMoon.io -->
<!DOCTYPE svg PUBLIC "-//W3C//DTD SVG 1.1//EN" "http://www.w3.org/Graphics/SVG/1.1/DTD/svg11.dtd">
<svg version="1.1" xmlns="http://www.w3.org/2000/svg" xmlns:xlink="http://www.w3.org/1999/xlink" width="20" height="20" viewBox="0 0 20 20">
<path fill="#7090b7" d="M10 20c-5.5 0-10-4.5-10-10s4.5-10 10-10c5.5 0 10 4.5 10 10s-4.5 10-10 10zM10 1.2c-4.9 0-8.8 4-8.8 8.8 0 4.9 4 8.8 8.8 8.8 4.9 0 8.8-4 8.8-8.8 0-4.9-3.9-8.8-8.8-8.8z"></path>
<path fill="#7090b7" d="M13.1 10.8c-0.2-0.4-0.4-0.7-0.7-0.9s-0.6-0.4-1-0.5c-0.3-0.1-0.6-0.2-0.9-0.3v-3.2c0.1 0 0.3 0 0.4 0.1 0.2 0.1 0.4 0.2 0.5 0.3s0.2 0.3 0.3 0.4c0.1 0.2 0.1 0.4 0.1 0.6l1.2-0.1c0-0.4-0.1-0.8-0.2-1.1s-0.4-0.6-0.6-0.8c-0.3-0.2-0.6-0.4-0.9-0.5-0.2-0.1-0.5-0.1-0.7-0.1v-0.6h-1.2v0.6c-0.3 0-0.5 0.1-0.7 0.1-0.4 0.2-0.7 0.3-0.9 0.6-0.3 0.2-0.5 0.5-0.7 0.8-0.1 0.4-0.2 0.7-0.2 1.1s0.1 0.8 0.2 1.2c0.2 0.3 0.4 0.6 0.6 0.8 0.3 0.2 0.6 0.4 1 0.5 0.2 0.1 0.4 0.2 0.7 0.2v3.6c-0.3-0.1-0.7-0.2-0.9-0.4-0.3-0.2-0.5-0.6-0.6-1 0-0.1 0-0.2 0-0.2v-0.3l-1.2 0.1v0.3c0 0.1 0 0.2 0 0.4 0.2 0.8 0.5 1.4 1.1 1.8 0.4 0.3 1 0.5 1.6 0.6v1.1h1.2v-1.1c0.3 0 0.5-0.1 0.8-0.2 0.4-0.1 0.7-0.3 1-0.5s0.5-0.5 0.7-0.8c0.2-0.3 0.3-0.7 0.3-1.2-0.1-0.6-0.1-1-0.3-1.4zM9.1 8.7c-0.3-0.1-0.4-0.2-0.6-0.3-0.1-0.1-0.2-0.3-0.3-0.4-0.1-0.2-0.1-0.4-0.1-0.7 0-0.2 0-0.4 0.1-0.6s0.2-0.3 0.4-0.5c0.1-0.1 0.3-0.2 0.5-0.3 0.1 0 0.2-0.1 0.3-0.1v2.9c-0.1 0.1-0.2 0-0.3 0zM12 12.7c-0.1 0.2-0.2 0.4-0.4 0.5s-0.4 0.2-0.6 0.3c-0.1 0-0.3 0.1-0.4 0.1v-3.3c0.2 0 0.4 0.1 0.5 0.1 0.2 0.1 0.4 0.2 0.6 0.3 0.1 0.1 0.2 0.3 0.3 0.5s0.1 0.5 0.1 0.8c0.1 0.3 0 0.5-0.1 0.7z"></path>
</svg>
