<?xml version="1.0" encoding="utf-8"?>
<!-- Generated by IcoMoon.io -->
<!DOCTYPE svg PUBLIC "-//W3C//DTD SVG 1.1//EN" "http://www.w3.org/Graphics/SVG/1.1/DTD/svg11.dtd">
<svg version="1.1" xmlns="http://www.w3.org/2000/svg" xmlns:xlink="http://www.w3.org/1999/xlink" width="22" height="22" viewBox="0 0 22 22">
<path fill="#ffffff" d="M7.343 12.517l-1.519 3.898 3.831-1.586-2.312-2.312zM18.463 4.192l-0.486-0.486c-0.536-0.537-1.407-0.537-1.944 0l-0.972 0.972 2.43 2.431 0.972-0.972c0.538-0.537 0.538-1.408 0-1.945zM7.42 12.319l0.348-0.348 2.43 2.43 6.806-6.806-2.43-2.43 0.486-0.487-7.64 7.641zM15.815 17.878l-11.705 0.004 0.002-11.705 8.196-0.003 1.284-1.361h-10.178c-0.379 0-0.688 0.307-0.688 0.688v13.063c0 0.38 0.308 0.688 0.688 0.688h13.063c0.38 0 0.688-0.307 0.688-0.688v-9.665l-1.385 1.359 0.037 7.621z"></path>
</svg>
