<?xml version="1.0" encoding="utf-8"?>
<!-- Generated by IcoMoon.io -->
<!DOCTYPE svg PUBLIC "-//W3C//DTD SVG 1.1//EN" "http://www.w3.org/Graphics/SVG/1.1/DTD/svg11.dtd">
<svg version="1.1" xmlns="http://www.w3.org/2000/svg" xmlns:xlink="http://www.w3.org/1999/xlink" width="53" height="46" viewBox="0 0 53 46">
<path fill="#ffffff" d="M1.878 46c-0.626 0-0.939-0.313-1.252-0.626s-0.626-0.626-0.626-1.252v-6.571c0-0.939 0.939-1.878 1.878-1.878 6.571 0 11.891-4.694 12.83-10.952h-12.83c-0.939 0-1.878-0.626-1.878-1.565v-21.279c0-0.939 0.939-1.878 1.878-1.878h21.279c0.939 0 1.878 0.939 1.878 1.878v21.279c-0.313 12.517-10.639 22.844-23.156 22.844 0 0 0 0 0 0zM3.755 39.429v2.816c9.701-0.939 17.524-9.075 17.524-19.401v-19.088h-17.524v17.524h12.83c0.939 0 1.565 0.626 1.878 1.565 0 0 0 0.313 0 0.313 0 8.449-6.571 15.333-14.707 16.272z"></path>
<path fill="#ffffff" d="M30.041 46c-0.626 0-0.939-0.313-1.252-0.626s-0.626-0.939-0.626-1.252v-6.571c0-0.939 0.939-1.878 1.878-1.878 6.571 0 11.891-4.694 12.83-10.952h-12.83c-0.939 0-1.878-0.939-1.878-1.878v-20.966c0.313-0.939 0.939-1.878 1.878-1.878h21.279c0.939 0 1.878 0.939 1.878 1.878v21.279c0 12.517-10.327 22.844-23.156 22.844 0 0 0 0 0 0zM31.918 39.429v2.816c9.701-0.939 17.524-9.075 17.524-19.401v-19.088h-17.524v17.524h12.83c0.939 0 1.565 0.626 1.878 1.565 0 0 0 0.313 0 0.313 0 8.449-6.259 15.333-14.707 16.272z"></path>
</svg>
