<?xml version="1.0" encoding="utf-8"?>
<!-- Generated by IcoMoon.io -->
<!DOCTYPE svg PUBLIC "-//W3C//DTD SVG 1.1//EN" "http://www.w3.org/Graphics/SVG/1.1/DTD/svg11.dtd">
<svg version="1.1" xmlns="http://www.w3.org/2000/svg" xmlns:xlink="http://www.w3.org/1999/xlink" width="15" height="17" viewBox="0 0 15 17">
<path fill="#698bb1" d="M14.167 0.378c-0.283-0.094-0.756-0.094-0.944 0.189-0.661 0.661-1.511 0.944-2.456 0.944-1.039 0-2.078-0.472-2.739-1.228-0.378-0.378-1.039-0.378-1.417 0-0.567 0.85-1.606 1.322-2.644 1.322-0.944 0-1.794-0.378-2.456-0.944-0.283-0.283-0.661-0.283-0.944-0.189-0.378 0.094-0.567 0.378-0.567 0.756v9.822c0 0 0 0.094 0 0.189s0.85 4.061 7.178 5.761c0.094 0 0.189 0 0.189 0 0.094 0 0.189 0 0.283 0 6.328-1.7 7.083-5.572 7.178-5.761 0 0 0-0.094 0-0.189v-9.822c-0.094-0.378-0.283-0.661-0.661-0.85zM7.367 15.867c-5.572-1.511-6.233-4.722-6.233-4.817v-9.35c0.85 0.661 1.794 0.944 2.833 0.944 1.322 0 2.55-0.567 3.4-1.511 0.85 0.944 2.078 1.511 3.4 1.511 1.039 0 2.078-0.378 2.833-0.944v9.35c0 0.094-0.661 3.306-6.233 4.817z"></path>
</svg>
