<?xml version="1.0" encoding="utf-8"?>
<!-- Generated by IcoMoon.io -->
<!DOCTYPE svg PUBLIC "-//W3C//DTD SVG 1.1//EN" "http://www.w3.org/Graphics/SVG/1.1/DTD/svg11.dtd">
<svg version="1.1" xmlns="http://www.w3.org/2000/svg" xmlns:xlink="http://www.w3.org/1999/xlink" width="185" height="254" viewBox="0 0 185 254">
<path fill="#f7f7f7" d="M70.912 221.188h45.512v12.7h-45.512v-12.7z"></path>
<path fill="#f7f7f7" d="M70.912 241.3h45.512v12.7h-45.512v-12.7z"></path>
<path fill="#f7f7f7" d="M127 214.838h-66.675l-6.35-38.1c-32.812-15.875-53.975-47.625-53.975-83.612 0-51.862 42.337-93.137 94.188-93.137s94.188 41.275 94.188 93.137c0 35.987-21.163 68.788-53.975 83.612l-7.412 38.1zM70.912 202.138h45.512l6.35-34.925 3.175-1.062c29.637-12.7 49.738-41.275 49.738-74.087 0-44.45-37.038-80.437-81.488-80.437s-81.488 35.987-81.488 80.437c0 31.75 19.050 61.387 49.738 74.087l3.175 1.062 5.288 34.925zM94.188 147.112l-15.875-30.688-34.925-5.288 25.4-24.338-6.35-33.863 31.75 15.875 31.75-15.875-6.35 33.863 25.4 24.338-34.925 5.288-15.875 30.688zM70.912 102.662l15.875 2.113 7.412 14.813 7.412-14.813 15.875-2.113-11.638-11.638 3.175-15.875-14.813 7.412-14.813-7.412 3.175 15.875-11.638 11.638z"></path>
</svg>
