<?xml version="1.0" encoding="utf-8"?>
<!-- Generated by IcoMoon.io -->
<!DOCTYPE svg PUBLIC "-//W3C//DTD SVG 1.1//EN" "http://www.w3.org/Graphics/SVG/1.1/DTD/svg11.dtd">
<svg version="1.1" xmlns="http://www.w3.org/2000/svg" xmlns:xlink="http://www.w3.org/1999/xlink" width="22" height="22" viewBox="0 0 22 22">
<path fill="#ffffff" d="M18.81 3.19c-2.090-2.090-4.84-3.19-7.81-3.19s-5.72 1.1-7.81 3.19c-4.29 4.29-4.29 11.33 0 15.62 2.090 2.090 4.84 3.19 7.81 3.19s5.72-1.1 7.81-3.19c2.090-2.090 3.19-4.84 3.19-7.81s-1.1-5.72-3.19-7.81zM17.82 17.82c-1.87 1.87-4.29 2.86-6.82 2.86-2.64 0-5.060-0.99-6.82-2.86-3.74-3.74-3.74-9.9 0-13.75 1.76-1.76 4.18-2.75 6.82-2.75s5.060 0.99 6.82 2.86c3.85 3.74 3.85 9.9 0 13.64z"></path>
<path fill="#ffffff" d="M15.73 10.34h-3.85v-3.85c0-0.33-0.33-0.66-0.66-0.66s-0.66 0.33-0.66 0.66v3.85h-3.74c-0.33 0-0.66 0.33-0.66 0.66s0.33 0.66 0.66 0.66h3.85v3.74c0 0.33 0.33 0.66 0.66 0.66s0.66-0.33 0.66-0.66v-3.85h3.85c0.33 0 0.66-0.33 0.66-0.66s-0.44-0.55-0.77-0.55z"></path>
</svg>
