<?xml version="1.0" encoding="utf-8"?>
<!-- Generated by IcoMoon.io -->
<!DOCTYPE svg PUBLIC "-//W3C//DTD SVG 1.1//EN" "http://www.w3.org/Graphics/SVG/1.1/DTD/svg11.dtd">
<svg version="1.1" xmlns="http://www.w3.org/2000/svg" xmlns:xlink="http://www.w3.org/1999/xlink" width="46" height="46" viewBox="0 0 46 46">
<path fill="#ffffff" d="M23 46c-12.65 0-23-10.35-23-23s10.35-23 23-23c12.65 0 23 10.35 23 23s-10.35 23-23 23zM23 2.76c-11.27 0-20.24 9.2-20.24 20.24 0 11.27 9.2 20.24 20.24 20.24 11.27 0 20.24-9.2 20.24-20.24 0-11.27-8.97-20.24-20.24-20.24z"></path>
<path fill="#ffffff" d="M30.13 24.84c-0.46-0.92-0.92-1.61-1.61-2.070s-1.38-0.92-2.3-1.15c-0.69-0.23-1.38-0.46-2.070-0.69v-7.36c0.23 0 0.69 0 0.92 0.23 0.46 0.23 0.92 0.46 1.15 0.69s0.46 0.69 0.69 0.92c0.23 0.46 0.23 0.92 0.23 1.38l2.76-0.23c0-0.92-0.23-1.84-0.46-2.53s-0.92-1.38-1.38-1.84c-0.69-0.46-1.38-0.92-2.070-1.15-0.46-0.23-1.15-0.23-1.61-0.23v-1.38h-2.76v1.38c-0.69 0-1.15 0.23-1.61 0.23-0.92 0.46-1.61 0.69-2.070 1.38-0.69 0.46-1.15 1.15-1.61 1.84-0.23 0.92-0.46 1.61-0.46 2.53s0.23 1.84 0.46 2.76c0.46 0.69 0.92 1.38 1.38 1.84 0.69 0.46 1.38 0.92 2.3 1.15 0.46 0.23 0.92 0.46 1.61 0.46v8.28c-0.69-0.23-1.61-0.46-2.070-0.92-0.69-0.46-1.15-1.38-1.38-2.3 0-0.23 0-0.46 0-0.46v-0.69l-2.76 0.23v0.69c0 0.23 0 0.46 0 0.92 0.46 1.84 1.15 3.22 2.53 4.14 0.92 0.69 2.3 1.15 3.68 1.38v2.53h2.76v-2.53c0.69 0 1.15-0.23 1.84-0.46 0.92-0.23 1.61-0.69 2.3-1.15s1.15-1.15 1.61-1.84c0.46-0.69 0.69-1.61 0.69-2.76-0.23-1.38-0.23-2.3-0.69-3.22zM20.93 20.010c-0.69-0.23-0.92-0.46-1.38-0.69-0.23-0.23-0.46-0.69-0.69-0.92-0.23-0.46-0.23-0.92-0.23-1.61 0-0.46 0-0.92 0.23-1.38s0.46-0.69 0.92-1.15c0.23-0.23 0.69-0.46 1.15-0.69 0.23 0 0.46-0.23 0.69-0.23v6.67c-0.23 0.23-0.46 0-0.69 0zM27.6 29.21c-0.23 0.46-0.46 0.92-0.92 1.15s-0.92 0.46-1.38 0.69c-0.23 0-0.69 0.23-0.92 0.23v-7.59c0.46 0 0.92 0.23 1.15 0.23 0.46 0.23 0.92 0.46 1.38 0.69 0.23 0.23 0.46 0.69 0.69 1.15s0.23 1.15 0.23 1.84c0.23 0.69 0 1.15-0.23 1.61z"></path>
</svg>
