<?xml version="1.0" encoding="utf-8"?>
<!-- Generated by IcoMoon.io -->
<!DOCTYPE svg PUBLIC "-//W3C//DTD SVG 1.1//EN" "http://www.w3.org/Graphics/SVG/1.1/DTD/svg11.dtd">
<svg version="1.1" xmlns="http://www.w3.org/2000/svg" xmlns:xlink="http://www.w3.org/1999/xlink" width="15" height="20" viewBox="0 0 15 20">
<path fill="#698bb1" d="M5.583 17.417h3.583v1h-3.583v-1z"></path>
<path fill="#698bb1" d="M5.583 19h3.583v1h-3.583v-1z"></path>
<path fill="#698bb1" d="M10 16.917h-5.25l-0.5-3c-2.583-1.25-4.25-3.75-4.25-6.583 0-4.083 3.333-7.333 7.417-7.333s7.417 3.25 7.417 7.333c0 2.833-1.667 5.417-4.25 6.583l-0.583 3zM5.583 15.917h3.583l0.5-2.75 0.25-0.083c2.333-1 3.917-3.25 3.917-5.833 0-3.5-2.917-6.333-6.417-6.333s-6.417 2.833-6.417 6.333c0 2.5 1.5 4.833 3.917 5.833l0.25 0.083 0.417 2.75zM7.417 11.583l-1.25-2.417-2.75-0.417 2-1.917-0.5-2.667 2.5 1.25 2.5-1.25-0.5 2.667 2 1.917-2.75 0.417-1.25 2.417zM5.583 8.083l1.25 0.167 0.583 1.167 0.583-1.167 1.25-0.167-0.917-0.917 0.25-1.25-1.167 0.583-1.167-0.583 0.25 1.25-0.917 0.917z"></path>
</svg>
