<?xml version="1.0" encoding="utf-8"?>
<!-- Generated by IcoMoon.io -->
<!DOCTYPE svg PUBLIC "-//W3C//DTD SVG 1.1//EN" "http://www.w3.org/Graphics/SVG/1.1/DTD/svg11.dtd">
<svg version="1.1" xmlns="http://www.w3.org/2000/svg" xmlns:xlink="http://www.w3.org/1999/xlink" width="24" height="20" viewBox="0 0 24 20">
<path d="M23.106 0h-22.36c-0.373 0-0.745 0.373-0.745 0.745v15.404c0 0.373 0.373 0.745 0.745 0.745h2.733v2.236c0 0.248 0.248 0.621 0.497 0.745 0.124 0 0.248 0 0.248 0 0.248 0 0.373-0.124 0.497-0.248l2.733-2.733h15.528c0.373 0 0.745-0.373 0.745-0.745v-15.404c0.124-0.373-0.248-0.745-0.621-0.745zM22.236 15.28h-15.031c-0.248 0-0.373 0.124-0.497 0.248l-1.739 1.739v-1.118c0-0.373-0.373-0.745-0.745-0.745h-2.733v-13.913h20.745v13.789z" fill="#698bb1"></path>
</svg>
