<?xml version="1.0" encoding="utf-8"?>
<!-- Generated by IcoMoon.io -->
<!DOCTYPE svg PUBLIC "-//W3C//DTD SVG 1.1//EN" "http://www.w3.org/Graphics/SVG/1.1/DTD/svg11.dtd">
<svg version="1.1" xmlns="http://www.w3.org/2000/svg" xmlns:xlink="http://www.w3.org/1999/xlink" width="13" height="17" viewBox="0 0 13 17">
<path fill="#698bb1" d="M4.746 14.804h3.046v0.85h-3.046v-0.85z"></path>
<path fill="#698bb1" d="M4.746 16.15h3.046v0.85h-3.046v-0.85z"></path>
<path fill="#698bb1" d="M8.5 14.379h-4.463l-0.425-2.55c-2.196-1.063-3.612-3.188-3.612-5.596 0-3.471 2.833-6.233 6.304-6.233s6.304 2.763 6.304 6.233c0 2.408-1.417 4.604-3.613 5.596l-0.496 2.55zM4.746 13.529h3.046l0.425-2.338 0.213-0.071c1.983-0.85 3.329-2.762 3.329-4.958 0-2.975-2.479-5.383-5.454-5.383s-5.454 2.408-5.454 5.383c0 2.125 1.275 4.108 3.329 4.958l0.212 0.071 0.354 2.338zM6.304 9.846l-1.063-2.054-2.338-0.354 1.7-1.629-0.425-2.267 2.125 1.063 2.125-1.063-0.425 2.267 1.7 1.629-2.337 0.354-1.063 2.054zM4.746 6.871l1.063 0.142 0.496 0.992 0.496-0.992 1.063-0.142-0.779-0.779 0.213-1.063-0.992 0.496-0.992-0.496 0.212 1.063-0.779 0.779z"></path>
</svg>
