<?xml version="1.0" encoding="utf-8"?>
<!-- Generator: Adobe Illustrator 18.1.1, SVG Export Plug-In . SVG Version: 6.00 Build 0)  -->
<!DOCTYPE svg PUBLIC "-//W3C//DTD SVG 1.1//EN" "http://www.w3.org/Graphics/SVG/1.1/DTD/svg11.dtd">
<svg version="1.1" id="Layer_1" xmlns="http://www.w3.org/2000/svg" xmlns:xlink="http://www.w3.org/1999/xlink" x="0px" y="0px"
	 width="23px" height="22.5px" viewBox="2 -1.4 23 22.5" enable-background="new 2 -1.4 23 22.5" xml:space="preserve">
<path fill="#FFFFFF" d="M14.9,8.8L14.9,8.8L14.9,8.8L14.9,8.8z"/>
<path fill="#FFFFFF" d="M18.7,4.8c-1.3,0-2.3,0.3-3,0.8c-0.2-0.3-0.6-0.4-1-0.4h-4.3c-0.4,0-0.7,0.1-0.9,0.4C9.2,5.6,9.1,5.8,9,6
	C8.9,5.6,8.5,5.2,8,5.1c1-0.6,1.5-1.6,1.5-2.8c0-2.1-1.6-3.6-3.7-3.6C3.6-1.3,2,0.2,2,2.3c0,1.2,0.5,2.2,1.4,2.8
	c-0.7,0-1.3,0.6-1.3,1.3v13.4c0,0.7,0.6,1.3,1.3,1.3h4.4c0.6,0,1.1-0.4,1.2-0.9c0.1,0.2,0.2,0.4,0.3,0.5c0.2,0.2,0.6,0.4,0.9,0.4
	h4.4c0.7,0,1.3-0.6,1.3-1.3v-7.4c0-0.4,0-0.6,0-0.6c0.2-0.4,0.5-0.8,1.1-0.8c0.4,0,0.9,0,0.9,1.7v7.1c0,0.7,0.6,1.3,1.3,1.3h4.4
	c0.7,0,1.3-0.6,1.3-1.3v-7.6C25.1,6.7,21.8,4.8,18.7,4.8z M5.8,0c1.5,0,2.4,1,2.5,2.3c0,1.3-1,2.3-2.5,2.3l0,0c-1.5,0-2.4-1-2.4-2.3
	C3.3,1,4.3,0,5.8,0z M7.8,19.7H3.4V6.4h4.4V19.7z M23.8,19.7h-4.4v-7.1c0-1.8-0.6-3-2.2-3c-1.2,0-1.9,0.8-2.3,1.6
	c-0.1,0.3-0.1,0.7-0.1,1.1v7.4h-4.4c0,0,0.1-12.1,0-13.4h4.4v1.9c0.6-0.9,1.6-2.2,4-2.2c2.9,0,5.1,1.9,5.1,6v7.6H23.8z"/>
</svg>
