<?xml version="1.0" encoding="utf-8"?>
<!-- Generated by IcoMoon.io -->
<!DOCTYPE svg PUBLIC "-//W3C//DTD SVG 1.1//EN" "http://www.w3.org/Graphics/SVG/1.1/DTD/svg11.dtd">
<svg version="1.1" xmlns="http://www.w3.org/2000/svg" xmlns:xlink="http://www.w3.org/1999/xlink" width="12" height="16" viewBox="0 0 12 16">
<path fill="#dc5606" d="M6 0c-3.308 0-6 2.697-6 6.011 0 4.963 5.601 9.73 5.839 9.93 0.046 0.040 0.104 0.059 0.161 0.059s0.113-0.019 0.159-0.057c0.239-0.197 5.841-4.881 5.841-9.932 0-3.314-2.691-6.011-6-6.011zM6.001 15.419c-0.92-0.822-5.501-5.13-5.501-9.408 0-3.039 2.467-5.511 5.5-5.511s5.5 2.472 5.5 5.511c0 4.351-4.576 8.597-5.499 9.408zM6 3c-1.655 0-3 1.345-3 3s1.345 3 3 3 3-1.345 3-3-1.345-3-3-3zM6 8.5c-1.378 0-2.5-1.122-2.5-2.5s1.122-2.5 2.5-2.5 2.5 1.122 2.5 2.5-1.122 2.5-2.5 2.5z"></path>
</svg>
