<?xml version="1.0" encoding="utf-8"?>
<!-- Generated by IcoMoon.io -->
<!DOCTYPE svg PUBLIC "-//W3C//DTD SVG 1.1//EN" "http://www.w3.org/Graphics/SVG/1.1/DTD/svg11.dtd">
<svg version="1.1" xmlns="http://www.w3.org/2000/svg" xmlns:xlink="http://www.w3.org/1999/xlink" width="18" height="20" viewBox="0 0 18 20">
<path fill="#555559" d="M12.857 9.285q0-2.065-1.467-3.533t-3.533-1.467-3.533 1.467-1.467 3.533 1.467 3.533 3.533 1.467 3.533-1.467 1.467-3.533zM18.572 18.572q0 0.58-0.425 1.005t-1.005 0.425q-0.603 0-1.005-0.425l-3.828-3.817q-1.998 1.384-4.453 1.384-1.596 0-3.053-0.619t-2.511-1.675-1.675-2.511-0.619-3.053 0.619-3.053 1.675-2.511 2.511-1.675 3.053-0.619 3.053 0.619 2.511 1.675 1.675 2.511 0.619 3.053q0 2.455-1.384 4.453l3.828 3.828q0.413 0.413 0.413 1.005z"></path>
</svg>
