<?xml version="1.0" encoding="utf-8"?>
<!-- Generated by IcoMoon.io -->
<!DOCTYPE svg PUBLIC "-//W3C//DTD SVG 1.1//EN" "http://www.w3.org/Graphics/SVG/1.1/DTD/svg11.dtd">
<svg version="1.1" xmlns="http://www.w3.org/2000/svg" xmlns:xlink="http://www.w3.org/1999/xlink" width="23" height="17" viewBox="0 0 23 17">
<path fill="#7090b7" d="M22.1 17h-21.5c-0.3 0-0.6-0.3-0.6-0.6v-12.1c0-0.3 0.3-0.6 0.6-0.6h5l0.5-3.1c0-0.4 0.3-0.6 0.6-0.6h9.3c0.3 0 0.6 0.2 0.6 0.5l0.5 3.1h5c0.3 0 0.6 0.3 0.6 0.6v12.1c0 0.4-0.2 0.7-0.6 0.7zM1.2 15.8h20.3v-10.9h-4.9c-0.3 0-0.6-0.2-0.6-0.5l-0.5-3.1h-8.3l-0.5 3.1c0 0.3-0.3 0.5-0.6 0.5h-4.9v10.9z"></path>
<path fill="#7090b7" d="M11.4 13.6c-2.3 0-4.2-1.9-4.2-4.2s1.9-4.2 4.2-4.2 4.2 1.9 4.2 4.2-1.9 4.2-4.2 4.2zM11.4 6.5c-1.6 0-3 1.3-3 2.9s1.3 2.9 3 2.9 3-1.3 3-2.9-1.4-2.9-3-2.9z"></path>
</svg>
