<?xml version="1.0" encoding="utf-8"?>
<!-- Generated by IcoMoon.io -->
<!DOCTYPE svg PUBLIC "-//W3C//DTD SVG 1.1//EN" "http://www.w3.org/Graphics/SVG/1.1/DTD/svg11.dtd">
<svg version="1.1" xmlns="http://www.w3.org/2000/svg" xmlns:xlink="http://www.w3.org/1999/xlink" width="22" height="20" viewBox="0 0 22 20">
<path fill="#dc5607" d="M14.090 13.827c-0.208 0.721-0.86 1.24-1.634 1.244h-2.624c-0.77-0.002-1.42-0.512-1.631-1.214l-7.575-0.012v4.385c0 1.003 0.813 1.816 1.816 1.816h17.494c1.003 0 1.816-0.813 1.816-1.816v-4.385h-7.499z"></path>
<path fill="#dc5607" d="M8.116 12.928v-1.044c0-0.943 0.764-1.707 1.707-1.707 0 0 0 0 0 0h2.624c0.943 0 1.707 0.764 1.707 1.707 0 0 0 0 0 0v1.044h7.499c0.381-0.297 0.624-0.755 0.626-1.271v-7.49c0-0.908-0.736-1.643-1.643-1.643h-4.793v-0.908c0-0.908-0.736-1.643-1.643-1.643h-6.246c0 0 0 0 0 0-0.908 0-1.643 0.736-1.643 1.643v0.908h-4.63c0 0 0 0 0 0-0.908 0-1.643 0.736-1.643 1.643v7.49c0.005 0.512 0.248 0.967 0.623 1.259l7.502 0.003zM7.027 1.634c0-0.501 0.406-0.908 0.908-0.908h6.246c0.501 0 0.908 0.406 0.908 0.908v0.908h-8.016v-0.908z"></path>
</svg>
