<?xml version="1.0" encoding="utf-8"?>
<!-- Generated by IcoMoon.io -->
<!DOCTYPE svg PUBLIC "-//W3C//DTD SVG 1.1//EN" "http://www.w3.org/Graphics/SVG/1.1/DTD/svg11.dtd">
<svg version="1.1" xmlns="http://www.w3.org/2000/svg" xmlns:xlink="http://www.w3.org/1999/xlink" width="21" height="18" viewBox="0 0 21 18">
<path fill="#dc5607" d="M0 0v0 8.981h6.247c-0.035 3.424-2.819 6.186-6.247 6.186-0 0-0 0-0 0l0 2.746c0 0 0 0 0 0 4.965 0 8.992-4.018 9.006-8.98v-9.008h-9.006z"></path>
<path fill="#dc5607" d="M12.025 0v0 8.981h6.247c-0.035 3.424-2.819 6.186-6.247 6.186-0 0-0 0-0 0l0 2.746c0 0 0 0 0 0 4.965 0 8.992-4.018 9.006-8.98v-9.008h-9.006z"></path>
</svg>
