<?xml version="1.0" encoding="utf-8"?>
<!-- Generated by IcoMoon.io -->
<!DOCTYPE svg PUBLIC "-//W3C//DTD SVG 1.1//EN" "http://www.w3.org/Graphics/SVG/1.1/DTD/svg11.dtd">
<svg version="1.1" xmlns="http://www.w3.org/2000/svg" xmlns:xlink="http://www.w3.org/1999/xlink" width="19" height="20" viewBox="0 0 19 20">
<path fill="#d0cfcf" d="M1.702 9.458l-1.702-2.947 1.702-2.947h3.403l1.702 2.947-1.702 2.947h-3.403z"></path>
<path fill="#d0cfcf" d="M7.819 13.014l-1.729-3 1.729-2.991h3.457l1.729 2.991-1.729 3h-3.457z"></path>
<path fill="#d0cfcf" d="M13.972 9.458l-1.702-2.947 1.702-2.947h3.403l1.702 2.947-1.702 2.947h-3.403z"></path>
<path fill="#d0cfcf" d="M1.702 16.391l-1.702-2.947 1.702-2.956h3.403l1.702 2.956-1.702 2.947h-3.403z"></path>
<path fill="#d0cfcf" d="M13.972 16.391l-1.702-2.947 1.702-2.956h3.403l1.702 2.956-1.702 2.947h-3.403z"></path>
<path fill="#d0cfcf" d="M7.846 20l-1.702-2.947 1.702-2.947h3.403l1.702 2.947-1.702 2.947h-3.403z"></path>
<path fill="#d0cfcf" d="M7.846 5.893l-1.702-2.947 1.702-2.947h3.403l1.702 2.947-1.702 2.947h-3.403z"></path>
</svg>
