<?xml version="1.0" encoding="utf-8"?>
<!-- Generated by IcoMoon.io -->
<!DOCTYPE svg PUBLIC "-//W3C//DTD SVG 1.1//EN" "http://www.w3.org/Graphics/SVG/1.1/DTD/svg11.dtd">
<svg version="1.1" xmlns="http://www.w3.org/2000/svg" xmlns:xlink="http://www.w3.org/1999/xlink" width="29" height="20" viewBox="0 0 29 20">
<path fill="#d0cfcf" d="M10.087 3.579c0 1.977-1.602 3.579-3.579 3.579s-3.579-1.602-3.579-3.579c0-1.977 1.602-3.579 3.579-3.579s3.579 1.602 3.579 3.579z"></path>
<path fill="#d0cfcf" d="M10.51 8.265h-9.111c0 0 0 0 0 0-0.773 0-1.399 0.626-1.399 1.399s0 0.076 0 0.119 0 0.098 0 0.141v2.939h10.336c-0.34-0.622-0.54-1.363-0.54-2.151 0-0.909 0.266-1.755 0.724-2.466z"></path>
<path fill="#d0cfcf" d="M26.356 3.579c0 1.977-1.602 3.579-3.579 3.579s-3.579-1.602-3.579-3.579c0-1.977 1.602-3.579 3.579-3.579s3.579 1.602 3.579 3.579z"></path>
<path fill="#d0cfcf" d="M27.885 8.265h-8.905c0.451 0.695 0.719 1.544 0.719 2.457 0 0.784-0.198 1.522-0.547 2.166l10.131-0.024v-2.983s0-0.098 0-0.141 0-0.076 0-0.119c-0.024-0.754-0.641-1.356-1.398-1.356-0 0-0 0-0.001 0z"></path>
<path fill="#d0cfcf" d="M18.178 10.716c0 1.977-1.602 3.579-3.579 3.579s-3.579-1.602-3.579-3.579c0-1.977 1.602-3.579 3.579-3.579s3.579 1.602 3.579 3.579z"></path>
<path fill="#d0cfcf" d="M21.095 16.8c0-0.773-0.626-1.399-1.399-1.399h-10.217c0 0 0 0 0 0-0.773 0-1.399 0.626-1.399 1.399s0 0.076 0 0.119 0 0.098 0 0.141v2.939h13.015v-2.939s0-0.098 0-0.141 0-0.076 0-0.119z"></path>
</svg>
