<?xml version="1.0" encoding="utf-8"?>
<!-- Generated by IcoMoon.io -->
<!DOCTYPE svg PUBLIC "-//W3C//DTD SVG 1.1//EN" "http://www.w3.org/Graphics/SVG/1.1/DTD/svg11.dtd">
<svg version="1.1" xmlns="http://www.w3.org/2000/svg" xmlns:xlink="http://www.w3.org/1999/xlink" width="20" height="20" viewBox="0 0 20 20">
<path fill="#d0cfcf" d="M15.685 5.562c0 3.072-2.49 5.562-5.562 5.562s-5.562-2.49-5.562-5.562c0-3.072 2.49-5.562 5.562-5.562s5.562 2.49 5.562 5.562z"></path>
<path fill="#d0cfcf" d="M20.245 15.024c0-1.177-0.954-2.131-2.131-2.131h-15.93c-1.177 0-2.131 0.954-2.131 2.131 0 0.064 0 0.128 0 0.192s0 0.149 0 0.224v4.56h20.245v-4.56c0-0.075 0-0.149 0-0.224s-0.053-0.128-0.053-0.192z"></path>
</svg>
