<?xml version="1.0" encoding="utf-8"?>
<!-- Generated by IcoMoon.io -->
<!DOCTYPE svg PUBLIC "-//W3C//DTD SVG 1.1//EN" "http://www.w3.org/Graphics/SVG/1.1/DTD/svg11.dtd">
<svg version="1.1" xmlns="http://www.w3.org/2000/svg" xmlns:xlink="http://www.w3.org/1999/xlink" width="22" height="22" viewBox="0 0 22 22">
<path fill="#dc5607" d="M17.080 0l-1.14 2.030-2.46 4.36-0.75 1.35-1.97 3.5 3.5-1.97 1.35-0.75 6.39-3.6-4.92-4.92z"></path>
<path fill="#dc5607" d="M10.75 22c-0.013 0-0.029 0-0.044 0-5.943 0-10.76-4.817-10.76-10.76s4.817-10.76 10.76-10.76c1.181 0 2.317 0.19 3.38 0.542l-0.686 1.888c-0.794-0.262-1.708-0.413-2.657-0.413-4.838 0-8.76 3.922-8.76 8.76s3.922 8.76 8.76 8.76c4.838 0 8.76-3.922 8.76-8.76 0-0.949-0.151-1.863-0.43-2.719l1.927-0.548c0.319 0.971 0.503 2.089 0.503 3.25 0 5.94-4.813 10.756-10.752 10.76z"></path>
<path fill="#dc5607" d="M10.75 17.1c-3.236 0-5.86-2.624-5.86-5.86s2.624-5.86 5.86-5.86c0.061-0.004 0.133-0.007 0.205-0.007s0.144 0.002 0.215 0.007l0.11-0.001-0.17 2h-0.35c-2.132 0-3.86 1.728-3.86 3.86s1.728 3.86 3.86 3.86c2.132 0 3.86-1.728 3.86-3.86 0 0 0 0 0 0 0.002-0.022 0.003-0.049 0.003-0.075s-0.001-0.053-0.003-0.078l0-0.197 2-0.19v0.12c0.005 0.063 0.007 0.136 0.007 0.21s-0.003 0.147-0.008 0.22c-0.005 3.228-2.631 5.85-5.869 5.85 0 0 0 0 0 0z"></path>
</svg>
