<?xml version="1.0" encoding="utf-8"?>
<!-- Generated by IcoMoon.io -->
<!DOCTYPE svg PUBLIC "-//W3C//DTD SVG 1.1//EN" "http://www.w3.org/Graphics/SVG/1.1/DTD/svg11.dtd">
<svg version="1.1" xmlns="http://www.w3.org/2000/svg" xmlns:xlink="http://www.w3.org/1999/xlink" width="20" height="20" viewBox="0 0 20 20">
<path fill="#dc5607" d="M10.005 0c0 0 0 0 0 0-5.525 0-10.005 4.479-10.005 10.005s4.479 10.005 10.005 10.005c5.525 0 10.005-4.479 10.005-10.005s-4.479-10.005-10.005-10.005c0 0 0 0 0 0zM10.005 19.047c-4.994 0-9.043-4.049-9.043-9.043s4.049-9.043 9.043-9.043c4.994 0 9.043 4.049 9.043 9.043 0 0 0 0 0 0 0 4.994-4.049 9.043-9.043 9.043z"></path>
<path fill="#dc5607" d="M10.316 10.673v2.089c0.151-0.018 0.287-0.051 0.417-0.096s0.254-0.113 0.364-0.199c0.108-0.086 0.2-0.192 0.269-0.313 0.072-0.131 0.113-0.281 0.113-0.441 0-0.005-0-0.010-0-0.014 0.001-0.015 0.002-0.034 0.002-0.052 0-0.231-0.103-0.439-0.267-0.578-0.257-0.179-0.558-0.315-0.881-0.391z"></path>
<path fill="#dc5607" d="M8.997 7.393c-0.092 0.076-0.167 0.171-0.218 0.279-0.054 0.117-0.085 0.247-0.085 0.385 0 0.005 0 0.010 0 0.015-0.001 0.010-0.001 0.023-0.001 0.036 0 0.204 0.089 0.387 0.229 0.512 0.212 0.155 0.466 0.264 0.741 0.311l0.010-1.739c-0.128 0-0.251 0.020-0.366 0.057-0.114 0.027-0.221 0.078-0.315 0.146z"></path>
<path fill="#dc5607" d="M10.005 1.896c0 0 0 0 0 0-4.478 0-8.108 3.63-8.108 8.108s3.63 8.108 8.108 8.108c4.478 0 8.108-3.63 8.108-8.108 0 0 0 0 0 0 0-4.478-3.63-8.108-8.108-8.108zM12.909 12.359c-0.099 0.277-0.245 0.515-0.432 0.716-0.233 0.25-0.509 0.459-0.816 0.614-0.407 0.199-0.865 0.319-1.348 0.337l-0.006 0.916h-0.641v-0.916c-0.017 0-0.036 0.001-0.056 0.001-1.457 0-2.639-1.181-2.639-2.639 0-0.020 0-0.039 0.001-0.058l1.53 0.003c-0.002 0.030-0.004 0.065-0.004 0.1 0 0.338 0.127 0.647 0.335 0.882 0.215 0.23 0.501 0.393 0.823 0.455l0.010-2.271-0.147-0.046-0.202-0.046c-0.266-0.073-0.531-0.156-0.797-0.257-0.27-0.1-0.503-0.233-0.711-0.398-0.199-0.159-0.366-0.36-0.485-0.59-0.122-0.255-0.19-0.542-0.19-0.845 0-0.028 0.001-0.057 0.002-0.085-0-0.010-0.001-0.027-0.001-0.044 0-0.657 0.298-1.245 0.767-1.635 0.232-0.193 0.5-0.345 0.792-0.446 0.287-0.103 0.598-0.171 0.921-0.197l0.013-0.835h0.641v0.834c0.339 0.037 0.65 0.111 0.943 0.219 0.265 0.095 0.517 0.241 0.737 0.425 0.214 0.186 0.393 0.414 0.522 0.671 0.144 0.299 0.231 0.634 0.244 0.988l-1.539 0.004c-0.001-0.284-0.104-0.544-0.276-0.744-0.148-0.183-0.374-0.301-0.628-0.301-0.001 0-0.002 0-0.003 0l0 1.924 0.266 0.064 0.293 0.073c0.47 0.112 0.883 0.299 1.25 0.549 0.244 0.172 0.458 0.395 0.623 0.651 0.131 0.208 0.219 0.444 0.252 0.697 0.006 0.102 0.009 0.211 0.009 0.32s-0.003 0.218-0.009 0.326c0.004 0.028 0.006 0.079 0.006 0.13 0 0.16-0.019 0.315-0.054 0.464z"></path>
</svg>
