<?xml version="1.0" encoding="utf-8"?>
<!-- Generated by IcoMoon.io -->
<!DOCTYPE svg PUBLIC "-//W3C//DTD SVG 1.1//EN" "http://www.w3.org/Graphics/SVG/1.1/DTD/svg11.dtd">
<svg version="1.1" xmlns="http://www.w3.org/2000/svg" xmlns:xlink="http://www.w3.org/1999/xlink" width="14" height="20" viewBox="0 0 14 20">
<path fill="#d0cfcf" d="M5.238 17.377h3.695v1.015h-3.695v-1.015z"></path>
<path fill="#d0cfcf" d="M5.238 18.985h3.695v1.015h-3.695v-1.015z"></path>
<path fill="#d0cfcf" d="M7.056 0c-0.031-0-0.068-0.001-0.104-0.001-3.848 0-6.967 3.119-6.967 6.967 0 2.874 1.74 5.342 4.225 6.407l0.549 2.981h4.547l0.552-2.964c2.53-1.082 4.27-3.55 4.27-6.424 0-3.848-3.119-6.967-6.967-6.967-0.037 0-0.073 0-0.11 0.001zM7.982 8.413l-0.926 1.843-0.926-1.843-2.063-0.292 1.494-1.437-0.349-2.022 1.843 0.958 1.843-0.958-0.349 2.022 1.494 1.437z"></path>
</svg>
