<?xml version="1.0" encoding="utf-8"?>
<!-- Generated by IcoMoon.io -->
<!DOCTYPE svg PUBLIC "-//W3C//DTD SVG 1.1//EN" "http://www.w3.org/Graphics/SVG/1.1/DTD/svg11.dtd">
<svg version="1.1" xmlns="http://www.w3.org/2000/svg" xmlns:xlink="http://www.w3.org/1999/xlink" width="19" height="20" viewBox="0 0 19 20">
<path fill="#d0cfcf" d="M3.209 5.005c0 0 0 0 0 0-0.327 0-0.592-0.265-0.592-0.592v-3.82c0 0 0 0 0 0 0-0.327 0.265-0.592 0.592-0.592s0.592 0.265 0.592 0.592c0 0 0 0 0 0v3.82c0 0.327-0.265 0.592-0.592 0.592z"></path>
<path fill="#d0cfcf" d="M15.883 5.005c0 0 0 0 0 0-0.327 0-0.592-0.265-0.592-0.592v-3.82c0 0 0 0 0 0 0-0.327 0.265-0.592 0.592-0.592s0.592 0.265 0.592 0.592c0 0 0 0 0 0v3.82c0 0.327-0.265 0.592-0.592 0.592z"></path>
<path fill="#d0cfcf" d="M17.431 2.168v2.245c0 0.855-0.693 1.547-1.547 1.547s-1.547-0.693-1.547-1.547v-2.245h-9.551v2.245c0 0.855-0.693 1.547-1.547 1.547s-1.547-0.693-1.547-1.547v-2.245h-1.691v17.832h19.303v-17.832h-1.91zM9.58 15.119c-0.542 0.473-1.255 0.761-2.036 0.761-0.070 0-0.14-0.002-0.208-0.007-0.063 0.007-0.146 0.011-0.23 0.011-0.752 0-1.429-0.316-1.908-0.822-0.418-0.515-0.671-1.176-0.671-1.897 0-0.029 0-0.057 0.001-0.086l1.098 0.004c0.013 0.431 0.124 0.834 0.313 1.19 0.286 0.392 0.758 0.654 1.291 0.654 0.061 0 0.121-0.003 0.18-0.010 0.024 0.003 0.061 0.004 0.098 0.004 0.466 0 0.894-0.167 1.225-0.445 0.303-0.267 0.494-0.659 0.494-1.096 0-0.017-0-0.034-0.001-0.050 0.005-0.040 0.007-0.088 0.007-0.138 0-0.434-0.208-0.819-0.529-1.061-0.383-0.221-0.838-0.351-1.323-0.351-0.053 0-0.106 0.002-0.159 0.005l-0.432-0v-0.955h0.516c0.017 0 0.037 0.001 0.057 0.001 0.325 0 0.634-0.071 0.911-0.197 0.387-0.19 0.659-0.594 0.659-1.062 0-0.034-0.001-0.068-0.004-0.102 0.001-0.012 0.002-0.032 0.002-0.052 0-0.364-0.172-0.689-0.438-0.897-0.276-0.211-0.623-0.337-0.999-0.337-0.012 0-0.024 0-0.036 0-0.047-0.006-0.104-0.009-0.162-0.009-0.539 0-1.012 0.279-1.285 0.7-0.16 0.318-0.252 0.686-0.252 1.076 0 0.010 0 0.020 0 0.030l-1.041-0.002c-0.001-0.029-0.001-0.062-0.001-0.096 0-0.545 0.138-1.058 0.382-1.506 0.405-0.691 1.162-1.159 2.027-1.159 0.077 0 0.153 0.004 0.228 0.011 0.046-0.004 0.112-0.006 0.178-0.006 0.672 0 1.294 0.217 1.798 0.585 0.421 0.362 0.692 0.906 0.692 1.513 0 0.044-0.001 0.087-0.004 0.13 0.002 0.021 0.002 0.052 0.002 0.083 0 0.442-0.156 0.848-0.415 1.166-0.177 0.2-0.401 0.359-0.654 0.461 0.415 0.113 0.772 0.361 1.016 0.696 0.237 0.34 0.377 0.756 0.377 1.204 0 0.022-0 0.044-0.001 0.065 0.003 0.046 0.005 0.102 0.005 0.16 0 0.718-0.294 1.367-0.769 1.833zM14.585 15.645h-1.108v-5.912h-1.968v-0.802c0.579-0.023 1.121-0.158 1.612-0.383 0.339-0.285 0.586-0.715 0.641-1.203l0.832-0.008v8.309z"></path>
</svg>
