<?xml version="1.0" encoding="utf-8"?>
<!-- Generator: Adobe Illustrator 20.1.0, SVG Export Plug-In . SVG Version: 6.00 Build 0)  -->
<svg version="1.1" id="Layer_1" xmlns="http://www.w3.org/2000/svg" xmlns:xlink="http://www.w3.org/1999/xlink" x="0px" y="0px"
	 viewBox="0 0 137 137" style="enable-background:new 0 0 137 137;" xml:space="preserve">
<style type="text/css">
	.st0{fill:none;}
	.st1{fill:#E6E5E5;}
</style>
<title>Globe</title>
<path class="st0" d="M0,0h136.8v136.8H0V0z"/>
<path class="st1" d="M68.3,11.4c-31.5,0-57,25.5-57,57s25.5,57,57,57s57-25.5,57-57S99.8,11.4,68.3,11.4L68.3,11.4z M107.8,45.6H91
	c-1.8-7.1-4.4-13.9-7.9-20.3C93.5,28.9,102.3,36.1,107.8,45.6z M68.4,23c4.8,6.9,8.5,14.5,10.9,22.6H57.5
	C59.9,37.5,63.6,29.9,68.4,23z M24.3,79.8c-2-7.5-2-15.3,0-22.8h19.3c-0.5,3.8-0.8,7.6-0.8,11.4c0,3.8,0.3,7.6,0.8,11.4L24.3,79.8z
	 M28.9,91.2h16.8c1.8,7.1,4.4,13.9,7.9,20.3C43.2,107.9,34.5,100.7,28.9,91.2L28.9,91.2z M45.8,45.6H29c5.5-9.5,14.3-16.7,24.7-20.3
	C50.2,31.7,47.5,38.5,45.8,45.6z M68.4,113.7c-4.8-6.9-8.5-14.5-10.9-22.6h21.8C76.8,99.2,73.2,106.8,68.4,113.7L68.4,113.7z
	 M81.7,79.7H55c-0.6-3.8-0.9-7.6-0.9-11.4c0-3.8,0.3-7.6,0.9-11.3h26.7c0.6,3.8,0.9,7.6,0.9,11.4C82.6,72.2,82.3,76,81.7,79.7
	L81.7,79.7z M83.1,111.4c3.4-6.4,6.1-13.2,7.9-20.2h16.8C102.3,100.7,93.5,107.9,83.1,111.4L83.1,111.4z M93.2,79.8
	C93.7,76,94,72.2,94,68.4c0-3.8-0.3-7.6-0.8-11.4h19.3c2,7.5,2,15.3,0,22.8L93.2,79.8z"/>
</svg>
