<?xml version="1.0" encoding="utf-8"?>
<!-- Generated by IcoMoon.io -->
<!DOCTYPE svg PUBLIC "-//W3C//DTD SVG 1.1//EN" "http://www.w3.org/Graphics/SVG/1.1/DTD/svg11.dtd">
<svg version="1.1" xmlns="http://www.w3.org/2000/svg" xmlns:xlink="http://www.w3.org/1999/xlink" width="18" height="18" viewBox="0 0 18 18">
<path fill="#ffffff" d="M9.827 1.125c0 0-3.532 0-4.71 0-2.111 0-4.099 1.6-4.099 3.453 0 1.894 1.439 3.422 3.587 3.422 0.149 0 0.295-0.003 0.437-0.013-0.139 0.267-0.239 0.568-0.239 0.88 0 0.526 0.283 0.953 0.641 1.301-0.27 0-0.532 0.008-0.817 0.008-2.615-0-4.628 1.666-4.628 3.393 0 1.701 2.207 2.765 4.822 2.765 2.982 0 4.628-1.692 4.628-3.393 0-1.364-0.402-2.181-1.647-3.061-0.426-0.301-1.24-1.034-1.24-1.465 0-0.505 0.144-0.754 0.904-1.347 0.779-0.609 1.33-1.464 1.33-2.459 0-1.185-0.528-2.34-1.518-2.721h1.493l1.054-0.762zM8.182 12.647c0.037 0.158 0.058 0.32 0.058 0.486 0 1.375-0.886 2.449-3.427 2.449-1.808 0-3.113-1.144-3.113-2.519 0-1.347 1.619-2.469 3.427-2.449 0.422 0.004 0.815 0.072 1.172 0.188 0.981 0.682 1.685 1.068 1.884 1.846zM5.288 7.519c-1.214-0.036-2.367-1.357-2.576-2.951s0.604-2.813 1.817-2.777c1.213 0.036 2.367 1.315 2.576 2.908s-0.605 2.856-1.817 2.819zM14.625 4.5v-3.375h-1.125v3.375h-3.375v1.125h3.375v3.375h1.125v-3.375h3.375v-1.125z"></path>
</svg>
