<?xml version="1.0" encoding="utf-8"?>
<!-- Generated by IcoMoon.io -->
<!DOCTYPE svg PUBLIC "-//W3C//DTD SVG 1.1//EN" "http://www.w3.org/Graphics/SVG/1.1/DTD/svg11.dtd">
<svg version="1.1" xmlns="http://www.w3.org/2000/svg" xmlns:xlink="http://www.w3.org/1999/xlink" width="19" height="18" viewBox="0 0 19 18">
<path fill="#b71234" d="M19.263 4.794c0-0.019 0-0.042 0-0.064 0-2.66-2.156-4.816-4.816-4.816-2.637 0-4.779 2.12-4.816 4.749s-0 0.003-0 0.003c-0.080-2.597-2.205-4.671-4.814-4.671-2.66 0-4.816 2.156-4.816 4.816 0 0.67 0.137 1.308 0.384 1.888 1.454 4.024 9.245 11.28 9.245 11.28s7.791-7.256 9.246-11.312c0.242-0.552 0.383-1.196 0.385-1.872z"></path>
</svg>
