<?xml version="1.0" encoding="utf-8"?>
<!-- Generated by IcoMoon.io -->
<!DOCTYPE svg PUBLIC "-//W3C//DTD SVG 1.1//EN" "http://www.w3.org/Graphics/SVG/1.1/DTD/svg11.dtd">
<svg version="1.1" xmlns="http://www.w3.org/2000/svg" xmlns:xlink="http://www.w3.org/1999/xlink" width="17" height="17" viewBox="0 0 17 17">
<path d="M8.6 10c2.8 0 5-2.3 5-5 0-2.8-2.3-5-5-5-2.8 0-5 2.3-5 5 0 2.8 2.2 5 5 5zM8.6 1.3c2 0 3.7 1.7 3.7 3.7s-1.7 3.7-3.7 3.7c-2 0-3.7-1.7-3.7-3.7s1.6-3.7 3.7-3.7z" fill="#698bb1"></path>
<path d="M17.2 12.4c0-1.3-1.1-2.4-2.4-2.4h-12.4c-1.3 0-2.4 1.1-2.4 2.4 0 0 0 0.2 0 0.3v3.6c0 0.4 0.3 0.7 0.7 0.7h15.9c0.4 0 0.7-0.3 0.7-0.7v-3.6c0 0 0-0.1 0-0.1-0.1-0.1-0.1-0.1-0.1-0.2zM15.9 15.7h-14.6c0 0 0-3.1 0-3.1s0-0.2 0-0.2c0-0.6 0.5-1.1 1.1-1.1h12.5c0.6 0 1.1 0.5 1.1 1.1-0.1 0.2-0.1 3.3-0.1 3.3z" fill="#698bb1"></path>
</svg>
