<?xml version="1.0" encoding="utf-8"?>
<!-- Generated by IcoMoon.io -->
<!DOCTYPE svg PUBLIC "-//W3C//DTD SVG 1.1//EN" "http://www.w3.org/Graphics/SVG/1.1/DTD/svg11.dtd">
<svg version="1.1" xmlns="http://www.w3.org/2000/svg" xmlns:xlink="http://www.w3.org/1999/xlink" width="19" height="18" viewBox="0 0 19 18">
<path fill="#fff" d="M9.596 18c0 0 0 0 0 0-0.165 0-0.315-0.065-0.426-0.171-0.298-0.277-7.381-6.902-8.776-10.768-0.249-0.575-0.394-1.244-0.394-1.947 0-0.005 0-0.009 0-0.014 0.003-2.815 2.286-5.096 5.102-5.096 1.926 0 3.602 1.067 4.471 2.642 0.895-1.575 2.572-2.642 4.497-2.642 2.816 0 5.099 2.281 5.102 5.096 0 0.002 0 0.005 0 0.007 0 0.717-0.149 1.399-0.417 2.018-1.372 3.812-8.444 10.426-8.742 10.703-0.108 0.103-0.254 0.168-0.415 0.17zM5.112 1.246c-2.127 0.006-3.85 1.729-3.856 3.855 0.001 0.543 0.114 1.060 0.318 1.527 1.109 3.075 6.466 8.39 8.032 9.881 1.555-1.502 6.912-6.806 8.020-9.873 0.194-0.445 0.307-0.962 0.307-1.507 0-2.129-1.726-3.856-3.856-3.856-2.082 0-3.779 1.651-3.853 3.715-0 0.351-0.279 0.63-0.623 0.63s-0.623-0.279-0.623-0.623c-0.071-2.085-1.772-3.749-3.865-3.76z"></path>
</svg>
