<?xml version="1.0" encoding="utf-8"?>
<!-- Generator: Adobe Illustrator 19.1.0, SVG Export Plug-In . SVG Version: 6.00 Build 0)  -->
<svg version="1.1" id="Layer_1" xmlns="http://www.w3.org/2000/svg" xmlns:xlink="http://www.w3.org/1999/xlink" x="0px" y="0px"
	 viewBox="-463 265 32 32" style="enable-background:new -463 265 32 32;" xml:space="preserve">
<style type="text/css">
	.st0{fill:#7090B7;}
</style>
<path class="st0" d="M-432,277h-11v-11c0-0.6-0.4-1-1-1h-6c-0.6,0-1,0.4-1,1v11h-11c-0.6,0-1,0.4-1,1v6c0,0.6,0.4,1,1,1h11v11
	c0,0.6,0.4,1,1,1h6c0.6,0,1-0.4,1-1v-11h11c0.6,0,1-0.4,1-1v-6C-431,277.4-431.4,277-432,277z"/>
</svg>
