<?xml version="1.0" encoding="utf-8"?>
<!-- Generated by IcoMoon.io -->
<!DOCTYPE svg PUBLIC "-//W3C//DTD SVG 1.1//EN" "http://www.w3.org/Graphics/SVG/1.1/DTD/svg11.dtd">
<svg version="1.1" xmlns="http://www.w3.org/2000/svg" xmlns:xlink="http://www.w3.org/1999/xlink" width="20" height="20" viewBox="0 0 20 20">
<path fill="#ffffff" d="M19.429 6.857l-2.095-3.714h-3.619l-1.81-3.143h-4.286l-1.81 3.143h-3.714l-2.095 3.714 1.81 3.143-1.81 3.143 2.095 3.714h3.619l1.905 3.143h4.286l1.81-3.143h3.619l2.095-3.714-1.81-3.143 1.81-3.143zM18.19 6.857l-1.524 2.571h-2.952l-1.524-2.571 1.524-2.571h2.952l1.524 2.571zM8.286 12.571l-1.524-2.571 1.524-2.571h2.952l1.524 2.571-1.524 2.571h-2.952zM8.286 1.143h2.952l1.524 2.571-1.524 2.571h-2.952l-1.524-2.571 1.524-2.571zM2.762 4.286h2.952l1.524 2.571-1.429 2.571h-3.048l-1.429-2.571 1.429-2.571zM1.333 13.143l1.524-2.571h2.952l1.524 2.571-1.524 2.571h-3.048l-1.429-2.571zM11.238 18.857h-2.952l-1.524-2.571 1.524-2.571h2.952l1.524 2.571-1.524 2.571zM16.667 15.714h-2.952l-1.524-2.571 1.524-2.571h2.952l1.524 2.571-1.524 2.571z"></path>
</svg>
