<?xml version="1.0" encoding="utf-8"?>
<!-- Generated by IcoMoon.io -->
<!DOCTYPE svg PUBLIC "-//W3C//DTD SVG 1.1//EN" "http://www.w3.org/Graphics/SVG/1.1/DTD/svg11.dtd">
<svg version="1.1" xmlns="http://www.w3.org/2000/svg" xmlns:xlink="http://www.w3.org/1999/xlink" width="22" height="22" viewBox="0 0 22 22">
<path fill="#fff" d="M17.417 12.256c0.422 1.256-1.833 3.832-5.317 5.161s-6.793 0.77-7.242-0.486c-0.614-1.742 0.917-1.833 0.486-3.603-1.1-4.262-1.293-5.995 1.072-7.966 0.798-0.678 0.082-1.127 0.917-1.421s0.55 0.486 1.613 0.486c2.998-0.064 3.96 1.421 5.793 5.381 0.779 1.668 2.035 0.706 2.677 2.447zM16.326 12.641c-0.193-0.578-2.191-1.063-5.766 0.257s-4.767 3.062-4.583 3.575c0.101 0.321 2.677 0.999 5.793-0.165s4.647-3.318 4.519-3.667zM11.403 13.283v0c0.293 0.834-0.449 1.833-1.678 2.319-0.302 0.151-0.659 0.239-1.035 0.239-0.532 0-1.023-0.176-1.418-0.472 1.003-0.802 2.17-1.448 3.439-1.871 0.233-0.088 0.425-0.154 0.623-0.207z"></path>
</svg>
