<?xml version="1.0" encoding="utf-8"?>
<!-- Generated by IcoMoon.io -->
<!DOCTYPE svg PUBLIC "-//W3C//DTD SVG 1.1//EN" "http://www.w3.org/Graphics/SVG/1.1/DTD/svg11.dtd">
<svg version="1.1" xmlns="http://www.w3.org/2000/svg" xmlns:xlink="http://www.w3.org/1999/xlink" width="23" height="20" viewBox="0 0 23 20">
<path fill="#ffffff" d="M12.529 0l-1.034 1.034-1.034-1.034h-10.46v20h10.46l1.034-1.034 1.034 1.034h10.46v-20h-10.46zM10.805 17.816l-0.805 0.805h-8.621v-17.241h8.621l0.92 0.92v15.517zM21.609 18.621h-8.621l-0.805-0.805v-15.632l0.92-0.92h8.621v17.357z"></path>
<path fill="#ffffff" d="M13.793 3.563h6.207v1.379h-6.207v-1.379z"></path>
<path fill="#ffffff" d="M13.793 7.357h6.207v1.379h-6.207v-1.379z"></path>
<path fill="#ffffff" d="M13.793 11.264h6.207v1.379h-6.207v-1.379z"></path>
<path fill="#ffffff" d="M13.793 15.057h6.207v1.379h-6.207v-1.379z"></path>
</svg>
