<?xml version="1.0" encoding="utf-8"?>
<!-- Generator: Adobe Illustrator 19.1.0, SVG Export Plug-In . SVG Version: 6.00 Build 0)  -->
<svg version="1.1" id="Layer_1" xmlns="http://www.w3.org/2000/svg" xmlns:xlink="http://www.w3.org/1999/xlink" x="0px" y="0px"
	 viewBox="-486 254 54 54" style="enable-background:new -486 254 54 54;" xml:space="preserve">
<g>
	<g>
		<path style="fill:#003359;" d="M-459,307.7c-14.7,0-26.7-12-26.7-26.7s12-26.7,26.7-26.7s26.7,12,26.7,26.7
			S-444.3,307.7-459,307.7z M-459,257.5c-13.1,0-23.5,10.7-23.5,23.5c0,13.1,10.7,23.5,23.5,23.5c13.1,0,23.5-10.7,23.5-23.5
			C-435.5,267.9-445.9,257.5-459,257.5z"/>
	</g>
	<path style="fill:#003359;" d="M-450.7,283.1c-0.5-1.1-1.1-1.9-1.9-2.4c-0.8-0.5-1.6-1.1-2.7-1.3c-0.8-0.3-1.6-0.5-2.4-0.8v-8.5
		c0.3,0,0.8,0,1.1,0.3c0.5,0.3,1.1,0.5,1.3,0.8c0.3,0.3,0.5,0.8,0.8,1.1c0.3,0.5,0.3,1.1,0.3,1.6l3.2-0.3c0-1.1-0.3-2.1-0.5-2.9
		c-0.3-0.8-1.1-1.6-1.6-2.1c-0.8-0.5-1.6-1.1-2.4-1.3c-0.5-0.3-1.3-0.3-1.9-0.3v-1.6h-3.2v1.6c-0.8,0-1.3,0.3-1.9,0.3
		c-1.1,0.5-1.9,0.8-2.4,1.6c-0.8,0.5-1.3,1.3-1.9,2.1c-0.3,1.1-0.5,1.9-0.5,2.9c0,1.1,0.3,2.1,0.5,3.2c0.5,0.8,1.1,1.6,1.6,2.1
		c0.8,0.5,1.6,1.1,2.7,1.3c0.5,0.3,1.1,0.5,1.9,0.5v9.6c-0.8-0.3-1.9-0.5-2.4-1.1c-0.8-0.5-1.3-1.6-1.6-2.7c0-0.3,0-0.5,0-0.5v-0.8
		l-3.2,0.3v0.8c0,0.3,0,0.5,0,1.1c0.5,2.1,1.3,3.7,2.9,4.8c1.1,0.8,2.7,1.3,4.3,1.6v2.9h3.2v-2.9c0.8,0,1.3-0.3,2.1-0.5
		c1.1-0.3,1.9-0.8,2.7-1.3c0.8-0.5,1.3-1.3,1.9-2.1c0.5-0.8,0.8-1.9,0.8-3.2C-450.2,285.3-450.2,284.2-450.7,283.1z M-461.4,277.5
		c-0.8-0.3-1.1-0.5-1.6-0.8c-0.3-0.3-0.5-0.8-0.8-1.1c-0.3-0.5-0.3-1.1-0.3-1.9c0-0.5,0-1.1,0.3-1.6c0.3-0.5,0.5-0.8,1.1-1.3
		c0.3-0.3,0.8-0.5,1.3-0.8c0.3,0,0.5-0.3,0.8-0.3v7.7C-460.9,277.8-461.1,277.5-461.4,277.5z M-453.7,288.2
		c-0.3,0.5-0.5,1.1-1.1,1.3c-0.5,0.3-1.1,0.5-1.6,0.8c-0.3,0-0.8,0.3-1.1,0.3v-8.8c0.5,0,1.1,0.3,1.3,0.3c0.5,0.3,1.1,0.5,1.6,0.8
		c0.3,0.3,0.5,0.8,0.8,1.3c0.3,0.5,0.3,1.3,0.3,2.1C-453.1,287.1-453.4,287.7-453.7,288.2z"/>
</g>
</svg>
