<?xml version="1.0" encoding="utf-8"?>
<!-- Generated by IcoMoon.io -->
<!DOCTYPE svg PUBLIC "-//W3C//DTD SVG 1.1//EN" "http://www.w3.org/Graphics/SVG/1.1/DTD/svg11.dtd">
<svg version="1.1" xmlns="http://www.w3.org/2000/svg" xmlns:xlink="http://www.w3.org/1999/xlink" width="16" height="16" viewBox="0 0 16 16">
<path fill="#fff" d="M16 9.083v-2.167l-1.917-0.5c-0.147-0.6-0.377-1.128-0.68-1.605l1.013-1.645-1.583-1.583-1.667 1c-0.449-0.248-0.973-0.474-1.519-0.649l-0.564-1.934h-2.167l-0.5 1.917c-0.6 0.147-1.128 0.377-1.605 0.68l-1.645-1.013-1.583 1.583 1 1.667c-0.248 0.449-0.474 0.973-0.649 1.519l-1.934 0.564v2.167l1.917 0.5c0.147 0.6 0.377 1.128 0.68 1.605l-1.013 1.645 1.583 1.583 1.667-1c0.449 0.248 0.973 0.474 1.519 0.649l0.564 1.934h2.167l0.5-1.917c0.6-0.147 1.128-0.377 1.605-0.68l1.645 1.013 1.583-1.583-1-1.667c0.248-0.449 0.474-0.973 0.649-1.519zM8.083 10.25c-1.289 0-2.333-1.045-2.333-2.333s1.045-2.333 2.333-2.333c1.289 0 2.333 1.045 2.333 2.333s-1.045 2.333-2.333 2.333c0 0 0 0 0 0z"></path>
</svg>
