<?xml version="1.0" encoding="utf-8"?>
<!-- Generator: Adobe Illustrator 19.1.0, SVG Export Plug-In . SVG Version: 6.00 Build 0)  -->
<svg version="1.1" id="Layer_1" xmlns="http://www.w3.org/2000/svg" xmlns:xlink="http://www.w3.org/1999/xlink" x="0px" y="0px"
	 viewBox="-451 255 52 52" style="enable-background:new -451 255 52 52;" xml:space="preserve">
<g>
	<polygon style="fill:#003359;" points="-404.9,262 -405.7,259.7 -425,266.9 -444.3,259.7 -445.1,262 -425,269.6 	"/>
	<path style="fill:#003359;" d="M-402.1,263.5c-0.4-0.2-0.9-0.2-1.1-0.2l-21.8,7.8l-21.6-7.8c-0.4-0.2-0.9,0-1.1,0.2
		c-0.4,0.2-0.6,0.6-0.6,1.1v28.3c0,0.4,0.4,1.1,0.9,1.2l22,8.1l0,0h0.2c0,0,0,0,0.2,0l0,0l0,0c0,0,0,0,0.2,0h0.2l0,0l22-8.1
		c0.4-0.2,0.9-0.6,0.9-1.2v-28.3C-401.7,264.2-401.9,263.7-402.1,263.5z M-426.2,299.1l-19.5-7.2v-25.6l19.5,7V299.1z M-404.2,292.1
		l-19.5,7.2v-26.1l19.5-7V292.1z"/>
</g>
</svg>
