<?xml version="1.0" encoding="utf-8"?>
<!-- Generated by IcoMoon.io -->
<!DOCTYPE svg PUBLIC "-//W3C//DTD SVG 1.1//EN" "http://www.w3.org/Graphics/SVG/1.1/DTD/svg11.dtd">
<svg version="1.1" xmlns="http://www.w3.org/2000/svg" xmlns:xlink="http://www.w3.org/1999/xlink" width="19" height="18" viewBox="0 0 19 18">
<path fill="#ffffff" d="M9.586 18c-0.107 0-0.32-0.107-0.426-0.213-0.32-0.32-7.349-6.923-8.734-10.757-0.32-0.533-0.426-1.278-0.426-1.917 0-2.876 2.343-5.112 5.112-5.112 1.917 0 3.621 1.065 4.473 2.663 0.852-1.598 2.556-2.663 4.473-2.663 2.876 0 5.112 2.237 5.112 5.112 0 0.639-0.107 1.385-0.426 2.024-1.385 3.834-8.414 10.438-8.734 10.757-0.107 0-0.32 0.107-0.426 0.107zM5.112 1.278c-2.13 0-3.834 1.704-3.834 3.834 0 0.533 0.107 1.065 0.32 1.491 1.172 3.089 6.497 8.414 7.988 9.905 1.598-1.491 6.923-6.817 7.988-9.905 0.213-0.533 0.32-1.065 0.32-1.491 0-2.13-1.704-3.834-3.834-3.834-2.024 0-3.834 1.704-3.834 3.728 0 0.32-0.32 0.639-0.639 0.639s-0.639-0.32-0.639-0.639c0-2.024-1.811-3.728-3.834-3.728z"></path>
</svg>
