<?xml version="1.0" encoding="utf-8"?>
<!-- Generator: Adobe Illustrator 19.2.0, SVG Export Plug-In . SVG Version: 6.00 Build 0)  -->
<svg version="1.1" id="Layer_1" xmlns="http://www.w3.org/2000/svg" xmlns:xlink="http://www.w3.org/1999/xlink" x="0px" y="0px"
	 viewBox="0 0 51 51" style="enable-background:new 0 0 51 51;" xml:space="preserve">
<style type="text/css">
	.st0{fill:#003359;}
</style>
<title>icon-about-about-52-52-darkblue</title>
<path class="st0" d="M25.5,49C12.5,49,2,38.5,2,25.5S12.5,2,25.5,2C38.5,2,49,12.5,49,25.5C49,38.5,38.5,49,25.5,49z M25.5,4.8
	c-11.4,0-20.7,9.3-20.7,20.7s9.3,20.7,20.7,20.7s20.7-9.3,20.7-20.7c0,0,0,0,0,0C46.2,14.1,36.9,4.8,25.5,4.8z"/>
<circle class="st0" cx="26.2" cy="15.9" r="1.6"/>
<polygon class="st0" points="30.9,34.7 27.6,34.7 24.6,34.7 21.3,34.7 21.3,34.7 21.3,33 21.3,32.8 24.6,32.8 24.6,21 21.3,21 
	21.3,20.6 21.3,19.2 21.3,18.9 24.6,18.9 27.6,18.9 27.6,32.8 30.9,32.8 30.9,33 30.9,33 "/>
</svg>
