<?xml version="1.0" encoding="utf-8"?>
<!-- Generated by IcoMoon.io -->
<!DOCTYPE svg PUBLIC "-//W3C//DTD SVG 1.1//EN" "http://www.w3.org/Graphics/SVG/1.1/DTD/svg11.dtd">
<svg version="1.1" xmlns="http://www.w3.org/2000/svg" xmlns:xlink="http://www.w3.org/1999/xlink" width="45" height="46" viewBox="0 0 45 46">
<path fill="#ffffff" d="M10.873 4.809h22.373v2.509h-22.373v-2.509z"></path>
<path fill="#ffffff" d="M43.282 46h-41.818c-0.836 0-1.464-0.627-1.464-1.255v-38.682c0-0.627 0.627-1.255 1.255-1.255h4.182v2.509h-2.927v36.173h39.309v-36.173h-3.345v-2.509h4.6c0.627 0 1.255 0.627 1.255 1.255v38.682c0.209 0.627-0.418 1.255-1.045 1.255z"></path>
<path fill="#ffffff" d="M8.155 10.873c-0.836 0-1.255-0.418-1.255-1.255v-8.364c0-0.627 0.418-1.255 1.255-1.255 0.627 0 1.255 0.627 1.255 1.255v8.364c0 0.836-0.627 1.255-1.255 1.255z"></path>
<path fill="#ffffff" d="M35.964 10.873c-0.627 0-1.255-0.627-1.255-1.255v-8.364c0-0.627 0.627-1.255 1.255-1.255s1.255 0.627 1.255 1.255v8.364c0 0.836-0.627 1.255-1.255 1.255z"></path>
<path fill="#ffffff" d="M12.545 33.036c-1.045-1.255-1.464-2.718-1.464-4.391h2.3c0 1.255 0.418 2.091 0.627 2.509 0.627 1.045 1.673 1.464 3.136 1.464 1.255 0 2.091-0.418 2.927-1.045 0.627-0.627 1.045-1.464 1.045-2.509 0-1.255-0.418-2.091-1.255-2.718-0.836-0.418-1.882-0.836-3.136-0.836-0.209 0-0.209 0-0.418 0s-0.418 0-0.418 0v-2.091c0.209 0 0.418 0 0.627 0s0.418 0 0.418 0c0.836 0 1.464-0.209 2.091-0.418 1.255 0 1.673-0.836 1.673-2.091 0-0.836-0.418-1.673-1.045-2.091s-1.255-0.836-2.091-0.836c-1.464 0-2.509 0.418-3.136 1.464-0.418 0.627-0.627 1.464-0.627 2.509h-2.3c0-1.464 0.209-2.509 0.836-3.555 0.836-1.673 2.509-2.509 4.809-2.509 1.882 0 3.345 0.418 4.391 1.255s1.464 2.091 1.464 3.555c0 1.045-0.209 2.091-0.836 2.718-0.418 0.418-0.836 0.836-1.464 1.045 1.045 0.209 1.673 0.836 2.3 1.464s0.836 1.673 0.836 2.718c0 1.673-0.627 3.136-1.673 4.182s-2.718 1.673-4.809 1.673c-2.3 0.209-3.973-0.418-4.809-1.464z"></path>
<path fill="#ffffff" d="M26.345 21.327v-1.673c1.673-0.209 2.718-0.418 3.555-0.836 0.627-0.418 1.045-1.255 1.464-2.718h1.882v18.191h-2.509v-12.964h-4.391z"></path>
</svg>
