<?xml version="1.0" encoding="utf-8"?>
<!-- Generated by IcoMoon.io -->
<!DOCTYPE svg PUBLIC "-//W3C//DTD SVG 1.1//EN" "http://www.w3.org/Graphics/SVG/1.1/DTD/svg11.dtd">
<svg version="1.1" xmlns="http://www.w3.org/2000/svg" xmlns:xlink="http://www.w3.org/1999/xlink" width="46" height="65" viewBox="0 0 46 65">
<path fill="#00729c" d="M17.022 56.476h12.008v3.299h-12.008v-3.299z"></path>
<path fill="#00729c" d="M17.022 61.701h12.008v3.299h-12.008v-3.299z"></path>
<path fill="#00729c" d="M22.933 0c-0.101-0.002-0.22-0.003-0.339-0.003-12.505 0-22.643 10.138-22.643 22.643 0 9.341 5.656 17.36 13.73 20.821l1.784 9.689h14.779l1.795-9.633c8.221-3.517 13.877-11.537 13.877-20.878 0-12.505-10.138-22.643-22.643-22.643-0.119 0-0.238 0.001-0.357 0.003zM25.942 27.341l-3.009 5.991-3.009-5.991-6.703-0.95 4.856-4.671-1.135-6.571 5.991 3.114 5.991-3.114-1.135 6.571 4.856 4.671z"></path>
</svg>
