<?xml version="1.0" encoding="utf-8"?>
<!-- Generated by IcoMoon.io -->
<!DOCTYPE svg PUBLIC "-//W3C//DTD SVG 1.1//EN" "http://www.w3.org/Graphics/SVG/1.1/DTD/svg11.dtd">
<svg version="1.1" xmlns="http://www.w3.org/2000/svg" xmlns:xlink="http://www.w3.org/1999/xlink" width="20" height="17" viewBox="0 0 20 17">
<path d="M19.64 0h-19.006c-0.317 0-0.634 0.317-0.634 0.634v13.093c0 0.317 0.317 0.634 0.634 0.634h2.323v1.901c0 0.211 0.211 0.528 0.422 0.634 0.106 0 0.211 0 0.211 0 0.211 0 0.317-0.106 0.422-0.211l2.323-2.323h13.199c0.317 0 0.634-0.317 0.634-0.634v-13.093c0.106-0.317-0.211-0.634-0.528-0.634zM18.901 12.988h-12.776c-0.211 0-0.317 0.106-0.422 0.211l-1.478 1.478v-0.95c0-0.317-0.317-0.634-0.634-0.634h-2.323v-11.826h17.634v11.721z" fill="#698bb1"></path>
</svg>
