<?xml version="1.0" encoding="utf-8"?>
<!-- Generated by IcoMoon.io -->
<!DOCTYPE svg PUBLIC "-//W3C//DTD SVG 1.1//EN" "http://www.w3.org/Graphics/SVG/1.1/DTD/svg11.dtd">
<svg version="1.1" xmlns="http://www.w3.org/2000/svg" xmlns:xlink="http://www.w3.org/1999/xlink" width="19" height="20" viewBox="0 0 19 20">
<path fill="#000000" d="M18.382 10.289l-3.931-4.509 3.931-4.509c0.231-0.231 0.231-0.462 0.116-0.809-0.116-0.231-0.347-0.462-0.694-0.462 0 0-15.723 0-15.723 0-0.347 0-0.694 0.347-0.694 0.694v17.919h-0.694c-0.347 0-0.694 0.347-0.694 0.694s0.347 0.694 0.694 0.694h2.89c0.347 0 0.694-0.347 0.694-0.694s-0.347-0.694-0.694-0.694h-0.694v-7.168h15.029c0.231 0 0.578-0.116 0.694-0.462 0-0.231 0-0.462-0.231-0.694zM2.89 10.058v-8.555h13.41l-3.237 3.815c-0.231 0.231-0.231 0.694 0 0.925l3.237 3.815h-13.41z"></path>
</svg>
