<?xml version="1.0" encoding="utf-8"?>
<!-- Generated by IcoMoon.io -->
<!DOCTYPE svg PUBLIC "-//W3C//DTD SVG 1.1//EN" "http://www.w3.org/Graphics/SVG/1.1/DTD/svg11.dtd">
<svg version="1.1" xmlns="http://www.w3.org/2000/svg" xmlns:xlink="http://www.w3.org/1999/xlink" width="21" height="20" viewBox="0 0 21 20">
<path fill="#fff" d="M21.403 5.327c0-0.021 0-0.046 0-0.071 0-2.955-2.396-5.351-5.351-5.351-2.93 0-5.311 2.355-5.351 5.276s-0 0.004-0 0.004c-0.089-2.885-2.45-5.19-5.348-5.19-2.955 0-5.351 2.396-5.351 5.351 0 0.745 0.152 1.454 0.427 2.098 1.616 4.472 10.272 12.533 10.272 12.533s8.656-8.062 10.273-12.568c0.269-0.614 0.426-1.329 0.428-2.080z"></path>
</svg>
