<?xml version="1.0" encoding="utf-8"?>
<!-- Generated by IcoMoon.io -->
<!DOCTYPE svg PUBLIC "-//W3C//DTD SVG 1.1//EN" "http://www.w3.org/Graphics/SVG/1.1/DTD/svg11.dtd">
<svg version="1.1" xmlns="http://www.w3.org/2000/svg" xmlns:xlink="http://www.w3.org/1999/xlink" width="95" height="65" viewBox="0 0 95 65">
<path fill="#00729c" d="M32.782 11.632c0 6.424-5.208 11.632-11.632 11.632s-11.632-5.208-11.632-11.632c0-6.424 5.208-11.632 11.632-11.632s11.632 5.208 11.632 11.632z"></path>
<path fill="#00729c" d="M34.157 26.86h-29.61c0 0 0 0 0 0-2.511 0-4.547 2.036-4.547 4.547s0 0.247 0 0.388 0 0.317 0 0.458v9.553h33.593c-1.105-2.023-1.755-4.431-1.755-6.991 0-2.953 0.864-5.703 2.354-8.013z"></path>
<path fill="#00729c" d="M85.656 11.632c0 6.424-5.208 11.632-11.632 11.632s-11.632-5.208-11.632-11.632c0-6.424 5.208-11.632 11.632-11.632s11.632 5.208 11.632 11.632z"></path>
<path fill="#00729c" d="M90.626 26.86h-28.94c1.466 2.258 2.338 5.020 2.338 7.985 0 2.548-0.644 4.946-1.777 7.039l32.926-0.078v-9.694s0-0.317 0-0.458 0-0.247 0-0.388c-0.078-2.45-2.083-4.406-4.545-4.406-0.001 0-0.002 0-0.002 0z"></path>
<path fill="#00729c" d="M59.078 34.826c0 6.424-5.208 11.632-11.632 11.632s-11.632-5.208-11.632-11.632c0-6.424 5.208-11.632 11.632-11.632s11.632 5.208 11.632 11.632z"></path>
<path fill="#00729c" d="M68.56 54.601c0-2.511-2.036-4.547-4.547-4.547h-33.205c0 0 0 0 0 0-2.511 0-4.547 2.036-4.547 4.547s0 0.247 0 0.388 0 0.317 0 0.458v9.553h42.299v-9.553s0-0.317 0-0.458 0-0.247 0-0.388z"></path>
</svg>
