<?xml version="1.0" encoding="utf-8"?>
<!-- Generated by IcoMoon.io -->
<!DOCTYPE svg PUBLIC "-//W3C//DTD SVG 1.1//EN" "http://www.w3.org/Graphics/SVG/1.1/DTD/svg11.dtd">
<svg version="1.1" xmlns="http://www.w3.org/2000/svg" xmlns:xlink="http://www.w3.org/1999/xlink" width="65" height="65" viewBox="0 0 65 65">
<path fill="#00729c" d="M28.41 23.265c0 4.981-4.038 9.019-9.019 9.019s-9.019-4.038-9.019-9.019c0-4.981 4.038-9.019 9.019-9.019s9.019 4.038 9.019 9.019z"></path>
<path fill="#00729c" d="M27.76 42.927s0-0.162 0-0.244c-0-0.008-0-0.018-0-0.027 0-2.758 2.228-4.995 4.982-5.010h2.899c-0.377-1.552-1.746-2.689-3.383-2.708h-25.731c-1.944 0-3.521 1.576-3.521 3.521 0 0 0 0 0 0s0 0.19 0 0.298 0 0.244 0 0.352v7.394h24.781v-3.142c-0.027-0.162-0.027-0.271-0.027-0.433z"></path>
<path fill="#00729c" d="M54.627 27.354c0 4.981-4.038 9.019-9.019 9.019s-9.019-4.038-9.019-9.019c0-4.981 4.038-9.019 9.019-9.019s9.019 4.038 9.019 9.019z"></path>
<path fill="#00729c" d="M61.994 42.683c0-1.944-1.576-3.521-3.521-3.521 0 0 0 0 0 0h-25.729c0 0 0 0 0 0-1.944 0-3.521 1.576-3.521 3.521 0 0 0 0 0 0s0 0.19 0 0.298 0 0.244 0 0.352v7.394h32.771v-7.367s0-0.244 0-0.352 0-0.217 0-0.325z"></path>
</svg>
