<?xml version="1.0" encoding="utf-8"?>
<!-- Generated by IcoMoon.io -->
<!DOCTYPE svg PUBLIC "-//W3C//DTD SVG 1.1//EN" "http://www.w3.org/Graphics/SVG/1.1/DTD/svg11.dtd">
<svg version="1.1" xmlns="http://www.w3.org/2000/svg" xmlns:xlink="http://www.w3.org/1999/xlink" width="18" height="18" viewBox="0 0 18 18">
<path fill="#fff" d="M9 3.375c-0.006-0-0.012-0-0.019-0-3.724 0-6.911 2.305-8.21 5.565 1.31 3.379 4.501 5.68 8.229 5.68s6.919-2.301 8.229-5.561c-1.3-3.38-4.486-5.685-8.21-5.685-0.007 0-0.013 0-0.020 0zM9 12.75c-2.071 0-3.75-1.679-3.75-3.75s1.679-3.75 3.75-3.75c2.071 0 3.75 1.679 3.75 3.75s-1.679 3.75-3.75 3.75zM9 6.75c-1.243 0-2.25 1.007-2.25 2.25s1.007 2.25 2.25 2.25c1.243 0 2.25-1.007 2.25-2.25 0-0.011 0-0.025 0-0.038 0-1.222-0.991-2.213-2.213-2.213-0.013 0-0.027 0-0.040 0z"></path>
</svg>
