<svg xmlns="http://www.w3.org/2000/svg" viewBox="0 0 20 18.27"><title>icon-resources-20-18-white</title><polygon points="18.64 1 18.27 0 10 3.09 1.73 0 1.36 1 10 4.27 18.64 1" style="fill:#f8f8f8"/><path d="M20.53,3.22a1,1,0,0,0-.45-0.09L10.72,6.49,1.44,3.13A0.4,0.4,0,0,0,1,3.22a0.5,0.5,0,0,0-.27.45V15.85a0.75,0.75,0,0,0,.36.55l9.45,3.45H10.9l9.45-3.45a0.61,0.61,0,0,0,.36-0.55V3.67A0.69,0.69,0,0,0,20.53,3.22ZM10.17,18.49L1.81,15.4V4.4l8.36,3V18.49Zm9.45-3-8.36,3.09V7.4l8.36-3V15.49Z" transform="translate(-0.72 -1.58)" style="fill:#f8f8f8"/></svg>