<?xml version="1.0" encoding="utf-8"?>
<!-- Generator: Adobe Illustrator 19.2.0, SVG Export Plug-In . SVG Version: 6.00 Build 0)  -->
<svg version="1.1" id="Layer_1" xmlns="http://www.w3.org/2000/svg" xmlns:xlink="http://www.w3.org/1999/xlink" x="0px" y="0px"
	 viewBox="0 0 41.5 32.1" style="enable-background:new 0 0 41.5 32.1;" xml:space="preserve">
<style type="text/css">
	.st0{fill:#003359;}
</style>
<title>icon-about-discussion-52-52-darkblue</title>
<path class="st0" d="M33.8,31.5c-0.3,0-0.6-0.1-0.8-0.4l-2.7-2.7H16.9c-0.6,0-1.1-0.5-1.1-1.1v-4H18v2.9h12.7c0.3,0,0.6,0.1,0.8,0.4
	l1.3,1.3v-0.5c0-0.6,0.5-1.1,1.1-1.1h4.7V12.8h-6.2v-2.2h7.3c0.6,0,1.1,0.5,1.1,1.1v15.6c0,0.6-0.5,1.1-1.1,1.1h-4.7v2
	c0.1,0.4-0.3,0.9-0.7,0.9c0,0,0,0,0,0C34.1,31.4,34,31.5,33.8,31.5z"/>
<path class="st0" d="M6.2,25.5H5.8c-0.4-0.2-0.7-0.5-0.8-0.9v-2.7H1.8c-0.6-0.1-1.1-0.7-1.1-1.3V1.7c0-0.6,0.5-1.1,1.1-1.1h27.6
	c0.6,0,1.1,0.5,1.1,1.1v18.9c0,0.6-0.5,1.1-1.1,1.1H10.4l-3.5,3.4C6.7,25.3,6.5,25.4,6.2,25.5z M2.9,19.7h3.3c0.6,0,1.1,0.5,1.1,1.1
	v1.1L9.1,20c0.2-0.2,0.5-0.3,0.8-0.4h18.5V2.8H2.9V19.7L2.9,19.7z"/>
</svg>
