<?xml version="1.0" encoding="utf-8"?>
<!-- Generated by IcoMoon.io -->
<!DOCTYPE svg PUBLIC "-//W3C//DTD SVG 1.1//EN" "http://www.w3.org/Graphics/SVG/1.1/DTD/svg11.dtd">
<svg version="1.1" xmlns="http://www.w3.org/2000/svg" xmlns:xlink="http://www.w3.org/1999/xlink" width="17" height="17" viewBox="0 0 17 17">
<path fill="#698bb1" d="M16.514 5.829l-1.781-3.157h-3.076l-1.538-2.671h-3.643l-1.538 2.671h-3.157l-1.781 3.157 1.538 2.671-1.538 2.671 1.781 3.157h3.076l1.619 2.671h3.643l1.538-2.671h3.076l1.781-3.157-1.538-2.671 1.538-2.671zM15.462 5.829l-1.295 2.186h-2.51l-1.295-2.186 1.295-2.186h2.51l1.295 2.186zM7.043 10.686l-1.295-2.186 1.295-2.186h2.51l1.295 2.186-1.295 2.186h-2.51zM7.043 0.971h2.51l1.295 2.186-1.295 2.186h-2.51l-1.295-2.186 1.295-2.186zM2.348 3.643h2.51l1.295 2.186-1.214 2.186h-2.59l-1.214-2.186 1.214-2.186zM1.133 11.171l1.295-2.186h2.51l1.295 2.186-1.295 2.186h-2.59l-1.214-2.186zM9.552 16.029h-2.51l-1.295-2.186 1.295-2.186h2.51l1.295 2.186-1.295 2.186zM14.167 13.357h-2.51l-1.295-2.186 1.295-2.186h2.51l1.295 2.186-1.295 2.186z"></path>
</svg>
