<?xml version="1.0" encoding="utf-8"?>
<!-- Generated by IcoMoon.io -->
<!DOCTYPE svg PUBLIC "-//W3C//DTD SVG 1.1//EN" "http://www.w3.org/Graphics/SVG/1.1/DTD/svg11.dtd">
<svg version="1.1" xmlns="http://www.w3.org/2000/svg" xmlns:xlink="http://www.w3.org/1999/xlink" width="20" height="20" viewBox="0 0 20 20">
<path fill="#ffffff" d="M9.333 11.238c-0.19 0-0.286-0.095-0.381-0.19-0.19-0.19-0.19-0.476-0.095-0.667l5.714-10.095c0-0.19 0.19-0.286 0.381-0.286s0.381 0 0.476 0.19l4.381 4.381c0.19 0.095 0.19 0.286 0.19 0.476s-0.095 0.286-0.286 0.381l-10.095 5.714c-0.095 0.095-0.19 0.095-0.286 0.095zM15.143 1.524l-4.381 7.714 7.714-4.381-3.333-3.333z"></path>
<path fill="#ffffff" d="M9.333 20c-5.143 0-9.333-4.19-9.333-9.333s4.19-9.333 9.333-9.333c0.952 0 1.905 0.19 2.857 0.476l-0.381 1.048c-0.762-0.286-1.619-0.381-2.476-0.381-4.571 0-8.19 3.714-8.19 8.19 0 4.571 3.714 8.19 8.19 8.19s8.19-3.714 8.19-8.19c0-0.857-0.095-1.714-0.381-2.476l1.048-0.381c0.286 0.952 0.476 1.905 0.476 2.857 0 5.143-4.19 9.333-9.333 9.333z"></path>
<path fill="#ffffff" d="M9.333 15.619c-2.762 0-4.952-2.19-4.952-4.952s2.19-4.952 4.952-4.952c0.095 0 0.19 0 0.286 0h0.095l-0.095 1.143h-0.19c-0.095 0-0.095 0-0.19 0-2.095 0-3.81 1.714-3.81 3.81s1.714 3.81 3.81 3.81 3.81-1.714 3.81-3.81c0-0.095 0-0.095 0-0.19v-0.19l1.143-0.095v0.095c0 0.095 0 0.19 0 0.286 0.095 2.857-2.095 5.048-4.857 5.048z"></path>
</svg>
