<?xml version="1.0" encoding="utf-8"?>
<!-- Generated by IcoMoon.io -->
<!DOCTYPE svg PUBLIC "-//W3C//DTD SVG 1.1//EN" "http://www.w3.org/Graphics/SVG/1.1/DTD/svg11.dtd">
<svg version="1.1" xmlns="http://www.w3.org/2000/svg" xmlns:xlink="http://www.w3.org/1999/xlink" width="19" height="20" viewBox="0 0 19 20">
<path fill="#ffffff" d="M4.727 2.091h9.727v1.091h-9.727v-1.091z"></path>
<path fill="#ffffff" d="M18.818 20h-18.182c-0.364 0-0.636-0.273-0.636-0.545v-16.818c0-0.273 0.273-0.545 0.545-0.545h1.818v1.091h-1.273v15.727h17.091v-15.727h-1.455v-1.091h2c0.273 0 0.545 0.273 0.545 0.545v16.818c0.091 0.273-0.182 0.545-0.455 0.545z"></path>
<path fill="#ffffff" d="M3.545 4.727c-0.364 0-0.545-0.182-0.545-0.545v-3.636c0-0.273 0.182-0.545 0.545-0.545 0.273 0 0.545 0.273 0.545 0.545v3.636c0 0.364-0.273 0.545-0.545 0.545z"></path>
<path fill="#ffffff" d="M15.636 4.727c-0.273 0-0.545-0.273-0.545-0.545v-3.636c0-0.273 0.273-0.545 0.545-0.545s0.545 0.273 0.545 0.545v3.636c0 0.364-0.273 0.545-0.545 0.545z"></path>
<path fill="#ffffff" d="M5.455 14.364c-0.455-0.545-0.636-1.182-0.636-1.909h1c0 0.545 0.182 0.909 0.273 1.091 0.273 0.455 0.727 0.636 1.364 0.636 0.545 0 0.909-0.182 1.273-0.455 0.273-0.273 0.455-0.636 0.455-1.091 0-0.545-0.182-0.909-0.545-1.182-0.364-0.182-0.818-0.364-1.364-0.364-0.091 0-0.091 0-0.182 0s-0.182 0-0.182 0v-0.909c0.091 0 0.182 0 0.273 0s0.182 0 0.182 0c0.364 0 0.636-0.091 0.909-0.182 0.545 0 0.727-0.364 0.727-0.909 0-0.364-0.182-0.727-0.455-0.909s-0.545-0.364-0.909-0.364c-0.636 0-1.091 0.182-1.364 0.636-0.182 0.273-0.273 0.636-0.273 1.091h-1c0-0.636 0.091-1.091 0.364-1.545 0.364-0.727 1.091-1.091 2.091-1.091 0.818 0 1.455 0.182 1.909 0.545s0.636 0.909 0.636 1.545c0 0.455-0.091 0.909-0.364 1.182-0.182 0.182-0.364 0.364-0.636 0.455 0.455 0.091 0.727 0.364 1 0.636s0.364 0.727 0.364 1.182c0 0.727-0.273 1.364-0.727 1.818s-1.182 0.727-2.091 0.727c-1 0.091-1.727-0.182-2.091-0.636z"></path>
<path fill="#ffffff" d="M11.455 9.273v-0.727c0.727-0.091 1.182-0.182 1.545-0.364 0.273-0.182 0.455-0.545 0.636-1.182h0.818v7.909h-1.091v-5.636h-1.909z"></path>
</svg>
