<?xml version="1.0" encoding="utf-8"?>
<!-- Generated by IcoMoon.io -->
<!DOCTYPE svg PUBLIC "-//W3C//DTD SVG 1.1//EN" "http://www.w3.org/Graphics/SVG/1.1/DTD/svg11.dtd">
<svg version="1.1" xmlns="http://www.w3.org/2000/svg" xmlns:xlink="http://www.w3.org/1999/xlink" width="65" height="65" viewBox="0 0 65 65">
<path fill="#00729c" d="M32.515 0c0 0 0 0 0 0-17.957 0-32.515 14.557-32.515 32.515s14.557 32.515 32.515 32.515c17.957 0 32.515-14.557 32.515-32.515s-14.557-32.515-32.515-32.515c0 0 0 0 0 0zM32.515 61.903c-16.231 0-29.388-13.158-29.388-29.388s13.158-29.388 29.388-29.388c16.231 0 29.388 13.158 29.388 29.388 0 0 0 0 0 0 0 16.231-13.158 29.388-29.388 29.388z"></path>
<path fill="#00729c" d="M33.527 34.688v6.789c0.489-0.060 0.933-0.164 1.356-0.312 0.422-0.146 0.827-0.368 1.184-0.648 0.351-0.279 0.65-0.625 0.875-1.018 0.234-0.426 0.367-0.914 0.367-1.432 0-0.015-0-0.031-0-0.046 0.004-0.049 0.006-0.109 0.006-0.17 0-0.752-0.336-1.426-0.866-1.879-0.836-0.58-1.812-1.023-2.863-1.272z"></path>
<path fill="#00729c" d="M29.24 24.029c-0.3 0.248-0.542 0.556-0.708 0.907-0.176 0.379-0.275 0.803-0.275 1.251 0 0.016 0 0.032 0 0.047-0.002 0.033-0.003 0.075-0.003 0.117 0 0.662 0.288 1.257 0.745 1.665 0.69 0.502 1.515 0.859 2.41 1.010l0.034-5.653c-0.415 0-0.814 0.065-1.189 0.186-0.37 0.089-0.718 0.254-1.023 0.475z"></path>
<path fill="#00729c" d="M32.515 6.164c0 0 0 0 0 0-14.553 0-26.351 11.798-26.351 26.351s11.798 26.351 26.351 26.351c14.553 0 26.351-11.798 26.351-26.351 0 0 0 0 0 0 0-14.553-11.798-26.351-26.351-26.351zM41.954 40.167c-0.321 0.901-0.797 1.675-1.403 2.327-0.756 0.814-1.653 1.492-2.652 1.996-1.324 0.647-2.81 1.036-4.38 1.096l-0.021 2.978h-2.084v-2.978c-0.054 0.001-0.117 0.002-0.181 0.002-4.736 0-8.575-3.839-8.575-8.575 0-0.063 0.001-0.127 0.002-0.19l4.972 0.009c-0.008 0.097-0.012 0.21-0.012 0.325 0 1.1 0.411 2.103 1.088 2.866 0.698 0.747 1.628 1.278 2.675 1.479l0.031-7.379-0.476-0.149-0.655-0.149c-0.863-0.238-1.727-0.506-2.59-0.834-0.877-0.326-1.636-0.759-2.31-1.294-0.647-0.517-1.188-1.172-1.575-1.919-0.395-0.829-0.617-1.762-0.617-2.748 0-0.093 0.002-0.185 0.006-0.276-0.002-0.034-0.002-0.089-0.002-0.144 0-2.136 0.969-4.045 2.492-5.312 0.754-0.626 1.625-1.122 2.573-1.451 0.931-0.334 1.943-0.557 2.995-0.64l0.041-2.712h2.084v2.71c1.103 0.119 2.111 0.36 3.065 0.713 0.862 0.31 1.682 0.784 2.396 1.381 0.696 0.604 1.276 1.346 1.696 2.182 0.469 0.972 0.75 2.062 0.792 3.212l-5.002 0.014c-0.002-0.923-0.34-1.767-0.897-2.417-0.48-0.596-1.216-0.978-2.041-0.978-0.003 0-0.006 0-0.010 0l0.001 6.253 0.863 0.208 0.953 0.238c1.527 0.365 2.87 0.971 4.062 1.784 0.793 0.559 1.487 1.282 2.024 2.116 0.427 0.677 0.712 1.443 0.819 2.265 0.021 0.331 0.031 0.685 0.031 1.041s-0.010 0.71-0.030 1.061c0.013 0.092 0.019 0.257 0.019 0.422 0 0.519-0.060 1.025-0.175 1.509z"></path>
</svg>
