<?xml version="1.0" encoding="utf-8"?>
<!-- Generator: Adobe Illustrator 19.1.0, SVG Export Plug-In . SVG Version: 6.00 Build 0)  -->
<svg version="1.1" id="Layer_1" xmlns="http://www.w3.org/2000/svg" xmlns:xlink="http://www.w3.org/1999/xlink" x="0px" y="0px"
	 viewBox="-484 253.9 54 54" style="enable-background:new -484 253.9 54 54;" xml:space="preserve">
<g>
	<polygon style="fill:#003359;" points="-434.1,259.3 -435,256.7 -457,264.9 -479,256.7 -479.9,259.3 -457,268 	"/>
	<path style="fill:#003359;" d="M-430.9,261c-0.5-0.2-1-0.2-1.2-0.2l-24.9,8.9l-24.6-8.9c-0.5-0.2-1,0-1.2,0.2
		c-0.5,0.2-0.7,0.7-0.7,1.2v32.3c0,0.5,0.5,1.2,1,1.4l25.1,9.2l0,0h0.2c0,0,0,0,0.2,0l0,0l0,0c0,0,0,0,0.2,0h0.2l0,0l25.1-9.2
		c0.5-0.2,1-0.7,1-1.4v-32.3C-430.4,261.8-430.7,261.3-430.9,261z M-458.4,301.6l-22.2-8.2v-29.2l22.2,8V301.6z M-433.3,293.6
		l-22.2,8.2v-29.7l22.2-8V293.6z"/>
</g>
</svg>
