<?xml version="1.0" encoding="utf-8"?>
<!-- Generator: Adobe Illustrator 19.1.0, SVG Export Plug-In . SVG Version: 6.00 Build 0)  -->
<svg version="1.1" id="Layer_1" xmlns="http://www.w3.org/2000/svg" xmlns:xlink="http://www.w3.org/1999/xlink" x="0px" y="0px"
	 viewBox="0 0 53.4 53.1" style="enable-background:new 0 0 53.4 53.1;" xml:space="preserve">
<path style="fill:#7090B7;" d="M23.9,27.6c7.6,0,13.8-6.2,13.8-13.8c0-7.6-6.2-13.8-13.8-13.8c-7.6,0-13.8,6.2-13.8,13.8
	C10.1,21.4,16.3,27.6,23.9,27.6z M23.9,2.9c6,0,10.9,4.9,10.9,10.9c0,6-4.9,10.9-10.9,10.9c-6,0-10.9-4.9-10.9-10.9
	C13.1,7.8,17.9,2.9,23.9,2.9z"/>
<path style="fill:#7090B7;" d="M3,44.3c0,0,0-9.3,0-9.3l0-0.3c0-1.8,1.5-3.4,3.4-3.4h35.2c0.9,0,1.7,0.4,2.4,1h3.5
	c-0.9-2.3-3.2-3.9-5.8-3.9H6.3c-3.5,0-6.3,2.8-6.3,6.4c0,0.1,0,0.3,0,0.2c0,0.2,0,0.3,0,0.6v10.1c0,0.8,0.7,1.5,1.5,1.5h30.7v-3H3z"
	/>
<g>
	<path style="fill:#7090B7;" d="M49.3,43.5c0,0.5-0.1,1-0.6,1h-4.1v4.1c0,0.5-0.5,0.6-1,0.6c-0.5,0-1,0-1-0.6v-4.1h-4.1
		c-0.5,0-0.6-0.4-0.6-1c0-0.5,0-1,0.6-1h4.1v-4.1c0-0.5,0.4-0.6,1-0.6c0.5,0,1,0,1,0.6v4.1h4.1C49.3,42.5,49.3,42.9,49.3,43.5z"/>
</g>
<g>
	<path style="fill:#7090B7;" d="M48.1,53.1H34.1V33.8h19.4v14.1C53.4,50.8,51,53.1,48.1,53.1z M36.1,51.1h12.1
		c1.8,0,3.3-1.5,3.3-3.3V35.8H36.1V51.1z"/>
</g>
</svg>
