<?xml version="1.0" encoding="utf-8"?>
<!-- Generator: Adobe Illustrator 19.1.0, SVG Export Plug-In . SVG Version: 6.00 Build 0)  -->
<svg version="1.1" id="Layer_1" xmlns="http://www.w3.org/2000/svg" xmlns:xlink="http://www.w3.org/1999/xlink" x="0px" y="0px"
	 viewBox="0 0 44.8 60.5" style="enable-background:new 0 0 44.8 60.5;" xml:space="preserve">
<g>
	<g>
		<rect x="17" y="52.7" style="fill:#7090B7;" width="10.9" height="3"/>
	</g>
	<g>
		<rect x="17" y="57.5" style="fill:#7090B7;" width="10.9" height="3"/>
	</g>
	<g>
		<path style="fill:#7090B7;" d="M30.3,51.2H14.3L12.8,42C5,38.4,0,30.6,0,22.1C0,9.9,10,0,22.4,0c12.4,0,22.4,9.9,22.4,22.1
			c0,8.6-5,16.3-12.8,20L30.3,51.2z M16.9,48.2h10.9l1.6-8.3l0.7-0.3c7.1-3,11.7-9.9,11.7-17.5C41.8,11.6,33.1,3,22.4,3
			C11.7,3,3,11.6,3,22.1c0,7.6,4.6,14.5,11.7,17.5l0.8,0.3L16.9,48.2z M22.4,35.1l-3.7-7.4l-8.4-1.2l6-5.8L15,12.5l7.4,3.9l7.4-3.9
			l-1.4,8.2l6,5.8l-8.4,1.2L22.4,35.1z M16.8,24.4l3.8,0.5l1.7,3.5l1.7-3.5l3.8-0.5l-2.8-2.7l0.7-3.8l-3.5,1.8l-3.5-1.8l0.7,3.8
			L16.8,24.4z"/>
	</g>
</g>
</svg>
