<?xml version="1.0" encoding="utf-8"?>
<!-- Generated by IcoMoon.io -->
<!DOCTYPE svg PUBLIC "-//W3C//DTD SVG 1.1//EN" "http://www.w3.org/Graphics/SVG/1.1/DTD/svg11.dtd">
<svg version="1.1" xmlns="http://www.w3.org/2000/svg" xmlns:xlink="http://www.w3.org/1999/xlink" width="22" height="18" viewBox="0 0 22 18">
<path fill="#fff" d="M3.831 17.989c-0.352 0-0.637-0.285-0.637-0.637 0 0 0 0 0 0v-2.158h-2.558c-0.352 0-0.637-0.285-0.637-0.637 0 0 0 0 0 0v-13.921c0-0.352 0.285-0.637 0.637-0.637 0 0 0 0 0 0h20.32c0.352 0 0.637 0.285 0.637 0.637 0 0 0 0 0 0v13.975c0 0.352-0.285 0.637-0.637 0.637 0 0 0 0 0 0h-14.147l-2.525 2.568c-0.114 0.107-0.267 0.173-0.436 0.173-0.006 0-0.012-0-0.018-0zM1.273 13.964h2.558c0.352 0 0.637 0.285 0.637 0.637 0 0 0 0 0 0v1.209l1.629-1.651c0.115-0.119 0.275-0.193 0.453-0.194h13.781v-12.701h-19.058v12.701z"></path>
</svg>
