<?xml version="1.0" encoding="utf-8"?>
<!-- Generated by IcoMoon.io -->
<!DOCTYPE svg PUBLIC "-//W3C//DTD SVG 1.1//EN" "http://www.w3.org/Graphics/SVG/1.1/DTD/svg11.dtd">
<svg version="1.1" xmlns="http://www.w3.org/2000/svg" xmlns:xlink="http://www.w3.org/1999/xlink" width="71" height="73" viewBox="0 0 71 73">
<path fill="#ed7d3a" d="M17.141 7.461h35.593v4.033h-35.593v-4.033z"></path>
<path fill="#ed7d3a" d="M68.564 73h-66.547c-1.109 0-2.017-0.907-2.017-2.017v-61.505c0-1.109 0.907-2.017 2.017-2.017h6.554v4.033h-4.537v57.372h62.514v-57.372h-5.243v-4.033h7.26c1.109 0 2.017 0.907 2.017 2.017v61.405c0 1.21-0.907 2.117-2.017 2.117z"></path>
<path fill="#ed7d3a" d="M12.906 17.343c-1.109 0-2.017-0.907-2.017-2.017v-13.309c0-1.109 0.907-2.017 2.017-2.017s2.017 0.907 2.017 2.017v13.309c0 1.109-0.907 2.017-2.017 2.017z"></path>
<path fill="#ed7d3a" d="M56.968 17.343c-1.109 0-2.017-0.907-2.017-2.017v-13.309c0-1.109 0.907-2.017 2.017-2.017v0c1.109 0 2.017 0.907 2.017 2.017v13.309c0 1.109-0.907 2.017-2.017 2.017v0z"></path>
</svg>
