<?xml version="1.0" encoding="utf-8"?>
<!-- Generated by IcoMoon.io -->
<!DOCTYPE svg PUBLIC "-//W3C//DTD SVG 1.1//EN" "http://www.w3.org/Graphics/SVG/1.1/DTD/svg11.dtd">
<svg version="1.1" xmlns="http://www.w3.org/2000/svg" xmlns:xlink="http://www.w3.org/1999/xlink" width="18" height="18" viewBox="0 0 18 18">
<path fill="#ffffff" d="M14.977 0h-11.953c-1.663 0-3.023 1.361-3.023 3.023v11.953c0 1.663 1.361 3.023 3.023 3.023h11.953c1.663 0 3.023-1.361 3.023-3.023v-11.953c0-1.663-1.361-3.023-3.023-3.023zM6.75 14.625h-2.25v-7.875h2.25v7.875zM5.625 5.625c-0.621 0-1.125-0.504-1.125-1.125s0.504-1.125 1.125-1.125 1.125 0.504 1.125 1.125-0.504 1.125-1.125 1.125zM14.625 14.625h-2.25v-4.5c0-0.621-0.504-1.125-1.125-1.125s-1.125 0.504-1.125 1.125v4.5h-2.25v-7.875h2.25v1.397c0.464-0.637 1.173-1.397 1.969-1.397 1.398 0 2.531 1.259 2.531 2.813v5.063z"></path>
</svg>
