<?xml version="1.0" encoding="utf-8"?>
<!-- Generator: Adobe Illustrator 19.1.0, SVG Export Plug-In . SVG Version: 6.00 Build 0)  -->
<!DOCTYPE svg PUBLIC "-//W3C//DTD SVG 1.1//EN" "http://www.w3.org/Graphics/SVG/1.1/DTD/svg11.dtd">
<svg version="1.1" id="Layer_1" xmlns="http://www.w3.org/2000/svg" xmlns:xlink="http://www.w3.org/1999/xlink" x="0px" y="0px"
	 viewBox="-215 379 179.1 36" style="enable-background:new -215 379 179.1 36;" xml:space="preserve">
<style type="text/css">
	.st0{fill:#FFFFFF;}
</style>
<g>
	<g>
		<polygon class="st0" points="-198.5,390.8 -191.4,379.1 -205.7,379.1 		"/>
		<polygon class="st0" points="-215,379.1 -215,414.8 -204.2,397 		"/>
		<polygon class="st0" points="-198.5,403.1 -191.4,414.8 -205.7,414.8 		"/>
	</g>
	<g>
		<path class="st0" d="M-176.6,387.7c0.3,0,0.6,0,0.9-0.1s0.5-0.1,0.7-0.2v-1.6h-1c-0.2,0-0.3,0-0.4-0.1c-0.1-0.1-0.1-0.2-0.1-0.3
			v-1.3h3.7v4.3c-0.3,0.2-0.5,0.4-0.8,0.5s-0.6,0.3-0.9,0.3c-0.3,0.1-0.7,0.2-1,0.2c-0.4,0-0.8,0.1-1.2,0.1c-0.8,0-1.5-0.1-2.1-0.4
			c-0.6-0.3-1.2-0.6-1.7-1.1s-0.8-1-1.1-1.7c-0.3-0.6-0.4-1.3-0.4-2c0-0.8,0.1-1.5,0.4-2.1c0.3-0.6,0.6-1.2,1.1-1.7s1-0.8,1.7-1.1
			c0.6-0.3,1.4-0.4,2.2-0.4c0.4,0,0.8,0,1.2,0.1c0.4,0.1,0.7,0.2,1,0.3c0.3,0.1,0.6,0.3,0.9,0.4c0.3,0.2,0.5,0.4,0.7,0.6l-0.7,1.1
			c-0.1,0.1-0.1,0.2-0.2,0.2c-0.1,0.1-0.2,0.1-0.3,0.1s-0.3,0-0.4-0.1c-0.2-0.1-0.4-0.2-0.5-0.3c-0.2-0.1-0.3-0.1-0.5-0.2
			c-0.2-0.1-0.4-0.2-0.6-0.2s-0.4,0-0.7,0c-0.4,0-0.9,0.1-1.2,0.2c-0.4,0.2-0.7,0.4-0.9,0.7c-0.2,0.3-0.4,0.6-0.6,1
			c-0.2,0.4-0.2,0.9-0.2,1.3c0,0.5,0.1,1,0.2,1.5c0.2,0.4,0.4,0.8,0.6,1.1c0.3,0.3,0.6,0.5,0.9,0.7
			C-177.4,387.6-177,387.7-176.6,387.7z"/>
		<path class="st0" d="M-169,387.5h3.8v1.9h-6.2v-10.3h2.4V387.5z"/>
		<path class="st0" d="M-154.5,384.3c0,0.7-0.1,1.4-0.4,2.1c-0.3,0.6-0.6,1.1-1.1,1.6s-1,0.8-1.7,1.1c-0.7,0.3-1.4,0.4-2.2,0.4
			c-0.8,0-1.5-0.1-2.2-0.4c-0.7-0.3-1.2-0.6-1.7-1.1s-0.8-1-1.1-1.7c-0.3-0.6-0.4-1.3-0.4-2.1c0-0.7,0.1-1.4,0.4-2.1
			c0.3-0.6,0.6-1.2,1.1-1.7s1-0.8,1.7-1.1c0.7-0.2,1.4-0.3,2.2-0.3c0.8,0,1.5,0.1,2.2,0.4c0.7,0.3,1.2,0.6,1.7,1.1s0.8,1,1.1,1.7
			C-154.6,382.9-154.5,383.5-154.5,384.3z M-157,384.3c0-0.5-0.1-1-0.2-1.4c-0.1-0.4-0.3-0.8-0.6-1c-0.2-0.3-0.6-0.5-0.9-0.7
			c-0.3-0.2-0.7-0.2-1.2-0.2s-0.9,0.1-1.2,0.2c-0.4,0.2-0.7,0.4-0.9,0.7c-0.2,0.3-0.4,0.6-0.6,1s-0.2,0.9-0.2,1.4s0.1,1,0.2,1.4
			c0.1,0.4,0.3,0.8,0.6,1c0.2,0.3,0.6,0.5,0.9,0.6c0.4,0.1,0.8,0.2,1.2,0.2c0.5,0,0.9-0.1,1.2-0.2c0.4-0.1,0.7-0.3,1-0.6
			c0.2-0.3,0.4-0.6,0.6-1C-157,385.2-157,384.8-157,384.3z"/>
		<path class="st0" d="M-153.4,389.4v-10.3h3.8c0.7,0,1.3,0.1,1.8,0.2c0.5,0.1,0.9,0.3,1.2,0.6c0.3,0.2,0.5,0.5,0.7,0.9
			c0.1,0.3,0.2,0.7,0.2,1.2c0,0.2,0,0.5-0.1,0.7c0,0.1-0.1,0.3-0.2,0.5c-0.1,0.2-0.3,0.4-0.5,0.5c-0.2,0.1-0.6,0.3-0.9,0.4
			c0.7,0.2,1.2,0.4,1.5,0.8c0.3,0.4,0.5,0.8,0.5,1.4c0,0.4-0.1,0.8-0.3,1.2c-0.2,0.4-0.4,0.7-0.7,1c-0.3,0.3-0.7,0.5-1.2,0.7
			c-0.5,0.2-1,0.2-1.6,0.2H-153.4z M-151,383.4h1.2c0.3,0,0.5,0,0.7-0.1c0.2,0,0.4-0.1,0.5-0.2s0.3-0.2,0.3-0.4
			c0.2-0.1,0.3-0.3,0.3-0.5c0-0.2,0-0.4-0.1-0.6c-0.1-0.2-0.2-0.3-0.3-0.4c-0.1-0.1-0.3-0.2-0.5-0.2c-0.2,0-0.4-0.1-0.7-0.1h-1.4
			V383.4z M-151,385v2.6h1.7c0.3,0,0.6,0,0.8-0.1c0.2-0.1,0.4-0.2,0.5-0.3c0.1-0.1,0.2-0.3,0.2-0.4c0-0.2,0.1-0.3,0.1-0.5
			c0-0.2,0-0.4-0.1-0.5c0-0.2-0.1-0.3-0.3-0.4c-0.1-0.1-0.3-0.2-0.5-0.2s-0.4-0.2-0.7-0.2H-151z"/>
		<path class="st0" d="M-134.8,389.4h-1.9c-0.2,0-0.4,0-0.5-0.1c-0.1-0.1-0.2-0.2-0.3-0.4l-0.6-1.8h-3.9l-0.6,1.8
			c0,0.1-0.1,0.3-0.3,0.4c-0.1,0.1-0.3,0.2-0.5,0.2h-1.9l4-10.3h2.4L-134.8,389.4z M-141.5,385.5h2.8l-0.9-2.8
			c-0.1-0.2-0.1-0.4-0.2-0.6c-0.1-0.3-0.2-0.6-0.2-0.9c-0.1,0.3-0.2,0.6-0.2,0.8c-0.1,0.2-0.2,0.5-0.2,0.6L-141.5,385.5z"/>
		<path class="st0" d="M-131.5,387.5h3.8v1.9h-6.2v-10.3h2.4C-131.5,379.1-131.5,387.5-131.5,387.5z"/>
		<path class="st0" d="M-120.5,389.4h-2.4v-10.3h2.4V389.4z"/>
		<path class="st0" d="M-117.2,379.1c0.1,0,0.1,0,0.2,0.1c0.1,0,0.1,0.1,0.2,0.1s0.1,0.1,0.2,0.2l4.9,6.2c0-0.2,0-0.4,0-0.6
			c0-0.2,0-0.4,0-0.5v-5.5h2.1v10.3h-1.2c-0.2,0-0.3,0-0.5-0.1c-0.1-0.1-0.2-0.2-0.4-0.3l-4.9-6.1c0,0.2,0,0.4,0,0.5
			c0,0.2,0,0.3,0,0.5v5.5h-2.1v-10.3h1.3C-117.3,379.1-117.2,379.1-117.2,379.1z"/>
		<path class="st0" d="M-106.4,379.1c0.1,0,0.1,0,0.2,0.1c0.1,0,0.1,0.1,0.2,0.1s0.1,0.1,0.2,0.2l4.9,6.2c0-0.2,0-0.4,0-0.6
			c0-0.2,0-0.4,0-0.5v-5.5h2.1v10.3h-1.2c-0.2,0-0.3,0-0.5-0.1c-0.1-0.1-0.2-0.2-0.4-0.3l-4.9-6.1c0,0.2,0,0.4,0,0.5
			c0,0.2,0,0.3,0,0.5v5.5h-2.2v-10.3h1.3C-106.6,379.1-106.5,379.1-106.4,379.1z"/>
		<path class="st0" d="M-87.1,384.3c0,0.7-0.1,1.4-0.4,2.1c-0.3,0.6-0.6,1.2-1.1,1.7s-1,0.8-1.7,1.1c-0.7,0.3-1.4,0.4-2.2,0.4
			c-0.8,0-1.5-0.1-2.2-0.4c-0.7-0.3-1.2-0.6-1.7-1.1s-0.8-1-1.1-1.7c-0.3-0.6-0.4-1.3-0.4-2.1c0-0.7,0.1-1.4,0.4-2.1
			c0.3-0.6,0.6-1.2,1.1-1.7s1-0.8,1.7-1.1c0.7-0.3,1.4-0.4,2.2-0.4c0.8,0,1.5,0.1,2.2,0.4c0.7,0.3,1.2,0.6,1.7,1.1s0.8,1,1.1,1.7
			C-87.2,382.8-87.1,383.5-87.1,384.3z M-89.6,384.3c0-0.5-0.1-1-0.2-1.4s-0.3-0.8-0.6-1c-0.2-0.3-0.6-0.5-0.9-0.7
			c-0.3-0.2-0.7-0.2-1.2-0.2s-0.9,0.1-1.2,0.2c-0.4,0.2-0.7,0.4-0.9,0.7c-0.2,0.3-0.4,0.6-0.6,1s-0.2,0.9-0.2,1.4s0.1,1,0.2,1.4
			c0.1,0.4,0.3,0.8,0.6,1c0.2,0.3,0.6,0.5,0.9,0.6c0.4,0.1,0.8,0.2,1.2,0.2c0.5,0,0.9-0.1,1.2-0.2c0.4-0.1,0.7-0.4,0.9-0.6
			c0.2-0.3,0.4-0.6,0.6-1C-89.6,385.2-89.6,384.8-89.6,384.3z"/>
		<path class="st0" d="M-87.5,379.1h1.9c0.2,0,0.4,0,0.5,0.1c0.1,0.1,0.2,0.2,0.3,0.4l2,5.5c0.1,0.2,0.2,0.5,0.3,0.8
			c0.1,0.3,0.2,0.6,0.3,0.9c0.1-0.3,0.1-0.6,0.2-0.9c0.1-0.3,0.2-0.5,0.3-0.8l2-5.5c0-0.1,0.1-0.3,0.3-0.4c0.1-0.1,0.3-0.2,0.5-0.2
			h1.9l-4.1,10.3h-2.2L-87.5,379.1z"/>
		<path class="st0" d="M-68.5,389.4h-1.9c-0.2,0-0.4,0-0.5-0.1c-0.1-0.1-0.2-0.2-0.3-0.4l-0.6-1.8h-3.9l-0.6,1.8
			c0,0.1-0.1,0.3-0.3,0.4c-0.1,0.1-0.3,0.2-0.5,0.2H-79l4-10.3h2.4L-68.5,389.4z M-75.1,385.5h2.8l-0.9-2.8
			c-0.1-0.2-0.1-0.4-0.2-0.6c-0.1-0.2-0.2-0.5-0.2-0.8c-0.1,0.3-0.2,0.6-0.2,0.8c-0.1,0.2-0.2,0.5-0.2,0.6L-75.1,385.5z"/>
		<path class="st0" d="M-61.5,379.1v1.9h-2.9v8.4h-2.4V381h-2.9v-1.9H-61.5z"/>
		<path class="st0" d="M-58.1,389.4h-2.4v-10.3h2.4V389.4z"/>
		<path class="st0" d="M-46.1,384.3c0,0.7-0.1,1.4-0.4,2.1c-0.3,0.6-0.6,1.2-1.1,1.7s-1,0.8-1.7,1.1c-0.7,0.3-1.4,0.4-2.2,0.4
			s-1.5-0.1-2.2-0.4c-0.7-0.3-1.2-0.6-1.7-1.1s-0.8-1-1.1-1.7c-0.3-0.6-0.4-1.3-0.4-2.1c0-0.7,0.1-1.4,0.4-2.1
			c0.3-0.6,0.6-1.2,1.1-1.7s1-0.8,1.7-1.1c0.7-0.3,1.4-0.4,2.2-0.4s1.5,0.1,2.2,0.4c0.7,0.3,1.2,0.6,1.7,1.1s0.8,1,1.1,1.7
			C-46.2,382.9-46.1,383.5-46.1,384.3z M-48.6,384.3c0-0.5-0.1-1-0.2-1.4c-0.1-0.4-0.3-0.8-0.6-1c-0.2-0.3-0.6-0.5-0.9-0.7
			c-0.3-0.2-0.7-0.2-1.2-0.2s-0.9,0.1-1.2,0.2c-0.4,0.2-0.7,0.4-0.9,0.7c-0.2,0.3-0.4,0.6-0.6,1s-0.2,0.9-0.2,1.4s0.1,1,0.2,1.4
			c0.1,0.4,0.3,0.8,0.6,1c0.2,0.3,0.6,0.5,0.9,0.6c0.4,0.1,0.8,0.2,1.2,0.2c0.5,0,0.9-0.1,1.2-0.2c0.4-0.1,0.7-0.4,0.9-0.6
			c0.2-0.3,0.4-0.6,0.6-1C-48.6,385.2-48.6,384.8-48.6,384.3z"/>
		<path class="st0" d="M-43.4,379.1c0.1,0,0.1,0,0.2,0.1c0.1,0.1,0.1,0.1,0.2,0.1c0.1,0,0.1,0.1,0.2,0.2l4.9,6.2c0-0.2,0-0.4,0-0.6
			c0-0.2,0-0.4,0-0.5v-5.5h2.1v10.3H-37c-0.2,0-0.3,0-0.5-0.1c-0.1-0.1-0.2-0.2-0.4-0.3l-4.9-6.1c0,0.2,0,0.4,0,0.5
			c0,0.2,0,0.3,0,0.5v5.5H-45v-10.3h1.3C-43.6,379.1-43.5,379.1-43.4,379.1z"/>
	</g>
	<g>
		<path class="st0" d="M-169,394.6v3.6h-8.3v4.7h6.3v3.5h-6.3v4.8h8.3v3.6h-13v-20.2H-169z"/>
		<path class="st0" d="M-161.3,404.4l-6.2-9.8h4.7c0.3,0,0.5,0,0.7,0.1c0.1,0.1,0.3,0.2,0.4,0.4l4,6.8c0-0.1,0.1-0.2,0.2-0.3
			s0.1-0.2,0.2-0.3l3.5-6c0.2-0.4,0.5-0.6,0.9-0.6h4.5l-6.3,9.6l6.5,10.6h-4.8c-0.3,0-0.6-0.1-0.7-0.2c-0.2-0.1-0.3-0.3-0.4-0.5
			l-4-7.1c-0.1,0.2-0.2,0.4-0.2,0.5l-4,6.4c-0.1,0.2-0.3,0.4-0.4,0.5c-0.2,0.2-0.4,0.2-0.7,0.2h-4.4L-161.3,404.4z"/>
		<path class="st0" d="M-134.5,409.6c0.1,0,0.2,0,0.3,0.1c0.1,0,0.2,0.1,0.3,0.2l1.9,2c-0.8,1.1-1.8,1.9-3.1,2.4
			c-1.2,0.5-2.7,0.8-4.3,0.8c-1.5,0-2.9-0.3-4.1-0.8c-1.2-0.5-2.2-1.2-3.1-2.2c-0.8-0.9-1.5-2-1.9-3.3c-0.5-1.3-0.7-2.6-0.7-4.1
			s0.3-2.9,0.8-4.1c0.5-1.3,1.2-2.3,2.2-3.3c0.9-0.9,2-1.6,3.3-2.1c1.3-0.5,2.7-0.8,4.3-0.8c0.8,0,1.5,0.1,2.1,0.2
			c0.7,0.1,1.3,0.3,1.9,0.6c0.6,0.2,1.1,0.5,1.6,0.8s0.9,0.7,1.3,1.1l-1.6,2.1c-0.1,0.1-0.2,0.2-0.4,0.4c-0.1,0.1-0.3,0.2-0.6,0.2
			c-0.2,0-0.3,0-0.5-0.1c-0.1-0.1-0.3-0.2-0.5-0.3c-0.2-0.1-0.3-0.2-0.5-0.3c-0.2-0.1-0.4-0.2-0.7-0.3c-0.3-0.1-0.6-0.2-1-0.3
			c-0.4-0.1-0.8-0.1-1.3-0.1c-0.8,0-1.6,0.2-2.3,0.4c-0.7,0.3-1.3,0.7-1.8,1.3s-0.9,1.2-1.2,2c-0.3,0.8-0.4,1.7-0.4,2.7
			s0.1,2,0.4,2.8c0.3,0.8,0.7,1.5,1.1,2c0.5,0.5,1,1,1.7,1.3c0.6,0.3,1.3,0.4,2.1,0.4c0.4,0,0.8,0,1.2-0.1c0.4,0,0.7-0.1,1-0.2
			c0.3-0.1,0.6-0.2,0.9-0.4c0.3-0.2,0.5-0.4,0.8-0.6c0.1-0.1,0.2-0.2,0.4-0.2C-134.8,409.6-134.7,409.6-134.5,409.6z"/>
		<path class="st0" d="M-112.4,414.8h-4.7v-8.5h-8.2v8.5h-4.7v-20.2h4.7v8.4h8.2v-8.4h4.7C-112.4,394.6-112.4,414.8-112.4,414.8z"/>
		<path class="st0" d="M-90.6,414.8h-3.6c-0.4,0-0.7-0.1-1-0.3s-0.4-0.4-0.5-0.7l-1.2-3.5h-7.7l-1.2,3.5c-0.1,0.3-0.3,0.5-0.5,0.7
			c-0.3,0.2-0.6,0.3-1,0.3h-3.7l7.8-20.2h4.8L-90.6,414.8z M-103.6,407.1h5.5l-1.9-5.5c-0.1-0.4-0.3-0.8-0.4-1.2
			c-0.2-0.5-0.3-1-0.5-1.5c-0.1,0.6-0.3,1.1-0.5,1.6s-0.3,0.9-0.4,1.2L-103.6,407.1z"/>
		<path class="st0" d="M-86.3,394.6c0.1,0,0.3,0.1,0.4,0.1c0.1,0.1,0.2,0.1,0.3,0.2s0.2,0.2,0.3,0.4l9.6,12.1c0-0.4-0.1-0.8-0.1-1.1
			c0-0.4,0-0.7,0-1v-10.7h4.1v20.2h-2.4c-0.4,0-0.7-0.1-0.9-0.2s-0.5-0.3-0.7-0.6l-9.5-12c0,0.4,0.1,0.7,0.1,1s0,0.7,0,0.9v10.8
			h-4.1v-20.1h2.5C-86.6,394.6-86.4,394.6-86.3,394.6z"/>
		<path class="st0" d="M-59,411.4c0.6,0,1.2-0.1,1.7-0.2c0.5-0.1,1-0.3,1.4-0.4v-3.1h-2c-0.3,0-0.5-0.1-0.7-0.2
			c-0.2-0.2-0.2-0.4-0.2-0.6v-2.6h7.2v8.5c-0.5,0.4-1.1,0.7-1.6,1c-0.6,0.3-1.2,0.5-1.8,0.7s-1.3,0.3-2,0.4s-1.5,0.1-2.3,0.1
			c-1.5,0-2.8-0.3-4.1-0.8s-2.3-1.2-3.3-2.2c-0.9-0.9-1.6-2-2.2-3.3c-0.5-1.3-0.8-2.6-0.8-4.1s0.2-2.9,0.7-4.1
			c0.5-1.3,1.2-2.3,2.1-3.3c0.9-0.9,2-1.6,3.4-2.1c1.3-0.5,2.8-0.8,4.4-0.8c0.8,0,1.6,0.1,2.4,0.2c0.7,0.1,1.4,0.3,2,0.6
			c0.6,0.2,1.2,0.5,1.7,0.9c0.5,0.3,1,0.7,1.4,1.1l-1.4,2.1c-0.1,0.2-0.3,0.3-0.5,0.5c-0.2,0.1-0.4,0.2-0.6,0.2
			c-0.3,0-0.6-0.1-0.9-0.3c-0.4-0.2-0.7-0.4-1-0.6s-0.7-0.3-1-0.4s-0.7-0.2-1.1-0.2c-0.4,0-0.8-0.1-1.3-0.1c-0.9,0-1.7,0.2-2.4,0.5
			c-0.7,0.3-1.3,0.7-1.8,1.3s-0.9,1.2-1.1,2c-0.3,0.8-0.4,1.7-0.4,2.6c0,1.1,0.1,2,0.4,2.9c0.3,0.8,0.7,1.5,1.2,2.1
			c0.5,0.6,1.1,1,1.9,1.3C-60.6,411.3-59.8,411.4-59,411.4z"/>
		<path class="st0" d="M-35.9,394.6v3.6h-8.3v4.7h6.3v3.5h-6.3v4.8h8.3v3.6h-13v-20.2H-35.9z"/>
	</g>
</g>
</svg>
