<?xml version="1.0" encoding="utf-8"?>
<!-- Generated by IcoMoon.io -->
<!DOCTYPE svg PUBLIC "-//W3C//DTD SVG 1.1//EN" "http://www.w3.org/Graphics/SVG/1.1/DTD/svg11.dtd">
<svg version="1.1" xmlns="http://www.w3.org/2000/svg" xmlns:xlink="http://www.w3.org/1999/xlink" width="22" height="22" viewBox="0 0 22 22">
<path fill="#555559" d="M21.318 18.721l-5.211-4.432c-0.539-0.485-1.115-0.708-1.58-0.686 1.23-1.441 1.974-3.31 1.974-5.353 0-4.557-3.693-8.25-8.25-8.25s-8.25 3.693-8.25 8.25 3.693 8.25 8.25 8.25c2.043 0 3.912-0.743 5.353-1.974-0.021 0.466 0.201 1.041 0.686 1.58l4.432 5.211c0.759 0.843 1.998 0.914 2.755 0.158s0.685-1.996-0.158-2.755zM8.25 13.75c-3.038 0-5.5-2.462-5.5-5.5s2.462-5.5 5.5-5.5 5.5 2.462 5.5 5.5-2.462 5.5-5.5 5.5z"></path>
</svg>
