<?xml version="1.0" encoding="utf-8"?>
<!-- Generated by IcoMoon.io -->
<!DOCTYPE svg PUBLIC "-//W3C//DTD SVG 1.1//EN" "http://www.w3.org/Graphics/SVG/1.1/DTD/svg11.dtd">
<svg version="1.1" xmlns="http://www.w3.org/2000/svg" xmlns:xlink="http://www.w3.org/1999/xlink" width="25" height="25" viewBox="0 0 25 25">
<path fill="#ffffff" d="M12.5 25c-6.875 0-12.5-5.625-12.5-12.5s5.625-12.5 12.5-12.5c6.875 0 12.5 5.625 12.5 12.5s-5.625 12.5-12.5 12.5zM12.5 1.5c-6.125 0-11 5-11 11 0 6.125 5 11 11 11 6.125 0 11-5 11-11 0-6.125-4.875-11-11-11z"></path>
<path fill="#ffffff" d="M16.375 13.5c-0.25-0.5-0.5-0.875-0.875-1.125s-0.75-0.5-1.25-0.625c-0.375-0.125-0.75-0.25-1.125-0.375v-4c0.125 0 0.375 0 0.5 0.125 0.25 0.125 0.5 0.25 0.625 0.375s0.25 0.375 0.375 0.5c0.125 0.25 0.125 0.5 0.125 0.75l1.5-0.125c0-0.5-0.125-1-0.25-1.375s-0.5-0.75-0.75-1c-0.375-0.25-0.75-0.5-1.125-0.625-0.25-0.125-0.625-0.125-0.875-0.125v-0.75h-1.5v0.75c-0.375 0-0.625 0.125-0.875 0.125-0.5 0.25-0.875 0.375-1.125 0.75-0.375 0.25-0.625 0.625-0.875 1-0.125 0.5-0.25 0.875-0.25 1.375s0.125 1 0.25 1.5c0.25 0.375 0.5 0.75 0.75 1 0.375 0.25 0.75 0.5 1.25 0.625 0.25 0.125 0.5 0.25 0.875 0.25v4.5c-0.375-0.125-0.875-0.25-1.125-0.5-0.375-0.25-0.625-0.75-0.75-1.25 0-0.125 0-0.25 0-0.25v-0.375l-1.5 0.125v0.375c0 0.125 0 0.25 0 0.5 0.25 1 0.625 1.75 1.375 2.25 0.5 0.375 1.25 0.625 2 0.75v1.375h1.5v-1.375c0.375 0 0.625-0.125 1-0.25 0.5-0.125 0.875-0.375 1.25-0.625s0.625-0.625 0.875-1c0.25-0.375 0.375-0.875 0.375-1.5-0.125-0.75-0.125-1.25-0.375-1.75zM11.375 10.875c-0.375-0.125-0.5-0.25-0.75-0.375-0.125-0.125-0.25-0.375-0.375-0.5-0.125-0.25-0.125-0.5-0.125-0.875 0-0.25 0-0.5 0.125-0.75s0.25-0.375 0.5-0.625c0.125-0.125 0.375-0.25 0.625-0.375 0.125 0 0.25-0.125 0.375-0.125v3.625c-0.125 0.125-0.25 0-0.375 0zM15 15.875c-0.125 0.25-0.25 0.5-0.5 0.625s-0.5 0.25-0.75 0.375c-0.125 0-0.375 0.125-0.5 0.125v-4.125c0.25 0 0.5 0.125 0.625 0.125 0.25 0.125 0.5 0.25 0.75 0.375 0.125 0.125 0.25 0.375 0.375 0.625s0.125 0.625 0.125 1c0.125 0.375 0 0.625-0.125 0.875z"></path>
</svg>
