<?xml version="1.0" encoding="utf-8"?>
<!-- Generated by IcoMoon.io -->
<!DOCTYPE svg PUBLIC "-//W3C//DTD SVG 1.1//EN" "http://www.w3.org/Graphics/SVG/1.1/DTD/svg11.dtd">
<svg version="1.1" xmlns="http://www.w3.org/2000/svg" xmlns:xlink="http://www.w3.org/1999/xlink" width="46" height="46" viewBox="0 0 46 46">
<path fill="#ffffff" d="M21.467 25.848c-0.438 0-0.657-0.219-0.876-0.438-0.438-0.438-0.438-1.095-0.219-1.533l13.143-23.219c0-0.438 0.438-0.657 0.876-0.657s0.876 0 1.095 0.438l10.076 10.076c0.438 0.219 0.438 0.657 0.438 1.095s-0.219 0.657-0.657 0.876l-23.219 13.143c-0.219 0.219-0.438 0.219-0.657 0.219zM34.829 3.505l-10.076 17.743 17.743-10.076-7.667-7.667z"></path>
<path fill="#ffffff" d="M21.467 46c-11.829 0-21.467-9.638-21.467-21.467s9.638-21.467 21.467-21.467c2.19 0 4.381 0.438 6.571 1.095l-0.876 2.41c-1.752-0.657-3.724-0.876-5.695-0.876-10.514 0-18.838 8.543-18.838 18.838 0 10.514 8.543 18.838 18.838 18.838s18.838-8.543 18.838-18.838c0-1.971-0.219-3.943-0.876-5.695l2.41-0.876c0.657 2.19 1.095 4.381 1.095 6.571 0 11.829-9.638 21.467-21.467 21.467z"></path>
<path fill="#ffffff" d="M21.467 35.924c-6.352 0-11.39-5.038-11.39-11.39s5.038-11.39 11.39-11.39c0.219 0 0.438 0 0.657 0h0.219l-0.219 2.629h-0.438c-0.219 0-0.219 0-0.438 0-4.819 0-8.762 3.943-8.762 8.762s3.943 8.762 8.762 8.762 8.762-3.943 8.762-8.762c0-0.219 0-0.219 0-0.438v-0.438l2.629-0.219v0.219c0 0.219 0 0.438 0 0.657 0.219 6.571-4.819 11.61-11.171 11.61z"></path>
</svg>
