<?xml version="1.0" encoding="utf-8"?>
<!-- Generated by IcoMoon.io -->
<!DOCTYPE svg PUBLIC "-//W3C//DTD SVG 1.1//EN" "http://www.w3.org/Graphics/SVG/1.1/DTD/svg11.dtd">
<svg version="1.1" xmlns="http://www.w3.org/2000/svg" xmlns:xlink="http://www.w3.org/1999/xlink" width="25" height="23" viewBox="0 0 25 23">
<path fill="#003359" d="M23.458 1.259l-0.458-1.259-10.413 3.89-10.413-3.89-0.458 1.259 10.871 4.119z"></path>
<path fill="#003359" d="M24.946 2.060c-0.229-0.114-0.458-0.114-0.572-0.114l-11.786 4.234-11.671-4.234c-0.229-0.114-0.458 0-0.572 0.114-0.229 0.114-0.343 0.343-0.343 0.572v15.334c0 0.229 0.229 0.572 0.458 0.687l11.9 4.348c0 0 0 0 0 0s0.114 0 0.114 0c0 0 0 0 0.114 0 0 0 0 0 0 0s0 0 0 0 0 0 0.114 0c0 0 0.114 0 0.114 0s0 0 0 0l11.9-4.348c0.229-0.114 0.458-0.343 0.458-0.687v-15.334c0-0.229-0.114-0.458-0.229-0.572zM11.9 21.283l-10.528-3.89v-13.846l10.528 3.776v13.96zM23.801 17.507l-10.528 3.89v-14.075l10.528-3.776v13.96z"></path>
</svg>
