<?xml version="1.0" encoding="utf-8"?>
<!-- Generator: Adobe Illustrator 19.1.0, SVG Export Plug-In . SVG Version: 6.00 Build 0)  -->
<svg version="1.1" id="Layer_1" xmlns="http://www.w3.org/2000/svg" xmlns:xlink="http://www.w3.org/1999/xlink" x="0px" y="0px"
	 viewBox="-287 379 36 36" style="enable-background:new -287 379 36 36;" xml:space="preserve">
<style type="text/css">
	.st0{fill:#EE2355;}
	.st1{fill:#FFFFFF;}
</style>
<g>
	<g>
		<circle class="st0" cx="-269.1" cy="396.3" r="15.4"/>
		<path class="st1" d="M-269.1,412.2c-8.8,0-16-7.2-16-15.9c0-8.7,7.2-16,16-16c8.8,0,15.9,7.1,15.9,15.9
			C-253.2,405-260.3,412.2-269.1,412.2z M-269.1,381.5c-8.2,0-14.8,6.6-14.8,14.8c0,8.2,6.6,14.8,14.8,14.8
			c8.2,0,14.8-6.6,14.8-14.8C-254.3,388.1-261,381.5-269.1,381.5z"/>
	</g>
	<g>
		<g>
			<path class="st1" d="M-264.5,401.1c0,0.4-0.3,0.7-0.7,0.7h-7.8c-0.4,0-0.7-0.3-0.7-0.7v-9.7c0-0.4,0.3-0.7,0.7-0.7h3.9v3.9
				c0,0.4,0.3,0.7,0.7,0.7h3.9V401.1z M-268.2,394.4v-3.7c0.3,0.1,0.7,0.3,0.9,0.5l2.2,2.2c0.2,0.2,0.4,0.6,0.5,0.9h-3.6V394.4z"/>
		</g>
	</g>
</g>
</svg>
