<?xml version="1.0" encoding="utf-8"?>
<!-- Generator: Adobe Illustrator 19.1.0, SVG Export Plug-In . SVG Version: 6.00 Build 0)  -->
<svg version="1.1" id="Layer_1" xmlns="http://www.w3.org/2000/svg" xmlns:xlink="http://www.w3.org/1999/xlink" x="0px" y="0px"
	 viewBox="0 0 36 36" style="enable-background:new 0 0 36 36;" xml:space="preserve">
<style type="text/css">
	.st0{fill:#EE2355;}
	.st1{fill:#FFFFFF;}
</style>
<g>
	<g>
		<circle class="st0" cx="18" cy="17.3" r="15.4"/>
		<path class="st1" d="M18,33.2C9.2,33.2,2.1,26,2.1,17.3S9.2,1.3,18,1.3s15.9,7.1,15.9,15.9S26.8,33.2,18,33.2z M18,2.5
			C9.8,2.5,3.2,9.1,3.2,17.3S9.8,32.1,18,32.1c8.2,0,14.8-6.6,14.8-14.8S26.2,2.5,18,2.5z"/>
	</g>
	<g>
		<g>
			<path class="st1" d="M23.3,18c0,0-0.1,0.1-0.2,0.1c0,0,0,0,0,0c-0.1,0-0.1,0-0.2-0.1l-5-4.1L13,18c-0.1,0-0.1,0.1-0.2,0.1
				c-0.1,0-0.1,0-0.2-0.1l-0.4-0.5c-0.1-0.1-0.1-0.2,0-0.3l5.2-4.3c0.3-0.3,0.8-0.3,1.1,0l1.8,1.5v-1.4c0-0.1,0.1-0.2,0.2-0.2h1.4
				c0.1,0,0.2,0.1,0.2,0.2v2.9l1.6,1.3c0.1,0.1,0.1,0.2,0,0.3L23.3,18z M22.1,21.4c0,0.3-0.2,0.5-0.5,0.5h-2.8v-2.8h-1.8v2.8h-2.8
				c-0.3,0-0.5-0.2-0.5-0.5V18c0,0,0,0,0,0l4.1-3.4l4.1,3.4c0,0,0,0,0,0V21.4z"/>
		</g>
	</g>
</g>
</svg>
