<?xml version="1.0" encoding="utf-8"?>
<!-- Generated by IcoMoon.io -->
<!DOCTYPE svg PUBLIC "-//W3C//DTD SVG 1.1//EN" "http://www.w3.org/Graphics/SVG/1.1/DTD/svg11.dtd">
<svg version="1.1" xmlns="http://www.w3.org/2000/svg" xmlns:xlink="http://www.w3.org/1999/xlink" width="17" height="17" viewBox="0 0 17 17">
<path d="M7.083 0.708q1.295 0 2.476 0.506t2.034 1.359 1.359 2.034 0.506 2.476q0 1.112-0.362 2.131t-1.032 1.848l4.023 4.018q0.205 0.205 0.205 0.504 0 0.304-0.202 0.506t-0.506 0.202q-0.299 0-0.504-0.205l-4.018-4.023q-0.83 0.67-1.848 1.032t-2.131 0.362q-1.295 0-2.476-0.506t-2.034-1.359-1.359-2.034-0.506-2.476 0.506-2.476 1.359-2.034 2.034-1.359 2.476-0.506zM7.083 2.125q-1.007 0-1.926 0.393t-1.583 1.057-1.057 1.583-0.393 1.926 0.393 1.926 1.057 1.583 1.583 1.057 1.926 0.393 1.926-0.393 1.583-1.057 1.057-1.583 0.393-1.926-0.393-1.926-1.057-1.583-1.583-1.057-1.926-0.393z" fill="#ffffff"></path>
</svg>
