<?xml version="1.0" encoding="utf-8"?>
<!-- Generated by IcoMoon.io -->
<!DOCTYPE svg PUBLIC "-//W3C//DTD SVG 1.1//EN" "http://www.w3.org/Graphics/SVG/1.1/DTD/svg11.dtd">
<svg version="1.1" xmlns="http://www.w3.org/2000/svg" xmlns:xlink="http://www.w3.org/1999/xlink" width="18" height="18" viewBox="0 0 18 18">
<path fill="#ffffff" d="M18 3.418c-0.662 0.294-1.374 0.492-2.121 0.581 0.762-0.457 1.348-1.181 1.624-2.043-0.714 0.423-1.504 0.731-2.345 0.896-0.674-0.718-1.633-1.166-2.696-1.166-2.039 0-3.693 1.653-3.693 3.693 0 0.289 0.033 0.571 0.096 0.842-3.069-0.154-5.79-1.624-7.612-3.859-0.318 0.545-0.5 1.18-0.5 1.857 0 1.281 0.652 2.412 1.643 3.074-0.605-0.019-1.175-0.185-1.673-0.462-0 0.015-0 0.031-0 0.046 0 1.789 1.273 3.282 2.962 3.621-0.31 0.084-0.636 0.13-0.973 0.13-0.238 0-0.469-0.023-0.695-0.066 0.47 1.467 1.834 2.535 3.45 2.565-1.264 0.991-2.856 1.581-4.586 1.581-0.298 0-0.592-0.017-0.881-0.052 1.634 1.048 3.575 1.659 5.661 1.659 6.793 0 10.507-5.627 10.507-10.507 0-0.16-0.004-0.319-0.011-0.478 0.722-0.521 1.348-1.171 1.843-1.912z"></path>
</svg>
