<?xml version="1.0" encoding="utf-8"?>
<!-- Generated by IcoMoon.io -->
<!DOCTYPE svg PUBLIC "-//W3C//DTD SVG 1.1//EN" "http://www.w3.org/Graphics/SVG/1.1/DTD/svg11.dtd">
<svg version="1.1" xmlns="http://www.w3.org/2000/svg" xmlns:xlink="http://www.w3.org/1999/xlink" width="18" height="18" viewBox="0 0 18 18">
<path fill="#ffffff" d="M9.096 10.532c-2.872 0-5.266-2.394-5.266-5.266s2.394-5.266 5.266-5.266c2.872 0 5.266 2.394 5.266 5.266s-2.394 5.266-5.266 5.266zM9.096 1.149c-2.298 0-4.117 1.819-4.117 4.117s1.819 4.117 4.117 4.117 4.117-1.819 4.117-4.117c0-2.298-1.819-4.117-4.117-4.117z"></path>
<path fill="#ffffff" d="M17.617 18h-17.043c-0.287 0-0.574-0.287-0.574-0.574v-3.83c0-0.096 0-0.191 0-0.191s0 0 0-0.096c0-1.34 1.053-2.394 2.394-2.394h13.404c1.34 0 2.394 1.053 2.394 2.394 0 0.096 0 0.191 0 0.191s0 0 0 0.096v3.926c0 0.191-0.287 0.479-0.574 0.479zM1.149 16.851h15.989v-3.255c0 0 0-0.191 0-0.191s0-0.096 0-0.096c0-0.67-0.574-1.245-1.245-1.245h-13.404c-0.67 0-1.245 0.574-1.245 1.245v0.096c0 0 0 0.191 0 0.191l-0.096 3.255z"></path>
</svg>
