<?xml version="1.0" encoding="utf-8"?>
<!-- Generated by IcoMoon.io -->
<!DOCTYPE svg PUBLIC "-//W3C//DTD SVG 1.1//EN" "http://www.w3.org/Graphics/SVG/1.1/DTD/svg11.dtd">
<svg version="1.1" xmlns="http://www.w3.org/2000/svg" xmlns:xlink="http://www.w3.org/1999/xlink" width="21" height="20" viewBox="0 0 21 20">
<path d="M15.529 0c-2.118 0-3.882 1.176-4.941 2.824-0.941-1.647-2.824-2.824-4.824-2.824-3.176 0-5.765 2.588-5.765 5.765 0 0.824 0.118 1.529 0.471 2.235 1.529 4.235 9.412 11.647 9.647 11.882 0.118 0 0.353 0.118 0.471 0.118 0.235 0 0.353-0.118 0.471-0.235 0.353-0.353 8.118-7.647 9.647-11.882 0.353-0.706 0.471-1.412 0.471-2.235 0.118-3.059-2.471-5.647-5.647-5.647zM19.412 7.412c-1.176 3.294-6.941 9.059-8.706 10.824-1.882-1.765-7.647-7.529-8.824-10.941-0.235-0.471-0.353-1.059-0.353-1.529 0-2.353 1.882-4.118 4.118-4.118s4.118 1.765 4.118 4.118c0 0.471 0.353 0.706 0.824 0.706s0.706-0.353 0.824-0.706c0-2.235 1.882-4 4.118-4 2.353 0 4.118 1.882 4.118 4.118 0.118 0.353 0 0.941-0.235 1.529z" fill="#698bb1"></path>
</svg>
