<?xml version="1.0" encoding="utf-8"?>
<!-- Generated by IcoMoon.io -->
<!DOCTYPE svg PUBLIC "-//W3C//DTD SVG 1.1//EN" "http://www.w3.org/Graphics/SVG/1.1/DTD/svg11.dtd">
<svg version="1.1" xmlns="http://www.w3.org/2000/svg" xmlns:xlink="http://www.w3.org/1999/xlink" width="22" height="22" viewBox="0 0 22 22">
<path fill="#ffffff" d="M11 22c-6.050 0-11-4.95-11-11s4.95-11 11-11 11 4.95 11 11c0 6.050-4.95 11-11 11zM11 1.32c-5.39 0-9.68 4.4-9.68 9.68 0 5.39 4.4 9.68 9.68 9.68s9.68-4.4 9.68-9.68c0-5.39-4.29-9.68-9.68-9.68z"></path>
<path fill="#ffffff" d="M12.1 6.49c0 0.425-0.345 0.77-0.77 0.77s-0.77-0.345-0.77-0.77c0-0.425 0.345-0.77 0.77-0.77s0.77 0.345 0.77 0.77z"></path>
<path fill="#ffffff" d="M13.53 15.29h-4.51v-0.88h1.54v-5.5h-1.54v-0.99h2.97v6.49h1.54v0.11z"></path>
</svg>
