<?xml version="1.0" encoding="utf-8"?>
<!-- Generated by IcoMoon.io -->
<!DOCTYPE svg PUBLIC "-//W3C//DTD SVG 1.1//EN" "http://www.w3.org/Graphics/SVG/1.1/DTD/svg11.dtd">
<svg version="1.1" xmlns="http://www.w3.org/2000/svg" xmlns:xlink="http://www.w3.org/1999/xlink" width="20" height="20" viewBox="0 0 20 20">
<path fill="#dc5606" d="M10.106 11.702c-3.191 0-5.851-2.66-5.851-5.851s2.66-5.851 5.851-5.851c3.191 0 5.851 2.66 5.851 5.851s-2.66 5.851-5.851 5.851zM10.106 1.277c-2.553 0-4.574 2.021-4.574 4.574s2.021 4.574 4.574 4.574 4.574-2.021 4.574-4.574c0-2.553-2.021-4.574-4.574-4.574z"></path>
<path fill="#dc5606" d="M19.574 20h-18.936c-0.319 0-0.638-0.319-0.638-0.638v-4.255c0-0.106 0-0.213 0-0.213s0 0 0-0.106c0-1.489 1.17-2.66 2.66-2.66h14.894c1.489 0 2.66 1.17 2.66 2.66 0 0.106 0 0.213 0 0.213s0 0 0 0.106v4.362c0 0.213-0.319 0.532-0.638 0.532zM1.277 18.723h17.766v-3.617c0 0 0-0.213 0-0.213s0-0.106 0-0.106c0-0.745-0.638-1.383-1.383-1.383h-14.894c-0.745 0-1.383 0.638-1.383 1.383v0.106c0 0 0 0.213 0 0.213l-0.106 3.617z"></path>
</svg>
