<?xml version="1.0" encoding="utf-8"?>
<!-- Generated by IcoMoon.io -->
<!DOCTYPE svg PUBLIC "-//W3C//DTD SVG 1.1//EN" "http://www.w3.org/Graphics/SVG/1.1/DTD/svg11.dtd">
<svg version="1.1" xmlns="http://www.w3.org/2000/svg" xmlns:xlink="http://www.w3.org/1999/xlink" width="53" height="46" viewBox="0 0 53 46">
<path fill="#ffffff" d="M28.816 0l-2.379 2.379-2.379-2.379h-24.057v46h24.057l2.379-2.379 2.379 2.379h24.057v-46h-24.057zM24.851 40.977l-1.851 1.851h-19.828v-39.655h19.828l2.115 2.115v35.69zM49.701 42.828h-19.828l-1.851-1.851v-35.954l2.115-2.115h19.828v39.92z"></path>
<path fill="#ffffff" d="M31.724 8.195h14.276v3.172h-14.276v-3.172z"></path>
<path fill="#ffffff" d="M31.724 16.92h14.276v3.172h-14.276v-3.172z"></path>
<path fill="#ffffff" d="M31.724 25.908h14.276v3.172h-14.276v-3.172z"></path>
<path fill="#ffffff" d="M31.724 34.632h14.276v3.172h-14.276v-3.172z"></path>
</svg>
