<?xml version="1.0" encoding="utf-8"?>
<!-- Generated by IcoMoon.io -->
<!DOCTYPE svg PUBLIC "-//W3C//DTD SVG 1.1//EN" "http://www.w3.org/Graphics/SVG/1.1/DTD/svg11.dtd">
<svg version="1.1" xmlns="http://www.w3.org/2000/svg" xmlns:xlink="http://www.w3.org/1999/xlink" width="46" height="46" viewBox="0 0 46 46">
<path fill="#ffffff" d="M23.245 26.915c-7.34 0-13.457-6.117-13.457-13.457s6.117-13.457 13.457-13.457c7.34 0 13.457 6.117 13.457 13.457s-6.117 13.457-13.457 13.457zM23.245 2.936c-5.872 0-10.521 4.649-10.521 10.521s4.649 10.521 10.521 10.521 10.521-4.649 10.521-10.521c0-5.872-4.649-10.521-10.521-10.521z"></path>
<path fill="#ffffff" d="M45.021 46h-43.553c-0.734 0-1.468-0.734-1.468-1.468v-9.787c0-0.245 0-0.489 0-0.489s0 0 0-0.245c0-3.426 2.691-6.117 6.117-6.117h34.255c3.426 0 6.117 2.691 6.117 6.117 0 0.245 0 0.489 0 0.489s0 0 0 0.245v10.032c0 0.489-0.734 1.223-1.468 1.223zM2.936 43.064h40.862v-8.319c0 0 0-0.489 0-0.489s0-0.245 0-0.245c0-1.713-1.468-3.181-3.181-3.181h-34.255c-1.713 0-3.181 1.468-3.181 3.181v0.245c0 0 0 0.489 0 0.489l-0.245 8.319z"></path>
</svg>
