<?xml version="1.0" encoding="utf-8"?>
<!-- Generated by IcoMoon.io -->
<!DOCTYPE svg PUBLIC "-//W3C//DTD SVG 1.1//EN" "http://www.w3.org/Graphics/SVG/1.1/DTD/svg11.dtd">
<svg version="1.1" xmlns="http://www.w3.org/2000/svg" xmlns:xlink="http://www.w3.org/1999/xlink" width="22" height="22" viewBox="0 0 22 22">
<path fill="#ffffff" d="M11 22c-6.050 0-11-4.95-11-11s4.95-11 11-11c6.050 0 11 4.95 11 11s-4.95 11-11 11zM11 1.32c-5.39 0-9.68 4.4-9.68 9.68 0 5.39 4.4 9.68 9.68 9.68 5.39 0 9.68-4.4 9.68-9.68 0-5.39-4.29-9.68-9.68-9.68z"></path>
<path fill="#ffffff" d="M14.41 11.88c-0.22-0.44-0.44-0.77-0.77-0.99s-0.66-0.44-1.1-0.55c-0.33-0.11-0.66-0.22-0.99-0.33v-3.52c0.11 0 0.33 0 0.44 0.11 0.22 0.11 0.44 0.22 0.55 0.33s0.22 0.33 0.33 0.44c0.11 0.22 0.11 0.44 0.11 0.66l1.32-0.11c0-0.44-0.11-0.88-0.22-1.21s-0.44-0.66-0.66-0.88c-0.33-0.22-0.66-0.44-0.99-0.55-0.22-0.11-0.55-0.11-0.77-0.11v-0.66h-1.32v0.66c-0.33 0-0.55 0.11-0.77 0.11-0.44 0.22-0.77 0.33-0.99 0.66-0.33 0.22-0.55 0.55-0.77 0.88-0.11 0.44-0.22 0.77-0.22 1.21s0.11 0.88 0.22 1.32c0.22 0.33 0.44 0.66 0.66 0.88 0.33 0.22 0.66 0.44 1.1 0.55 0.22 0.11 0.44 0.22 0.77 0.22v3.96c-0.33-0.11-0.77-0.22-0.99-0.44-0.33-0.22-0.55-0.66-0.66-1.1 0-0.11 0-0.22 0-0.22v-0.33l-1.32 0.11v0.33c0 0.11 0 0.22 0 0.44 0.22 0.88 0.55 1.54 1.21 1.98 0.44 0.33 1.1 0.55 1.76 0.66v1.21h1.32v-1.21c0.33 0 0.55-0.11 0.88-0.22 0.44-0.11 0.77-0.33 1.1-0.55s0.55-0.55 0.77-0.88c0.22-0.33 0.33-0.77 0.33-1.32-0.11-0.66-0.11-1.1-0.33-1.54zM10.010 9.57c-0.33-0.11-0.44-0.22-0.66-0.33-0.11-0.11-0.22-0.33-0.33-0.44-0.11-0.22-0.11-0.44-0.11-0.77 0-0.22 0-0.44 0.11-0.66s0.22-0.33 0.44-0.55c0.11-0.11 0.33-0.22 0.55-0.33 0.11 0 0.22-0.11 0.33-0.11v3.19c-0.11 0.11-0.22 0-0.33 0zM13.2 13.97c-0.11 0.22-0.22 0.44-0.44 0.55s-0.44 0.22-0.66 0.33c-0.11 0-0.33 0.11-0.44 0.11v-3.63c0.22 0 0.44 0.11 0.55 0.11 0.22 0.11 0.44 0.22 0.66 0.33 0.11 0.11 0.22 0.33 0.33 0.55s0.11 0.55 0.11 0.88c0.11 0.33 0 0.55-0.11 0.77z"></path>
</svg>
