<?xml version="1.0" encoding="utf-8"?>
<!-- Generated by IcoMoon.io -->
<!DOCTYPE svg PUBLIC "-//W3C//DTD SVG 1.1//EN" "http://www.w3.org/Graphics/SVG/1.1/DTD/svg11.dtd">
<svg version="1.1" xmlns="http://www.w3.org/2000/svg" xmlns:xlink="http://www.w3.org/1999/xlink" width="50" height="46" viewBox="0 0 50 46">
<path fill="#ffffff" d="M46.915 2.517l-0.915-2.517-20.826 7.781-20.826-7.781-0.915 2.517 21.741 8.239z"></path>
<path fill="#ffffff" d="M49.891 4.119c-0.458-0.229-0.915-0.229-1.144-0.229l-23.572 8.468-23.343-8.468c-0.458-0.229-0.915 0-1.144 0.229-0.458 0.229-0.687 0.687-0.687 1.144v30.667c0 0.458 0.458 1.144 0.915 1.373l23.801 8.697c0 0 0 0 0 0s0.229 0 0.229 0c0 0 0 0 0.229 0 0 0 0 0 0 0s0 0 0 0 0 0 0.229 0c0 0 0.229 0 0.229 0s0 0 0 0l23.801-8.697c0.458-0.229 0.915-0.687 0.915-1.373v-30.667c0-0.458-0.229-0.915-0.458-1.144zM23.801 42.567l-21.055-7.781v-27.692l21.055 7.552v27.92zM47.602 35.015l-21.055 7.781v-28.149l21.055-7.552v27.92z"></path>
</svg>
