<?xml version="1.0" encoding="utf-8"?>
<!-- Generated by IcoMoon.io -->
<!DOCTYPE svg PUBLIC "-//W3C//DTD SVG 1.1//EN" "http://www.w3.org/Graphics/SVG/1.1/DTD/svg11.dtd">
<svg version="1.1" xmlns="http://www.w3.org/2000/svg" xmlns:xlink="http://www.w3.org/1999/xlink" width="34" height="46" viewBox="0 0 34 46">
<path fill="#ffffff" d="M12.842 40.058h8.242v2.3h-8.242v-2.3z"></path>
<path fill="#ffffff" d="M12.842 43.7h8.242v2.3h-8.242v-2.3z"></path>
<path fill="#ffffff" d="M23 38.908h-12.075l-1.15-6.9c-5.942-2.875-9.775-8.625-9.775-15.142 0-9.392 7.667-16.867 17.058-16.867s17.058 7.475 17.058 16.867c0 6.517-3.833 12.458-9.775 15.142l-1.342 6.9zM12.842 36.608h8.242l1.15-6.325 0.575-0.192c5.367-2.3 9.008-7.475 9.008-13.417 0-8.050-6.708-14.567-14.758-14.567s-14.758 6.517-14.758 14.567c0 5.75 3.45 11.117 9.008 13.417l0.575 0.192 0.958 6.325zM17.058 26.642l-2.875-5.558-6.325-0.958 4.6-4.408-1.15-6.133 5.75 2.875 5.75-2.875-1.15 6.133 4.6 4.408-6.325 0.958-2.875 5.558zM12.842 18.592l2.875 0.383 1.342 2.683 1.342-2.683 2.875-0.383-2.108-2.108 0.575-2.875-2.683 1.342-2.683-1.342 0.575 2.875-2.108 2.108z"></path>
</svg>
