<?xml version="1.0" encoding="utf-8"?>
<!-- Generated by IcoMoon.io -->
<!DOCTYPE svg PUBLIC "-//W3C//DTD SVG 1.1//EN" "http://www.w3.org/Graphics/SVG/1.1/DTD/svg11.dtd">
<svg version="1.1" xmlns="http://www.w3.org/2000/svg" xmlns:xlink="http://www.w3.org/1999/xlink" width="16" height="22" viewBox="0 0 16 22">
<path fill="#ffffff" d="M6.142 19.158h3.942v1.1h-3.942v-1.1z"></path>
<path fill="#ffffff" d="M6.142 20.9h3.942v1.1h-3.942v-1.1z"></path>
<path fill="#ffffff" d="M11 18.608h-5.775l-0.55-3.3c-2.842-1.375-4.675-4.125-4.675-7.242 0-4.492 3.667-8.067 8.158-8.067s8.158 3.575 8.158 8.067c0 3.117-1.833 5.958-4.675 7.242l-0.642 3.3zM6.142 17.508h3.942l0.55-3.025 0.275-0.092c2.567-1.1 4.308-3.575 4.308-6.417 0-3.85-3.208-6.967-7.058-6.967s-7.058 3.117-7.058 6.967c0 2.75 1.65 5.317 4.308 6.417l0.275 0.092 0.458 3.025zM8.158 12.742l-1.375-2.658-3.025-0.458 2.2-2.108-0.55-2.933 2.75 1.375 2.75-1.375-0.55 2.933 2.2 2.108-3.025 0.458-1.375 2.658zM6.142 8.892l1.375 0.183 0.642 1.283 0.642-1.283 1.375-0.183-1.008-1.008 0.275-1.375-1.283 0.642-1.283-0.642 0.275 1.375-1.008 1.008z"></path>
</svg>
