<?xml version="1.0" encoding="utf-8"?>
<!-- Generated by IcoMoon.io -->
<!DOCTYPE svg PUBLIC "-//W3C//DTD SVG 1.1//EN" "http://www.w3.org/Graphics/SVG/1.1/DTD/svg11.dtd">
<svg version="1.1" xmlns="http://www.w3.org/2000/svg" xmlns:xlink="http://www.w3.org/1999/xlink" width="20" height="20" viewBox="0 0 20 20">
<path d="M10.118 11.765c3.294 0 5.882-2.706 5.882-5.882 0-3.294-2.706-5.882-5.882-5.882-3.294 0-5.882 2.706-5.882 5.882 0 3.294 2.588 5.882 5.882 5.882zM10.118 1.529c2.353 0 4.353 2 4.353 4.353s-2 4.353-4.353 4.353c-2.353 0-4.353-2-4.353-4.353s1.882-4.353 4.353-4.353z" fill="#698bb1"></path>
<path d="M20.235 14.588c0-1.529-1.294-2.824-2.824-2.824h-14.588c-1.529 0-2.824 1.294-2.824 2.824 0 0 0 0.235 0 0.353v4.235c0 0.471 0.353 0.824 0.824 0.824h18.706c0.471 0 0.824-0.353 0.824-0.824v-4.235c0 0 0-0.118 0-0.118-0.118-0.118-0.118-0.118-0.118-0.235zM18.706 18.471h-17.176c0 0 0-3.647 0-3.647s0-0.235 0-0.235c0-0.706 0.588-1.294 1.294-1.294h14.706c0.706 0 1.294 0.588 1.294 1.294-0.118 0.235-0.118 3.882-0.118 3.882z" fill="#698bb1"></path>
</svg>
