<?xml version="1.0" encoding="utf-8"?>
<!-- Generator: Adobe Illustrator 18.1.1, SVG Export Plug-In . SVG Version: 6.00 Build 0)  -->
<!DOCTYPE svg PUBLIC "-//W3C//DTD SVG 1.1//EN" "http://www.w3.org/Graphics/SVG/1.1/DTD/svg11.dtd">
<svg version="1.1" id="Layer_1" xmlns="http://www.w3.org/2000/svg" xmlns:xlink="http://www.w3.org/1999/xlink" x="0px" y="0px"
	 width="179.1px" height="36px" viewBox="0 0 179.1 36" enable-background="new 0 0 179.1 36" xml:space="preserve">
<g>
	<g>
		<polygon fill="#ED7D3A" points="16.5,11.8 23.6,0.1 9.3,0.1 		"/>
		<polygon fill="#DC5606" points="0,0.1 0,35.8 10.8,18 		"/>
		<polygon fill="#ED7D3A" points="16.5,24.1 23.6,35.8 9.3,35.8 		"/>
	</g>
	<g>
		<path fill="#DC5606" d="M38.4,8.7c0.3,0,0.6,0,0.9-0.1c0.3-0.1,0.5-0.1,0.7-0.2V6.8h-1c-0.2,0-0.3,0-0.4-0.1
			c-0.1-0.1-0.1-0.2-0.1-0.3V5.1h3.7v4.3c-0.3,0.2-0.5,0.4-0.8,0.5c-0.3,0.1-0.6,0.3-0.9,0.3c-0.3,0.1-0.7,0.2-1,0.2
			c-0.4,0-0.8,0.1-1.2,0.1c-0.8,0-1.5-0.1-2.1-0.4c-0.6-0.3-1.2-0.6-1.7-1.1c-0.5-0.5-0.8-1-1.1-1.7C33.1,6.7,33,6,33,5.3
			c0-0.8,0.1-1.5,0.4-2.1c0.3-0.6,0.6-1.2,1.1-1.7c0.5-0.5,1-0.8,1.7-1.1C36.8,0.1,37.6,0,38.4,0c0.4,0,0.8,0,1.2,0.1
			c0.4,0.1,0.7,0.2,1,0.3c0.3,0.1,0.6,0.3,0.9,0.4C41.8,1,42,1.2,42.2,1.4l-0.7,1.1c-0.1,0.1-0.1,0.2-0.2,0.2
			c-0.1,0.1-0.2,0.1-0.3,0.1c-0.1,0-0.3,0-0.4-0.1c-0.2-0.1-0.4-0.2-0.5-0.3c-0.2-0.1-0.3-0.1-0.5-0.2C39.4,2.1,39.2,2,39,2
			c-0.2,0-0.4,0-0.7,0c-0.4,0-0.9,0.1-1.2,0.2c-0.4,0.2-0.7,0.4-0.9,0.7s-0.4,0.6-0.6,1s-0.2,0.9-0.2,1.3c0,0.5,0.1,1,0.2,1.5
			c0.2,0.4,0.4,0.8,0.6,1.1c0.3,0.3,0.6,0.5,0.9,0.7C37.6,8.6,38,8.7,38.4,8.7z"/>
		<path fill="#DC5606" d="M46,8.5h3.8v1.9h-6.2V0.1H46V8.5z"/>
		<path fill="#DC5606" d="M60.5,5.3c0,0.7-0.1,1.4-0.4,2.1C59.8,8,59.5,8.5,59,9c-0.5,0.5-1,0.8-1.7,1.1c-0.7,0.3-1.4,0.4-2.2,0.4
			c-0.8,0-1.5-0.1-2.2-0.4c-0.7-0.3-1.2-0.6-1.7-1.1c-0.5-0.5-0.8-1-1.1-1.7c-0.3-0.6-0.4-1.3-0.4-2.1c0-0.7,0.1-1.4,0.4-2.1
			c0.3-0.6,0.6-1.2,1.1-1.7c0.5-0.5,1-0.8,1.7-1.1C53.6,0.1,54.3,0,55.1,0c0.8,0,1.5,0.1,2.2,0.4C58,0.7,58.5,1,59,1.5
			c0.5,0.5,0.8,1,1.1,1.7S60.5,4.5,60.5,5.3z M58,5.3c0-0.5-0.1-1-0.2-1.4c-0.1-0.4-0.3-0.8-0.6-1c-0.2-0.3-0.6-0.5-0.9-0.7
			C56,2,55.6,2,55.1,2c-0.5,0-0.9,0.1-1.2,0.2c-0.4,0.2-0.7,0.4-0.9,0.7c-0.2,0.3-0.4,0.6-0.6,1s-0.2,0.9-0.2,1.4
			c0,0.5,0.1,1,0.2,1.4s0.3,0.8,0.6,1c0.2,0.3,0.6,0.5,0.9,0.6c0.4,0.1,0.8,0.2,1.2,0.2c0.5,0,0.9-0.1,1.2-0.2
			C56.7,8.2,57,8,57.3,7.7c0.2-0.3,0.4-0.6,0.6-1C58,6.2,58,5.8,58,5.3z"/>
		<path fill="#DC5606" d="M61.6,10.4V0.1h3.8c0.7,0,1.3,0.1,1.8,0.2c0.5,0.1,0.9,0.3,1.2,0.6c0.3,0.2,0.5,0.5,0.7,0.9
			c0.1,0.3,0.2,0.7,0.2,1.2c0,0.2,0,0.5-0.1,0.7C69.2,3.8,69.1,4,69,4.2c-0.1,0.2-0.3,0.4-0.5,0.5S67.9,5,67.6,5.1
			c0.7,0.2,1.2,0.4,1.5,0.8c0.3,0.4,0.5,0.8,0.5,1.4c0,0.4-0.1,0.8-0.3,1.2c-0.2,0.4-0.4,0.7-0.7,1c-0.3,0.3-0.7,0.5-1.2,0.7
			c-0.5,0.2-1,0.2-1.6,0.2H61.6z M64,4.4h1.2c0.3,0,0.5,0,0.7-0.1c0.2,0,0.4-0.1,0.5-0.2c0.1-0.1,0.3-0.2,0.3-0.4
			C66.9,3.6,67,3.4,67,3.2c0-0.2,0-0.4-0.1-0.6c-0.1-0.2-0.2-0.3-0.3-0.4S66.3,2,66.1,2c-0.2,0-0.4-0.1-0.7-0.1H64V4.4z M64,6v2.6
			h1.7c0.3,0,0.6,0,0.8-0.1c0.2-0.1,0.4-0.2,0.5-0.3c0.1-0.1,0.2-0.3,0.2-0.4c0-0.2,0.1-0.3,0.1-0.5c0-0.2,0-0.4-0.1-0.5
			c0-0.2-0.1-0.3-0.3-0.4c-0.1-0.1-0.3-0.2-0.5-0.2S66,6,65.7,6H64z"/>
		<path fill="#DC5606" d="M80.2,10.4h-1.9c-0.2,0-0.4,0-0.5-0.1c-0.1-0.1-0.2-0.2-0.3-0.4l-0.6-1.8H73l-0.6,1.8
			c0,0.1-0.1,0.3-0.3,0.4c-0.1,0.1-0.3,0.2-0.5,0.2h-1.9l4-10.3h2.4L80.2,10.4z M73.5,6.5h2.8l-0.9-2.8c-0.1-0.2-0.1-0.4-0.2-0.6
			C75.1,2.8,75,2.5,75,2.2c-0.1,0.3-0.2,0.6-0.2,0.8c-0.1,0.2-0.2,0.5-0.2,0.6L73.5,6.5z"/>
		<path fill="#DC5606" d="M83.5,8.5h3.8v1.9h-6.2V0.1h2.4V8.5z"/>
		<path fill="#ED7D3A" d="M94.5,10.4h-2.4V0.1h2.4V10.4z"/>
		<path fill="#ED7D3A" d="M97.8,0.1c0.1,0,0.1,0,0.2,0.1c0.1,0,0.1,0.1,0.2,0.1c0.1,0,0.1,0.1,0.2,0.2l4.9,6.2c0-0.2,0-0.4,0-0.6
			c0-0.2,0-0.4,0-0.5V0.1h2.1v10.3h-1.2c-0.2,0-0.3,0-0.5-0.1c-0.1-0.1-0.2-0.2-0.4-0.3l-4.9-6.1c0,0.2,0,0.4,0,0.5
			c0,0.2,0,0.3,0,0.5v5.5h-2.1V0.1h1.3C97.7,0.1,97.8,0.1,97.8,0.1z"/>
		<path fill="#ED7D3A" d="M108.6,0.1c0.1,0,0.1,0,0.2,0.1c0.1,0,0.1,0.1,0.2,0.1c0.1,0,0.1,0.1,0.2,0.2l4.9,6.2c0-0.2,0-0.4,0-0.6
			c0-0.2,0-0.4,0-0.5V0.1h2.1v10.3h-1.2c-0.2,0-0.3,0-0.5-0.1c-0.1-0.1-0.2-0.2-0.4-0.3l-4.9-6.1c0,0.2,0,0.4,0,0.5
			c0,0.2,0,0.3,0,0.5v5.5H107V0.1h1.3C108.4,0.1,108.5,0.1,108.6,0.1z"/>
		<path fill="#ED7D3A" d="M127.9,5.3c0,0.7-0.1,1.4-0.4,2.1c-0.3,0.6-0.6,1.2-1.1,1.7c-0.5,0.5-1,0.8-1.7,1.1
			c-0.7,0.3-1.4,0.4-2.2,0.4c-0.8,0-1.5-0.1-2.2-0.4c-0.7-0.3-1.2-0.6-1.7-1.1c-0.5-0.5-0.8-1-1.1-1.7c-0.3-0.6-0.4-1.3-0.4-2.1
			c0-0.7,0.1-1.4,0.4-2.1c0.3-0.6,0.6-1.2,1.1-1.7c0.5-0.5,1-0.8,1.7-1.1c0.7-0.3,1.4-0.4,2.2-0.4c0.8,0,1.5,0.1,2.2,0.4
			c0.7,0.3,1.2,0.6,1.7,1.1c0.5,0.5,0.8,1,1.1,1.7C127.8,3.8,127.9,4.5,127.9,5.3z M125.4,5.3c0-0.5-0.1-1-0.2-1.4
			c-0.1-0.4-0.3-0.8-0.6-1c-0.2-0.3-0.6-0.5-0.9-0.7C123.4,2,123,2,122.5,2c-0.5,0-0.9,0.1-1.2,0.2c-0.4,0.2-0.7,0.4-0.9,0.7
			c-0.2,0.3-0.4,0.6-0.6,1s-0.2,0.9-0.2,1.4c0,0.5,0.1,1,0.2,1.4s0.3,0.8,0.6,1c0.2,0.3,0.6,0.5,0.9,0.6c0.4,0.1,0.8,0.2,1.2,0.2
			c0.5,0,0.9-0.1,1.2-0.2c0.4-0.1,0.7-0.4,0.9-0.6c0.2-0.3,0.4-0.6,0.6-1C125.4,6.2,125.4,5.8,125.4,5.3z"/>
		<path fill="#ED7D3A" d="M127.5,0.1h1.9c0.2,0,0.4,0,0.5,0.1s0.2,0.2,0.3,0.4l2,5.5c0.1,0.2,0.2,0.5,0.3,0.8
			c0.1,0.3,0.2,0.6,0.3,0.9c0.1-0.3,0.1-0.6,0.2-0.9c0.1-0.3,0.2-0.5,0.3-0.8l2-5.5c0-0.1,0.1-0.3,0.3-0.4c0.1-0.1,0.3-0.2,0.5-0.2
			h1.9l-4.1,10.3h-2.2L127.5,0.1z"/>
		<path fill="#ED7D3A" d="M146.5,10.4h-1.9c-0.2,0-0.4,0-0.5-0.1c-0.1-0.1-0.2-0.2-0.3-0.4l-0.6-1.8h-3.9l-0.6,1.8
			c0,0.1-0.1,0.3-0.3,0.4c-0.1,0.1-0.3,0.2-0.5,0.2h-1.9l4-10.3h2.4L146.5,10.4z M139.9,6.5h2.8l-0.9-2.8c-0.1-0.2-0.1-0.4-0.2-0.6
			c-0.1-0.2-0.2-0.5-0.2-0.8c-0.1,0.3-0.2,0.6-0.2,0.8c-0.1,0.2-0.2,0.5-0.2,0.6L139.9,6.5z"/>
		<path fill="#ED7D3A" d="M153.5,0.1V2h-2.9v8.4h-2.4V2h-2.9V0.1H153.5z"/>
		<path fill="#ED7D3A" d="M156.9,10.4h-2.4V0.1h2.4V10.4z"/>
		<path fill="#ED7D3A" d="M168.9,5.3c0,0.7-0.1,1.4-0.4,2.1c-0.3,0.6-0.6,1.2-1.1,1.7c-0.5,0.5-1,0.8-1.7,1.1
			c-0.7,0.3-1.4,0.4-2.2,0.4c-0.8,0-1.5-0.1-2.2-0.4c-0.7-0.3-1.2-0.6-1.7-1.1c-0.5-0.5-0.8-1-1.1-1.7c-0.3-0.6-0.4-1.3-0.4-2.1
			c0-0.7,0.1-1.4,0.4-2.1c0.3-0.6,0.6-1.2,1.1-1.7c0.5-0.5,1-0.8,1.7-1.1c0.7-0.3,1.4-0.4,2.2-0.4c0.8,0,1.5,0.1,2.2,0.4
			c0.7,0.3,1.2,0.6,1.7,1.1c0.5,0.5,0.8,1,1.1,1.7S168.9,4.5,168.9,5.3z M166.4,5.3c0-0.5-0.1-1-0.2-1.4c-0.1-0.4-0.3-0.8-0.6-1
			c-0.2-0.3-0.6-0.5-0.9-0.7C164.4,2,164,2,163.5,2c-0.5,0-0.9,0.1-1.2,0.2c-0.4,0.2-0.7,0.4-0.9,0.7s-0.4,0.6-0.6,1
			s-0.2,0.9-0.2,1.4c0,0.5,0.1,1,0.2,1.4s0.3,0.8,0.6,1c0.2,0.3,0.6,0.5,0.9,0.6c0.4,0.1,0.8,0.2,1.2,0.2c0.5,0,0.9-0.1,1.2-0.2
			c0.4-0.1,0.7-0.4,0.9-0.6c0.2-0.3,0.4-0.6,0.6-1C166.4,6.2,166.4,5.8,166.4,5.3z"/>
		<path fill="#ED7D3A" d="M171.6,0.1c0.1,0,0.1,0,0.2,0.1s0.1,0.1,0.2,0.1c0.1,0,0.1,0.1,0.2,0.2l4.9,6.2c0-0.2,0-0.4,0-0.6
			c0-0.2,0-0.4,0-0.5V0.1h2.1v10.3h-1.2c-0.2,0-0.3,0-0.5-0.1c-0.1-0.1-0.2-0.2-0.4-0.3l-4.9-6.1c0,0.2,0,0.4,0,0.5
			c0,0.2,0,0.3,0,0.5v5.5H170V0.1h1.3C171.4,0.1,171.5,0.1,171.6,0.1z"/>
	</g>
	<g>
		<path fill="#565A5C" d="M46,15.6v3.6h-8.3v4.7H44v3.5h-6.3v4.8H46v3.6H33V15.6H46z"/>
		<path fill="#565A5C" d="M53.7,25.4l-6.2-9.8h4.7c0.3,0,0.5,0,0.7,0.1c0.1,0.1,0.3,0.2,0.4,0.4l4,6.8c0-0.1,0.1-0.2,0.2-0.3
			c0.1-0.1,0.1-0.2,0.2-0.3l3.5-6c0.2-0.4,0.5-0.6,0.9-0.6h4.5l-6.3,9.6l6.5,10.6H62c-0.3,0-0.6-0.1-0.7-0.2
			c-0.2-0.1-0.3-0.3-0.4-0.5l-4-7.1c-0.1,0.2-0.2,0.4-0.2,0.5L52.7,35c-0.1,0.2-0.3,0.4-0.4,0.5c-0.2,0.2-0.4,0.2-0.7,0.2h-4.4
			L53.7,25.4z"/>
		<path fill="#565A5C" d="M80.5,30.6c0.1,0,0.2,0,0.3,0.1c0.1,0,0.2,0.1,0.3,0.2l1.9,2c-0.8,1.1-1.8,1.9-3.1,2.4
			c-1.2,0.5-2.7,0.8-4.3,0.8c-1.5,0-2.9-0.3-4.1-0.8s-2.2-1.2-3.1-2.2c-0.8-0.9-1.5-2-1.9-3.3c-0.5-1.3-0.7-2.6-0.7-4.1
			c0-1.5,0.3-2.9,0.8-4.1c0.5-1.3,1.2-2.3,2.2-3.3c0.9-0.9,2-1.6,3.3-2.1c1.3-0.5,2.7-0.8,4.3-0.8c0.8,0,1.5,0.1,2.1,0.2
			c0.7,0.1,1.3,0.3,1.9,0.6c0.6,0.2,1.1,0.5,1.6,0.8c0.5,0.3,0.9,0.7,1.3,1.1l-1.6,2.1c-0.1,0.1-0.2,0.2-0.4,0.4
			c-0.1,0.1-0.3,0.2-0.6,0.2c-0.2,0-0.3,0-0.5-0.1c-0.1-0.1-0.3-0.2-0.5-0.3c-0.2-0.1-0.3-0.2-0.5-0.3c-0.2-0.1-0.4-0.2-0.7-0.3
			c-0.3-0.1-0.6-0.2-1-0.3s-0.8-0.1-1.3-0.1c-0.8,0-1.6,0.2-2.3,0.4c-0.7,0.3-1.3,0.7-1.8,1.3s-0.9,1.2-1.2,2
			c-0.3,0.8-0.4,1.7-0.4,2.7c0,1,0.1,2,0.4,2.8c0.3,0.8,0.7,1.5,1.1,2c0.5,0.5,1,1,1.7,1.3c0.6,0.3,1.3,0.4,2.1,0.4
			c0.4,0,0.8,0,1.2-0.1c0.4,0,0.7-0.1,1-0.2c0.3-0.1,0.6-0.2,0.9-0.4c0.3-0.2,0.5-0.4,0.8-0.6c0.1-0.1,0.2-0.2,0.4-0.2
			C80.2,30.6,80.3,30.6,80.5,30.6z"/>
		<path fill="#565A5C" d="M102.6,35.8h-4.7v-8.5h-8.2v8.5H85V15.6h4.7V24h8.2v-8.4h4.7V35.8z"/>
		<path fill="#565A5C" d="M124.4,35.8h-3.6c-0.4,0-0.7-0.1-1-0.3c-0.3-0.2-0.4-0.4-0.5-0.7l-1.2-3.5h-7.7l-1.2,3.5
			c-0.1,0.3-0.3,0.5-0.5,0.7c-0.3,0.2-0.6,0.3-1,0.3H104l7.8-20.2h4.8L124.4,35.8z M111.4,28.1h5.5l-1.9-5.5
			c-0.1-0.4-0.3-0.8-0.4-1.2c-0.2-0.5-0.3-1-0.5-1.5c-0.1,0.6-0.3,1.1-0.5,1.6c-0.2,0.5-0.3,0.9-0.4,1.2L111.4,28.1z"/>
		<path fill="#565A5C" d="M128.7,15.6c0.1,0,0.3,0.1,0.4,0.1c0.1,0.1,0.2,0.1,0.3,0.2c0.1,0.1,0.2,0.2,0.3,0.4l9.6,12.1
			c0-0.4-0.1-0.8-0.1-1.1c0-0.4,0-0.7,0-1V15.6h4.1v20.2h-2.4c-0.4,0-0.7-0.1-0.9-0.2c-0.2-0.1-0.5-0.3-0.7-0.6l-9.5-12
			c0,0.4,0.1,0.7,0.1,1c0,0.3,0,0.7,0,0.9v10.8h-4.1V15.6h2.5C128.4,15.6,128.6,15.6,128.7,15.6z"/>
		<path fill="#565A5C" d="M156,32.4c0.6,0,1.2-0.1,1.7-0.2c0.5-0.1,1-0.3,1.4-0.4v-3.1h-2c-0.3,0-0.5-0.1-0.7-0.2
			c-0.2-0.2-0.2-0.4-0.2-0.6v-2.6h7.2v8.5c-0.5,0.4-1.1,0.7-1.6,1c-0.6,0.3-1.2,0.5-1.8,0.7c-0.6,0.2-1.3,0.3-2,0.4
			c-0.7,0.1-1.5,0.1-2.3,0.1c-1.5,0-2.8-0.3-4.1-0.8c-1.3-0.5-2.3-1.2-3.3-2.2c-0.9-0.9-1.6-2-2.2-3.3c-0.5-1.3-0.8-2.6-0.8-4.1
			c0-1.5,0.2-2.9,0.7-4.1c0.5-1.3,1.2-2.3,2.1-3.3c0.9-0.9,2-1.6,3.4-2.1c1.3-0.5,2.8-0.8,4.4-0.8c0.8,0,1.6,0.1,2.4,0.2
			c0.7,0.1,1.4,0.3,2,0.6c0.6,0.2,1.2,0.5,1.7,0.9c0.5,0.3,1,0.7,1.4,1.1l-1.4,2.1c-0.1,0.2-0.3,0.3-0.5,0.5
			c-0.2,0.1-0.4,0.2-0.6,0.2c-0.3,0-0.6-0.1-0.9-0.3c-0.4-0.2-0.7-0.4-1-0.6c-0.3-0.2-0.7-0.3-1-0.4c-0.3-0.1-0.7-0.2-1.1-0.2
			c-0.4,0-0.8-0.1-1.3-0.1c-0.9,0-1.7,0.2-2.4,0.5c-0.7,0.3-1.3,0.7-1.8,1.3c-0.5,0.6-0.9,1.2-1.1,2c-0.3,0.8-0.4,1.7-0.4,2.6
			c0,1.1,0.1,2,0.4,2.9c0.3,0.8,0.7,1.5,1.2,2.1c0.5,0.6,1.1,1,1.9,1.3C154.4,32.3,155.2,32.4,156,32.4z"/>
		<path fill="#565A5C" d="M179.1,15.6v3.6h-8.3v4.7h6.3v3.5h-6.3v4.8h8.3v3.6h-13V15.6H179.1z"/>
	</g>
</g>
</svg>
