<?xml version="1.0" encoding="utf-8"?>
<!-- Generator: Adobe Illustrator 18.1.1, SVG Export Plug-In . SVG Version: 6.00 Build 0)  -->
<!DOCTYPE svg PUBLIC "-//W3C//DTD SVG 1.1//EN" "http://www.w3.org/Graphics/SVG/1.1/DTD/svg11.dtd">
<svg version="1.1" id="Layer_1" xmlns="http://www.w3.org/2000/svg" xmlns:xlink="http://www.w3.org/1999/xlink" x="0px" y="0px"
	 width="24px" height="20px" viewBox="0 0 24 20" enable-background="new 0 0 24 20" xml:space="preserve">
<path fill="#FFFFFF" d="M16.1,1.3c1.3,0,2.4,0.5,3.2,1.4c1-0.2,1.9-0.6,2.8-1.1c-0.3,1-1,1.9-1.9,2.4C21,4,21.9,3.7,22.7,3.4
	c-0.6,0.9-1.3,1.6-2.2,2.3c0,0.2,0,0.4,0,0.6c0,5.8-4.4,12.5-12.5,12.5c-2.5,0-4.8-0.7-6.7-2c0.3,0,0.7,0.1,1,0.1
	c2.1,0,3.9-0.7,5.4-1.9c-1.9,0-3.5-1.3-4.1-3c0.3,0,0.5,0.1,0.8,0.1c0.4,0,0.8-0.1,1.2-0.2c-2-0.4-3.5-2.2-3.5-4.3c0,0,0,0,0-0.1
	C2.8,7.8,3.5,8,4.2,8C3,7.2,2.2,5.9,2.2,4.3c0-0.8,0.2-1.6,0.6-2.2c2.2,2.6,5.4,4.4,9,4.6c-0.1-0.3-0.1-0.7-0.1-1
	C11.7,3.3,13.7,1.3,16.1,1.3 M22.1,1.6L22.1,1.6 M16.1,0c-3,0-5.4,2.3-5.7,5.2C7.9,4.7,5.5,3.3,3.9,1.3C3.6,1,3.2,0.8,2.8,0.8
	c0,0-0.1,0-0.1,0c-0.4,0-0.8,0.3-1,0.7C1.2,2.3,0.9,3.3,0.9,4.3c0,0.7,0.1,1.4,0.4,2.1C1,6.7,0.9,7,0.9,7.4v0.1c0,1.5,0.6,2.9,1.6,4
	c-0.1,0.3-0.1,0.5,0,0.8c0.4,1.2,1.1,2.2,2.1,2.9c-0.7,0.2-1.4,0.3-2.1,0.3c-0.3,0-0.6,0-0.9-0.1c-0.1,0-0.1,0-0.2,0
	c-0.6,0-1.1,0.4-1.3,0.9c-0.2,0.6,0,1.2,0.5,1.6C2.8,19.2,5.4,20,8,20c8.6,0,13.7-7,13.8-13.7c0.7-0.6,1.4-1.4,1.9-2.2
	c0.3-0.5,0.3-1.1-0.1-1.6c-0.1-0.1-0.2-0.2-0.4-0.3c0,0,0,0,0-0.1c0.1-0.2,0.1-0.3,0.1-0.5c0-0.7-0.6-1.3-1.3-1.3l0,0c0,0,0,0,0,0
	c0,0,0,0,0,0c-0.2,0-0.5,0.1-0.7,0.2c-0.5,0.3-1.1,0.6-1.7,0.7C18.7,0.4,17.4,0,16.1,0L16.1,0z"/>
</svg>
