<?xml version="1.0" encoding="utf-8"?>
<!-- Generator: Adobe Illustrator 18.1.1, SVG Export Plug-In . SVG Version: 6.00 Build 0)  -->
<!DOCTYPE svg PUBLIC "-//W3C//DTD SVG 1.1//EN" "http://www.w3.org/Graphics/SVG/1.1/DTD/svg11.dtd">
<svg version="1.1" id="Layer_1" xmlns="http://www.w3.org/2000/svg" xmlns:xlink="http://www.w3.org/1999/xlink" x="0px" y="0px"
	 width="12px" height="22.9px" viewBox="0 0 12 22.9" enable-background="new 0 0 12 22.9" xml:space="preserve">
<path fill="#FFFFFF" d="M7.5,1.3l3.1,0v3.5c0,0-1.9,0-2.3,0C8,4.8,7.5,5,7.5,5.8v2.1h3.2l-0.4,3.6H7.5c0,4.6,0,10.2,0,10.2H3.3
	c0,0,0-5.6,0-10.2h-2V7.9h2V5.5C3.3,3.9,4.1,1.3,7.5,1.3 M7.5,0C3.5,0,2,3,2,5.5v1.1H1.3C0.6,6.6,0,7.2,0,7.9v3.6
	c0,0.7,0.6,1.3,1.3,1.3H2v8.9c0,0.7,0.6,1.3,1.3,1.3h4.2c0.7,0,1.3-0.6,1.3-1.3v-8.9h1.6c0.7,0,1.2-0.5,1.3-1.1L12,8
	c0-0.4-0.1-0.7-0.3-1c-0.2-0.3-0.6-0.4-0.9-0.4H8.8V6h1.9c0.7,0,1.3-0.6,1.3-1.3V1.3c0-0.7-0.6-1.3-1.3-1.3L7.5,0C7.5,0,7.5,0,7.5,0
	L7.5,0z"/>
</svg>
