<?xml version="1.0" encoding="utf-8"?>
<!-- Generated by IcoMoon.io -->
<!DOCTYPE svg PUBLIC "-//W3C//DTD SVG 1.1//EN" "http://www.w3.org/Graphics/SVG/1.1/DTD/svg11.dtd">
<svg version="1.1" xmlns="http://www.w3.org/2000/svg" xmlns:xlink="http://www.w3.org/1999/xlink" width="26" height="20" viewBox="0 0 26 20">
<path fill="#dc5606" d="M21.412 20c-0.235 0-0.353-0.118-0.471-0.235l-1.765-1.765h-8.706c-0.353 0-0.706-0.353-0.706-0.706v-2.588h1.412v1.882h8.235c0.235 0 0.353 0.118 0.471 0.235l0.824 0.824v-0.353c0-0.353 0.353-0.706 0.706-0.706h3.059v-8.706h-4v-1.412h4.706c0.353 0 0.706 0.353 0.706 0.706v10.118c0 0.353-0.353 0.706-0.706 0.706h-3.059v1.294c0 0.235-0.118 0.588-0.471 0.588-0.118 0.118-0.118 0.118-0.235 0.118z"></path>
<path fill="#dc5606" d="M3.529 16.118c-0.118 0-0.235 0-0.235 0-0.235-0.118-0.471-0.353-0.471-0.588v-1.765h-2.118c-0.353-0.118-0.706-0.353-0.706-0.824v-12.235c0-0.353 0.353-0.706 0.706-0.706h17.882c0.353 0 0.706 0.353 0.706 0.706v12.235c0 0.353-0.353 0.706-0.706 0.706h-12.353l-2.235 2.235c-0.118 0.118-0.353 0.235-0.471 0.235zM1.412 12.353h2.118c0.353 0 0.706 0.353 0.706 0.706v0.706l1.176-1.176c0.118-0.118 0.353-0.235 0.471-0.235h12v-10.941h-16.471v10.941z"></path>
</svg>
