<?xml version="1.0" encoding="utf-8"?>
<!-- Generated by IcoMoon.io -->
<!DOCTYPE svg PUBLIC "-//W3C//DTD SVG 1.1//EN" "http://www.w3.org/Graphics/SVG/1.1/DTD/svg11.dtd">
<svg version="1.1" xmlns="http://www.w3.org/2000/svg" xmlns:xlink="http://www.w3.org/1999/xlink" width="46" height="46" viewBox="0 0 46 46">
<path fill="#ffffff" d="M23 46c-12.65 0-23-10.35-23-23s10.35-23 23-23 23 10.35 23 23c0 12.65-10.35 23-23 23zM23 2.76c-11.27 0-20.24 9.2-20.24 20.24 0 11.27 9.2 20.24 20.24 20.24s20.24-9.2 20.24-20.24c0-11.27-8.97-20.24-20.24-20.24z"></path>
<path fill="#ffffff" d="M25.3 13.57c0 0.889-0.721 1.61-1.61 1.61s-1.61-0.721-1.61-1.61c0-0.889 0.721-1.61 1.61-1.61s1.61 0.721 1.61 1.61z"></path>
<path fill="#ffffff" d="M28.29 31.97h-9.43v-1.84h3.22v-11.5h-3.22v-2.070h6.21v13.57h3.22v0.23z"></path>
</svg>
