<?xml version="1.0" encoding="utf-8"?>
<!-- Generated by IcoMoon.io -->
<!DOCTYPE svg PUBLIC "-//W3C//DTD SVG 1.1//EN" "http://www.w3.org/Graphics/SVG/1.1/DTD/svg11.dtd">
<svg version="1.1" xmlns="http://www.w3.org/2000/svg" xmlns:xlink="http://www.w3.org/1999/xlink" width="45" height="46" viewBox="0 0 45 46">
<path fill="#ffffff" d="M44.686 15.771l-4.819-8.543h-8.324l-4.162-7.229h-9.857l-4.162 7.229h-8.543l-4.819 8.543 4.162 7.229-4.162 7.229 4.819 8.543h8.324l4.381 7.229h9.857l4.162-7.229h8.324l4.819-8.543-4.162-7.229 4.162-7.229zM41.838 15.771l-3.505 5.914h-6.79l-3.505-5.914 3.505-5.914h6.79l3.505 5.914zM19.057 28.914l-3.505-5.914 3.505-5.914h6.79l3.505 5.914-3.505 5.914h-6.79zM19.057 2.629h6.79l3.505 5.914-3.505 5.914h-6.79l-3.505-5.914 3.505-5.914zM6.352 9.857h6.79l3.505 5.914-3.286 5.914h-7.010l-3.286-5.914 3.286-5.914zM3.067 30.229l3.505-5.914h6.79l3.505 5.914-3.505 5.914h-7.010l-3.286-5.914zM25.848 43.371h-6.79l-3.505-5.914 3.505-5.914h6.79l3.505 5.914-3.505 5.914zM38.333 36.143h-6.79l-3.505-5.914 3.505-5.914h6.79l3.505 5.914-3.505 5.914z"></path>
</svg>
