<?xml version="1.0" encoding="utf-8"?>
<!-- Generated by IcoMoon.io -->
<!DOCTYPE svg PUBLIC "-//W3C//DTD SVG 1.1//EN" "http://www.w3.org/Graphics/SVG/1.1/DTD/svg11.dtd">
<svg version="1.1" xmlns="http://www.w3.org/2000/svg" xmlns:xlink="http://www.w3.org/1999/xlink" width="18" height="21" viewBox="0 0 18 21">
<path fill="#ffffff" d="M14.921 14.589c-0.884 0-1.768 0.442-2.321 0.995l-6.411-3.979c0.111-0.332 0.221-0.774 0.221-1.105 0-0.442-0.111-0.774-0.221-1.216l6.521-3.758c0.553 0.553 1.437 0.995 2.321 0.995 1.768 0 3.205-1.437 3.205-3.205s-1.547-3.316-3.316-3.316-3.205 1.437-3.205 3.205c0 0.442 0.111 0.774 0.221 1.216l-6.411 3.758c-0.553-0.663-1.437-0.995-2.321-0.995-1.768 0-3.205 1.437-3.205 3.205s1.437 3.205 3.205 3.205c0.884 0 1.768-0.332 2.321-0.995l6.411 3.979c-0.111 0.332-0.221 0.663-0.221 1.105 0 1.768 1.437 3.205 3.205 3.205s3.205-1.437 3.205-3.205-1.437-3.095-3.205-3.095zM14.921 1.326c1.105 0 1.879 0.884 1.879 1.879s-0.884 1.879-1.879 1.879-1.879-0.884-1.879-1.879 0.884-1.879 1.879-1.879zM3.205 12.379c-1.105 0-1.879-0.884-1.879-1.879s0.884-1.989 1.879-1.989c0.663 0 1.216 0.332 1.547 0.774 0 0 0 0 0 0.111 0 0 0 0 0.111 0.111 0.221 0.332 0.332 0.663 0.332 0.995s-0.111 0.774-0.332 0.995c0 0 0 0 0 0s0 0 0 0c-0.332 0.553-0.995 0.884-1.658 0.884zM14.921 19.674c-1.105 0-1.879-0.884-1.879-1.879 0-0.332 0.111-0.663 0.221-0.995 0 0 0 0 0 0s0 0 0 0c0.332-0.553 0.995-0.884 1.658-0.884 1.105 0 1.879 0.884 1.879 1.879 0.111 0.995-0.774 1.879-1.879 1.879z"></path>
</svg>
