<?xml version="1.0" encoding="utf-8"?>
<!-- Generated by IcoMoon.io -->
<!DOCTYPE svg PUBLIC "-//W3C//DTD SVG 1.1//EN" "http://www.w3.org/Graphics/SVG/1.1/DTD/svg11.dtd">
<svg version="1.1" xmlns="http://www.w3.org/2000/svg" xmlns:xlink="http://www.w3.org/1999/xlink" width="16" height="18" viewBox="0 0 16 18">
<path fill="#ffffff" d="M12.789 12.505c-0.758 0-1.516 0.379-1.989 0.853l-5.495-3.411c0.095-0.284 0.189-0.663 0.189-0.947 0-0.379-0.095-0.663-0.189-1.042l5.589-3.221c0.474 0.474 1.232 0.853 1.989 0.853 1.516 0 2.747-1.232 2.747-2.747s-1.326-2.842-2.842-2.842-2.747 1.232-2.747 2.747c0 0.379 0.095 0.663 0.189 1.042l-5.495 3.221c-0.474-0.568-1.232-0.853-1.989-0.853-1.516 0-2.747 1.232-2.747 2.747s1.232 2.747 2.747 2.747c0.758 0 1.516-0.284 1.989-0.853l5.495 3.411c-0.095 0.284-0.189 0.568-0.189 0.947 0 1.516 1.232 2.747 2.747 2.747s2.747-1.232 2.747-2.747-1.232-2.653-2.747-2.653zM12.789 1.137c0.947 0 1.611 0.758 1.611 1.611s-0.758 1.611-1.611 1.611-1.611-0.758-1.611-1.611 0.758-1.611 1.611-1.611zM2.747 10.611c-0.947 0-1.611-0.758-1.611-1.611s0.758-1.705 1.611-1.705c0.568 0 1.042 0.284 1.326 0.663 0 0 0 0 0 0.095 0 0 0 0 0.095 0.095 0.189 0.284 0.284 0.568 0.284 0.853s-0.095 0.663-0.284 0.853c0 0 0 0 0 0s0 0 0 0c-0.284 0.474-0.853 0.758-1.421 0.758zM12.789 16.863c-0.947 0-1.611-0.758-1.611-1.611 0-0.284 0.095-0.568 0.189-0.853 0 0 0 0 0 0s0 0 0 0c0.284-0.474 0.853-0.758 1.421-0.758 0.947 0 1.611 0.758 1.611 1.611 0.095 0.853-0.663 1.611-1.611 1.611z"></path>
</svg>
