<?xml version="1.0" encoding="utf-8"?>
<!-- Generated by IcoMoon.io -->
<!DOCTYPE svg PUBLIC "-//W3C//DTD SVG 1.1//EN" "http://www.w3.org/Graphics/SVG/1.1/DTD/svg11.dtd">
<svg version="1.1" xmlns="http://www.w3.org/2000/svg" xmlns:xlink="http://www.w3.org/1999/xlink" width="18" height="17" viewBox="0 0 18 17">
<path d="M13.2 0c-1.8 0-3.3 1-4.2 2.4-0.8-1.4-2.4-2.4-4.1-2.4-2.7 0-4.9 2.2-4.9 4.9 0 0.7 0.1 1.3 0.4 1.9 1.3 3.6 8 9.9 8.2 10.1 0.1 0 0.3 0.1 0.4 0.1 0.2 0 0.3-0.1 0.4-0.2 0.3-0.3 6.9-6.5 8.2-10.1 0.3-0.6 0.4-1.2 0.4-1.9 0.1-2.6-2.1-4.8-4.8-4.8zM16.5 6.3c-1 2.8-5.9 7.7-7.4 9.2-1.6-1.5-6.5-6.4-7.5-9.3-0.2-0.4-0.3-0.9-0.3-1.3 0-2 1.6-3.5 3.5-3.5s3.5 1.5 3.5 3.5c0 0.4 0.3 0.6 0.7 0.6s0.6-0.3 0.7-0.6c0-1.9 1.6-3.4 3.5-3.4 2 0 3.5 1.6 3.5 3.5 0.1 0.3 0 0.8-0.2 1.3z" fill="#698bb1"></path>
</svg>
